<ttFont>
    <TTGlyph name="A" xMin="60" yMin="-10" xMax="536" yMax="700">
      <contour>
        <pt x="536" y="0" on="1"/>
        <pt x="427" y="0" on="1"/>
        <pt x="427" y="110" on="1"/>
        <pt x="414" y="67" on="0"/>
        <pt x="331" y="-10" on="0"/>
        <pt x="271" y="-10" on="1"/>
        <pt x="175" y="-10" on="0"/>
        <pt x="60" y="125" on="0"/>
        <pt x="60" y="247" on="1"/>
        <pt x="60" y="446" on="1"/>
        <pt x="60" y="569" on="0"/>
        <pt x="187" y="700" on="0"/>
        <pt x="273" y="700" on="1"/>
        <pt x="309" y="700" on="0"/>
        <pt x="368" y="670" on="0"/>
        <pt x="386" y="648" on="1"/>
        <pt x="415" y="611" on="0"/>
        <pt x="427" y="575" on="1"/>
        <pt x="427" y="690" on="1"/>
        <pt x="536" y="690" on="1"/>
      </contour>
      <contour>
        <pt x="426" y="227" on="1"/>
        <pt x="426" y="468" on="1"/>
        <pt x="426" y="542" on="0"/>
        <pt x="348" y="665" on="0"/>
        <pt x="283" y="665" on="1"/>
        <pt x="246" y="665" on="0"/>
        <pt x="195" y="627" on="0"/>
        <pt x="185" y="596" on="1"/>
        <pt x="168" y="545" on="0"/>
        <pt x="168" y="497" on="1"/>
        <pt x="168" y="197" on="1"/>
        <pt x="168" y="109" on="0"/>
        <pt x="234" y="25" on="0"/>
        <pt x="354" y="25" on="0"/>
        <pt x="426" y="146" on="0"/>
      </contour>
    </TTGlyph>
    <TTGlyph name="Aacute" xMin="60" yMin="-10" xMax="536" yMax="920">
      <contour>
        <pt x="536" y="0" on="1"/>
        <pt x="427" y="0" on="1"/>
        <pt x="427" y="110" on="1"/>
        <pt x="414" y="67" on="0"/>
        <pt x="331" y="-10" on="0"/>
        <pt x="271" y="-10" on="1"/>
        <pt x="175" y="-10" on="0"/>
        <pt x="60" y="125" on="0"/>
        <pt x="60" y="247" on="1"/>
        <pt x="60" y="446" on="1"/>
        <pt x="60" y="569" on="0"/>
        <pt x="187" y="700" on="0"/>
        <pt x="273" y="700" on="1"/>
        <pt x="309" y="700" on="0"/>
        <pt x="368" y="670" on="0"/>
        <pt x="386" y="648" on="1"/>
        <pt x="415" y="611" on="0"/>
        <pt x="427" y="575" on="1"/>
        <pt x="427" y="690" on="1"/>
        <pt x="536" y="690" on="1"/>
      </contour>
      <contour>
        <pt x="426" y="227" on="1"/>
        <pt x="426" y="468" on="1"/>
        <pt x="426" y="542" on="0"/>
        <pt x="348" y="665" on="0"/>
        <pt x="283" y="665" on="1"/>
        <pt x="246" y="665" on="0"/>
        <pt x="195" y="627" on="0"/>
        <pt x="185" y="596" on="1"/>
        <pt x="168" y="545" on="0"/>
        <pt x="168" y="497" on="1"/>
        <pt x="168" y="197" on="1"/>
        <pt x="168" y="109" on="0"/>
        <pt x="234" y="25" on="0"/>
        <pt x="354" y="25" on="0"/>
        <pt x="426" y="146" on="0"/>
      </contour>
      <contour>
        <pt x="316" y="904" on="1"/>
        <pt x="325" y="920" on="0"/>
        <pt x="358" y="920" on="0"/>
        <pt x="385" y="895" on="0"/>
        <pt x="385" y="866" on="0"/>
        <pt x="374" y="857" on="1"/>
        <pt x="259" y="757" on="1"/>
        <pt x="242" y="769" on="1"/>
      </contour>
    </TTGlyph>
    <TTGlyph name="Abreve" xMin="60" yMin="-10" xMax="536" yMax="875">
      <contour>
        <pt x="536" y="0" on="1"/>
        <pt x="427" y="0" on="1"/>
        <pt x="427" y="110" on="1"/>
        <pt x="414" y="67" on="0"/>
        <pt x="331" y="-10" on="0"/>
        <pt x="271" y="-10" on="1"/>
        <pt x="175" y="-10" on="0"/>
        <pt x="60" y="125" on="0"/>
        <pt x="60" y="247" on="1"/>
        <pt x="60" y="446" on="1"/>
        <pt x="60" y="569" on="0"/>
        <pt x="187" y="700" on="0"/>
        <pt x="273" y="700" on="1"/>
        <pt x="309" y="700" on="0"/>
        <pt x="368" y="670" on="0"/>
        <pt x="386" y="648" on="1"/>
        <pt x="415" y="611" on="0"/>
        <pt x="427" y="575" on="1"/>
        <pt x="427" y="690" on="1"/>
        <pt x="536" y="690" on="1"/>
      </contour>
      <contour>
        <pt x="426" y="227" on="1"/>
        <pt x="426" y="468" on="1"/>
        <pt x="426" y="542" on="0"/>
        <pt x="348" y="665" on="0"/>
        <pt x="283" y="665" on="1"/>
        <pt x="246" y="665" on="0"/>
        <pt x="195" y="627" on="0"/>
        <pt x="185" y="596" on="1"/>
        <pt x="168" y="545" on="0"/>
        <pt x="168" y="497" on="1"/>
        <pt x="168" y="197" on="1"/>
        <pt x="168" y="109" on="0"/>
        <pt x="234" y="25" on="0"/>
        <pt x="354" y="25" on="0"/>
        <pt x="426" y="146" on="0"/>
      </contour>
      <contour>
        <pt x="427" y="819" on="0"/>
        <pt x="358" y="755" on="0"/>
        <pt x="247" y="755" on="0"/>
        <pt x="178" y="819" on="0"/>
        <pt x="175" y="875" on="1"/>
        <pt x="201" y="875" on="1"/>
        <pt x="223" y="814" on="0"/>
        <pt x="386" y="814" on="0"/>
        <pt x="404" y="875" on="1"/>
        <pt x="431" y="875" on="1"/>
      </contour>
    </TTGlyph>
    <TTGlyph name="Acircumflex" xMin="60" yMin="-10" xMax="536" yMax="911">
      <contour>
        <pt x="536" y="0" on="1"/>
        <pt x="427" y="0" on="1"/>
        <pt x="427" y="110" on="1"/>
        <pt x="414" y="67" on="0"/>
        <pt x="331" y="-10" on="0"/>
        <pt x="271" y="-10" on="1"/>
        <pt x="175" y="-10" on="0"/>
        <pt x="60" y="125" on="0"/>
        <pt x="60" y="247" on="1"/>
        <pt x="60" y="446" on="1"/>
        <pt x="60" y="569" on="0"/>
        <pt x="187" y="700" on="0"/>
        <pt x="273" y="700" on="1"/>
        <pt x="309" y="700" on="0"/>
        <pt x="368" y="670" on="0"/>
        <pt x="386" y="648" on="1"/>
        <pt x="415" y="611" on="0"/>
        <pt x="427" y="575" on="1"/>
        <pt x="427" y="690" on="1"/>
        <pt x="536" y="690" on="1"/>
      </contour>
      <contour>
        <pt x="426" y="227" on="1"/>
        <pt x="426" y="468" on="1"/>
        <pt x="426" y="542" on="0"/>
        <pt x="348" y="665" on="0"/>
        <pt x="283" y="665" on="1"/>
        <pt x="246" y="665" on="0"/>
        <pt x="195" y="627" on="0"/>
        <pt x="185" y="596" on="1"/>
        <pt x="168" y="545" on="0"/>
        <pt x="168" y="497" on="1"/>
        <pt x="168" y="197" on="1"/>
        <pt x="168" y="109" on="0"/>
        <pt x="234" y="25" on="0"/>
        <pt x="354" y="25" on="0"/>
        <pt x="426" y="146" on="0"/>
      </contour>
      <contour>
        <pt x="242" y="894" on="1"/>
        <pt x="251" y="911" on="0"/>
        <pt x="291" y="911" on="0"/>
        <pt x="300" y="894" on="1"/>
        <pt x="375" y="768" on="1"/>
        <pt x="363" y="758" on="1"/>
        <pt x="272" y="855" on="1"/>
        <pt x="179" y="758" on="1"/>
        <pt x="167" y="768" on="1"/>
      </contour>
    </TTGlyph>
    <TTGlyph name="Adieresis" xMin="60" yMin="-10" xMax="536" yMax="868">
      <contour>
        <pt x="536" y="0" on="1"/>
        <pt x="427" y="0" on="1"/>
        <pt x="427" y="110" on="1"/>
        <pt x="414" y="67" on="0"/>
        <pt x="331" y="-10" on="0"/>
        <pt x="271" y="-10" on="1"/>
        <pt x="175" y="-10" on="0"/>
        <pt x="60" y="125" on="0"/>
        <pt x="60" y="247" on="1"/>
        <pt x="60" y="446" on="1"/>
        <pt x="60" y="569" on="0"/>
        <pt x="187" y="700" on="0"/>
        <pt x="273" y="700" on="1"/>
        <pt x="309" y="700" on="0"/>
        <pt x="368" y="670" on="0"/>
        <pt x="386" y="648" on="1"/>
        <pt x="415" y="611" on="0"/>
        <pt x="427" y="575" on="1"/>
        <pt x="427" y="690" on="1"/>
        <pt x="536" y="690" on="1"/>
      </contour>
      <contour>
        <pt x="426" y="227" on="1"/>
        <pt x="426" y="468" on="1"/>
        <pt x="426" y="542" on="0"/>
        <pt x="348" y="665" on="0"/>
        <pt x="283" y="665" on="1"/>
        <pt x="246" y="665" on="0"/>
        <pt x="195" y="627" on="0"/>
        <pt x="185" y="596" on="1"/>
        <pt x="168" y="545" on="0"/>
        <pt x="168" y="497" on="1"/>
        <pt x="168" y="197" on="1"/>
        <pt x="168" y="109" on="0"/>
        <pt x="234" y="25" on="0"/>
        <pt x="354" y="25" on="0"/>
        <pt x="426" y="146" on="0"/>
      </contour>
      <contour>
        <pt x="316" y="837" on="0"/>
        <pt x="342" y="868" on="0"/>
        <pt x="378" y="868" on="0"/>
        <pt x="404" y="837" on="0"/>
        <pt x="404" y="792" on="0"/>
        <pt x="378" y="760" on="0"/>
        <pt x="342" y="760" on="0"/>
        <pt x="316" y="792" on="0"/>
      </contour>
      <contour>
        <pt x="164" y="837" on="0"/>
        <pt x="190" y="868" on="0"/>
        <pt x="226" y="868" on="0"/>
        <pt x="252" y="837" on="0"/>
        <pt x="252" y="792" on="0"/>
        <pt x="226" y="760" on="0"/>
        <pt x="190" y="760" on="0"/>
        <pt x="164" y="792" on="0"/>
      </contour>
    </TTGlyph>
    <TTGlyph name="Agrave" xMin="60" yMin="-10" xMax="536" yMax="922">
      <contour>
        <pt x="536" y="0" on="1"/>
        <pt x="427" y="0" on="1"/>
        <pt x="427" y="110" on="1"/>
        <pt x="414" y="67" on="0"/>
        <pt x="331" y="-10" on="0"/>
        <pt x="271" y="-10" on="1"/>
        <pt x="175" y="-10" on="0"/>
        <pt x="60" y="125" on="0"/>
        <pt x="60" y="247" on="1"/>
        <pt x="60" y="446" on="1"/>
        <pt x="60" y="569" on="0"/>
        <pt x="187" y="700" on="0"/>
        <pt x="273" y="700" on="1"/>
        <pt x="309" y="700" on="0"/>
        <pt x="368" y="670" on="0"/>
        <pt x="386" y="648" on="1"/>
        <pt x="415" y="611" on="0"/>
        <pt x="427" y="575" on="1"/>
        <pt x="427" y="690" on="1"/>
        <pt x="536" y="690" on="1"/>
      </contour>
      <contour>
        <pt x="426" y="227" on="1"/>
        <pt x="426" y="468" on="1"/>
        <pt x="426" y="542" on="0"/>
        <pt x="348" y="665" on="0"/>
        <pt x="283" y="665" on="1"/>
        <pt x="246" y="665" on="0"/>
        <pt x="195" y="627" on="0"/>
        <pt x="185" y="596" on="1"/>
        <pt x="168" y="545" on="0"/>
        <pt x="168" y="497" on="1"/>
        <pt x="168" y="197" on="1"/>
        <pt x="168" y="109" on="0"/>
        <pt x="234" y="25" on="0"/>
        <pt x="354" y="25" on="0"/>
        <pt x="426" y="146" on="0"/>
      </contour>
      <contour>
        <pt x="178" y="858" on="1"/>
        <pt x="167" y="869" on="0"/>
        <pt x="167" y="897" on="0"/>
        <pt x="193" y="922" on="0"/>
        <pt x="227" y="922" on="0"/>
        <pt x="236" y="906" on="1"/>
        <pt x="310" y="771" on="1"/>
        <pt x="293" y="758" on="1"/>
      </contour>
    </TTGlyph>
    <TTGlyph name="Amacron" xMin="60" yMin="-10" xMax="536" yMax="910">
      <contour>
        <pt x="536" y="0" on="1"/>
        <pt x="427" y="0" on="1"/>
        <pt x="427" y="110" on="1"/>
        <pt x="414" y="67" on="0"/>
        <pt x="331" y="-10" on="0"/>
        <pt x="271" y="-10" on="1"/>
        <pt x="175" y="-10" on="0"/>
        <pt x="60" y="125" on="0"/>
        <pt x="60" y="247" on="1"/>
        <pt x="60" y="446" on="1"/>
        <pt x="60" y="569" on="0"/>
        <pt x="187" y="700" on="0"/>
        <pt x="273" y="700" on="1"/>
        <pt x="309" y="700" on="0"/>
        <pt x="368" y="670" on="0"/>
        <pt x="386" y="648" on="1"/>
        <pt x="415" y="611" on="0"/>
        <pt x="427" y="575" on="1"/>
        <pt x="427" y="690" on="1"/>
        <pt x="536" y="690" on="1"/>
      </contour>
      <contour>
        <pt x="426" y="227" on="1"/>
        <pt x="426" y="468" on="1"/>
        <pt x="426" y="542" on="0"/>
        <pt x="348" y="665" on="0"/>
        <pt x="283" y="665" on="1"/>
        <pt x="246" y="665" on="0"/>
        <pt x="195" y="627" on="0"/>
        <pt x="185" y="596" on="1"/>
        <pt x="168" y="545" on="0"/>
        <pt x="168" y="497" on="1"/>
        <pt x="168" y="197" on="1"/>
        <pt x="168" y="109" on="0"/>
        <pt x="234" y="25" on="0"/>
        <pt x="354" y="25" on="0"/>
        <pt x="426" y="146" on="0"/>
      </contour>
      <contour>
        <pt x="414" y="860" on="1"/>
        <pt x="192" y="860" on="1"/>
        <pt x="192" y="910" on="1"/>
        <pt x="414" y="910" on="1"/>
      </contour>
    </TTGlyph>
    <TTGlyph name="Aring" xMin="60" yMin="-10" xMax="536" yMax="894">
      <contour>
        <pt x="536" y="0" on="1"/>
        <pt x="427" y="0" on="1"/>
        <pt x="427" y="110" on="1"/>
        <pt x="414" y="67" on="0"/>
        <pt x="331" y="-10" on="0"/>
        <pt x="271" y="-10" on="1"/>
        <pt x="175" y="-10" on="0"/>
        <pt x="60" y="125" on="0"/>
        <pt x="60" y="247" on="1"/>
        <pt x="60" y="446" on="1"/>
        <pt x="60" y="569" on="0"/>
        <pt x="187" y="700" on="0"/>
        <pt x="273" y="700" on="1"/>
        <pt x="309" y="700" on="0"/>
        <pt x="368" y="670" on="0"/>
        <pt x="386" y="648" on="1"/>
        <pt x="415" y="611" on="0"/>
        <pt x="427" y="575" on="1"/>
        <pt x="427" y="690" on="1"/>
        <pt x="536" y="690" on="1"/>
      </contour>
      <contour>
        <pt x="426" y="227" on="1"/>
        <pt x="426" y="468" on="1"/>
        <pt x="426" y="542" on="0"/>
        <pt x="348" y="665" on="0"/>
        <pt x="283" y="665" on="1"/>
        <pt x="246" y="665" on="0"/>
        <pt x="195" y="627" on="0"/>
        <pt x="185" y="596" on="1"/>
        <pt x="168" y="545" on="0"/>
        <pt x="168" y="497" on="1"/>
        <pt x="168" y="197" on="1"/>
        <pt x="168" y="109" on="0"/>
        <pt x="234" y="25" on="0"/>
        <pt x="354" y="25" on="0"/>
        <pt x="426" y="146" on="0"/>
      </contour>
      <contour>
        <pt x="316" y="894" on="0"/>
        <pt x="350" y="856" on="0"/>
        <pt x="350" y="797" on="0"/>
        <pt x="316" y="760" on="0"/>
        <pt x="266" y="760" on="0"/>
        <pt x="232" y="797" on="0"/>
        <pt x="232" y="856" on="0"/>
        <pt x="266" y="894" on="0"/>
      </contour>
      <contour>
        <pt x="305" y="784" on="0"/>
        <pt x="326" y="809" on="0"/>
        <pt x="326" y="844" on="0"/>
        <pt x="305" y="869" on="0"/>
        <pt x="277" y="869" on="0"/>
        <pt x="256" y="844" on="0"/>
        <pt x="256" y="809" on="0"/>
        <pt x="277" y="784" on="0"/>
      </contour>
    </TTGlyph>
    <TTGlyph name="Atilde" xMin="60" yMin="-10" xMax="536" yMax="844">
      <contour>
        <pt x="536" y="0" on="1"/>
        <pt x="427" y="0" on="1"/>
        <pt x="427" y="110" on="1"/>
        <pt x="414" y="67" on="0"/>
        <pt x="331" y="-10" on="0"/>
        <pt x="271" y="-10" on="1"/>
        <pt x="175" y="-10" on="0"/>
        <pt x="60" y="125" on="0"/>
        <pt x="60" y="247" on="1"/>
        <pt x="60" y="446" on="1"/>
        <pt x="60" y="569" on="0"/>
        <pt x="187" y="700" on="0"/>
        <pt x="273" y="700" on="1"/>
        <pt x="309" y="700" on="0"/>
        <pt x="368" y="670" on="0"/>
        <pt x="386" y="648" on="1"/>
        <pt x="415" y="611" on="0"/>
        <pt x="427" y="575" on="1"/>
        <pt x="427" y="690" on="1"/>
        <pt x="536" y="690" on="1"/>
      </contour>
      <contour>
        <pt x="426" y="227" on="1"/>
        <pt x="426" y="468" on="1"/>
        <pt x="426" y="542" on="0"/>
        <pt x="348" y="665" on="0"/>
        <pt x="283" y="665" on="1"/>
        <pt x="246" y="665" on="0"/>
        <pt x="195" y="627" on="0"/>
        <pt x="185" y="596" on="1"/>
        <pt x="168" y="545" on="0"/>
        <pt x="168" y="497" on="1"/>
        <pt x="168" y="197" on="1"/>
        <pt x="168" y="109" on="0"/>
        <pt x="234" y="25" on="0"/>
        <pt x="354" y="25" on="0"/>
        <pt x="426" y="146" on="0"/>
      </contour>
      <contour>
        <pt x="354" y="761" on="0"/>
        <pt x="310" y="761" on="0"/>
        <pt x="236" y="798" on="0"/>
        <pt x="220" y="798" on="1"/>
        <pt x="189" y="798" on="0"/>
        <pt x="160" y="769" on="1"/>
        <pt x="147" y="780" on="1"/>
        <pt x="202" y="844" on="0"/>
        <pt x="256" y="844" on="1"/>
        <pt x="273" y="844" on="0"/>
        <pt x="336" y="811" on="0"/>
        <pt x="384" y="811" on="0"/>
        <pt x="406" y="825" on="1"/>
        <pt x="407" y="826" on="1"/>
        <pt x="419" y="816" on="1"/>
        <pt x="401" y="791" on="0"/>
      </contour>
    </TTGlyph>
    <TTGlyph name="B" xMin="70" yMin="0" xMax="497" yMax="690">
      <contour>
        <pt x="497" y="184" on="1"/>
        <pt x="497" y="0" on="0"/>
        <pt x="251" y="0" on="1"/>
        <pt x="70" y="0" on="1"/>
        <pt x="70" y="690" on="1"/>
        <pt x="226" y="690" on="1"/>
        <pt x="364" y="690" on="0"/>
        <pt x="422" y="642" on="1"/>
        <pt x="472" y="601" on="0"/>
        <pt x="472" y="518" on="1"/>
        <pt x="472" y="453" on="0"/>
        <pt x="411" y="385" on="0"/>
        <pt x="348" y="365" on="1"/>
        <pt x="420" y="343" on="0"/>
        <pt x="497" y="258" on="0"/>
      </contour>
      <contour>
        <pt x="369" y="524" on="1"/>
        <pt x="369" y="611" on="0"/>
        <pt x="318" y="636" on="1"/>
        <pt x="274" y="656" on="0"/>
        <pt x="197" y="656" on="1"/>
        <pt x="178" y="656" on="1"/>
        <pt x="178" y="378" on="1"/>
        <pt x="218" y="378" on="1"/>
        <pt x="369" y="378" on="0"/>
      </contour>
      <contour>
        <pt x="307" y="34" on="0"/>
        <pt x="392" y="109" on="0"/>
        <pt x="392" y="270" on="0"/>
        <pt x="307" y="349" on="0"/>
        <pt x="242" y="349" on="1"/>
        <pt x="178" y="349" on="1"/>
        <pt x="178" y="34" on="1"/>
        <pt x="213" y="34" on="1"/>
      </contour>
    </TTGlyph>
    <TTGlyph name="C" xMin="60" yMin="-10" xMax="512" yMax="700">
      <contour>
        <pt x="512" y="486" on="1"/>
        <pt x="426" y="486" on="1"/>
        <pt x="426" y="509" on="1"/>
        <pt x="426" y="579" on="0"/>
        <pt x="361" y="665" on="0"/>
        <pt x="234" y="665" on="0"/>
        <pt x="169" y="579" on="0"/>
        <pt x="169" y="509" on="1"/>
        <pt x="169" y="182" on="1"/>
        <pt x="169" y="111" on="0"/>
        <pt x="234" y="25" on="0"/>
        <pt x="361" y="25" on="0"/>
        <pt x="426" y="111" on="0"/>
        <pt x="426" y="182" on="1"/>
        <pt x="426" y="204" on="1"/>
        <pt x="512" y="204" on="1"/>
        <pt x="512" y="194" on="1"/>
        <pt x="512" y="140" on="0"/>
        <pt x="470" y="57" on="0"/>
        <pt x="436" y="34" on="1"/>
        <pt x="370" y="-10" on="0"/>
        <pt x="298" y="-10" on="1"/>
        <pt x="189" y="-10" on="0"/>
        <pt x="60" y="140" on="0"/>
        <pt x="60" y="254" on="1"/>
        <pt x="60" y="436" on="1"/>
        <pt x="60" y="550" on="0"/>
        <pt x="189" y="700" on="0"/>
        <pt x="298" y="700" on="1"/>
        <pt x="383" y="700" on="0"/>
        <pt x="512" y="594" on="0"/>
        <pt x="512" y="499" on="1"/>
      </contour>
    </TTGlyph>
    <TTGlyph name="Ccedilla" xMin="60" yMin="-188" xMax="512" yMax="700">
      <contour>
        <pt x="512" y="486" on="1"/>
        <pt x="426" y="486" on="1"/>
        <pt x="426" y="509" on="1"/>
        <pt x="426" y="579" on="0"/>
        <pt x="361" y="665" on="0"/>
        <pt x="234" y="665" on="0"/>
        <pt x="169" y="579" on="0"/>
        <pt x="169" y="509" on="1"/>
        <pt x="169" y="182" on="1"/>
        <pt x="169" y="111" on="0"/>
        <pt x="234" y="25" on="0"/>
        <pt x="361" y="25" on="0"/>
        <pt x="426" y="111" on="0"/>
        <pt x="426" y="182" on="1"/>
        <pt x="426" y="204" on="1"/>
        <pt x="512" y="204" on="1"/>
        <pt x="512" y="194" on="1"/>
        <pt x="512" y="104" on="0"/>
        <pt x="406" y="5" on="0"/>
        <pt x="335" y="-7" on="1"/>
        <pt x="334" y="-71" on="0"/>
        <pt x="295" y="-148" on="0"/>
        <pt x="243" y="-188" on="1"/>
        <pt x="231" y="-178" on="1"/>
        <pt x="246" y="-159" on="0"/>
        <pt x="262" y="-89" on="0"/>
        <pt x="264" y="-39" on="1"/>
        <pt x="264" y="-8" on="1"/>
        <pt x="169" y="4" on="0"/>
        <pt x="60" y="149" on="0"/>
        <pt x="60" y="254" on="1"/>
        <pt x="60" y="436" on="1"/>
        <pt x="60" y="550" on="0"/>
        <pt x="189" y="700" on="0"/>
        <pt x="298" y="700" on="1"/>
        <pt x="383" y="700" on="0"/>
        <pt x="512" y="594" on="0"/>
        <pt x="512" y="499" on="1"/>
      </contour>
    </TTGlyph>
    <TTGlyph name="D" xMin="70" yMin="0" xMax="516" yMax="690">
      <contour>
        <pt x="516" y="269" on="1"/>
        <pt x="516" y="153" on="0"/>
        <pt x="373" y="0" on="0"/>
        <pt x="261" y="0" on="1"/>
        <pt x="70" y="0" on="1"/>
        <pt x="70" y="690" on="1"/>
        <pt x="261" y="690" on="1"/>
        <pt x="373" y="690" on="0"/>
        <pt x="516" y="537" on="0"/>
        <pt x="516" y="421" on="1"/>
      </contour>
      <contour>
        <pt x="408" y="222" on="1"/>
        <pt x="408" y="468" on="1"/>
        <pt x="408" y="559" on="0"/>
        <pt x="310" y="656" on="0"/>
        <pt x="224" y="656" on="1"/>
        <pt x="178" y="656" on="1"/>
        <pt x="178" y="34" on="1"/>
        <pt x="224" y="34" on="1"/>
        <pt x="310" y="34" on="0"/>
        <pt x="408" y="131" on="0"/>
      </contour>
    </TTGlyph>
    <TTGlyph name="E" xMin="60" yMin="-10" xMax="512" yMax="700">
      <contour>
        <pt x="512" y="486" on="1"/>
        <pt x="426" y="486" on="1"/>
        <pt x="426" y="508" on="1"/>
        <pt x="426" y="579" on="0"/>
        <pt x="361" y="665" on="0"/>
        <pt x="234" y="665" on="0"/>
        <pt x="169" y="579" on="0"/>
        <pt x="169" y="508" on="1"/>
        <pt x="169" y="388" on="1"/>
        <pt x="433" y="388" on="1"/>
        <pt x="433" y="341" on="1"/>
        <pt x="169" y="341" on="1"/>
        <pt x="169" y="182" on="1"/>
        <pt x="169" y="111" on="0"/>
        <pt x="234" y="25" on="0"/>
        <pt x="361" y="25" on="0"/>
        <pt x="426" y="111" on="0"/>
        <pt x="426" y="182" on="1"/>
        <pt x="426" y="204" on="1"/>
        <pt x="512" y="204" on="1"/>
        <pt x="512" y="194" on="1"/>
        <pt x="512" y="140" on="0"/>
        <pt x="470" y="57" on="0"/>
        <pt x="436" y="34" on="1"/>
        <pt x="370" y="-10" on="0"/>
        <pt x="298" y="-10" on="1"/>
        <pt x="189" y="-10" on="0"/>
        <pt x="60" y="140" on="0"/>
        <pt x="60" y="254" on="1"/>
        <pt x="60" y="436" on="1"/>
        <pt x="60" y="550" on="0"/>
        <pt x="189" y="700" on="0"/>
        <pt x="298" y="700" on="1"/>
        <pt x="383" y="700" on="0"/>
        <pt x="512" y="594" on="0"/>
        <pt x="512" y="499" on="1"/>
      </contour>
    </TTGlyph>
    <TTGlyph name="Eacute" xMin="60" yMin="-10" xMax="512" yMax="922">
      <contour>
        <pt x="512" y="486" on="1"/>
        <pt x="426" y="486" on="1"/>
        <pt x="426" y="508" on="1"/>
        <pt x="426" y="579" on="0"/>
        <pt x="361" y="665" on="0"/>
        <pt x="234" y="665" on="0"/>
        <pt x="169" y="579" on="0"/>
        <pt x="169" y="508" on="1"/>
        <pt x="169" y="388" on="1"/>
        <pt x="433" y="388" on="1"/>
        <pt x="433" y="341" on="1"/>
        <pt x="169" y="341" on="1"/>
        <pt x="169" y="182" on="1"/>
        <pt x="169" y="111" on="0"/>
        <pt x="234" y="25" on="0"/>
        <pt x="361" y="25" on="0"/>
        <pt x="426" y="111" on="0"/>
        <pt x="426" y="182" on="1"/>
        <pt x="426" y="204" on="1"/>
        <pt x="512" y="204" on="1"/>
        <pt x="512" y="194" on="1"/>
        <pt x="512" y="140" on="0"/>
        <pt x="470" y="57" on="0"/>
        <pt x="436" y="34" on="1"/>
        <pt x="370" y="-10" on="0"/>
        <pt x="298" y="-10" on="1"/>
        <pt x="189" y="-10" on="0"/>
        <pt x="60" y="140" on="0"/>
        <pt x="60" y="254" on="1"/>
        <pt x="60" y="436" on="1"/>
        <pt x="60" y="550" on="0"/>
        <pt x="189" y="700" on="0"/>
        <pt x="298" y="700" on="1"/>
        <pt x="383" y="700" on="0"/>
        <pt x="512" y="594" on="0"/>
        <pt x="512" y="499" on="1"/>
      </contour>
      <contour>
        <pt x="333" y="906" on="1"/>
        <pt x="342" y="922" on="0"/>
        <pt x="375" y="922" on="0"/>
        <pt x="402" y="897" on="0"/>
        <pt x="402" y="868" on="0"/>
        <pt x="391" y="859" on="1"/>
        <pt x="276" y="759" on="1"/>
        <pt x="259" y="771" on="1"/>
      </contour>
    </TTGlyph>
    <TTGlyph name="Ecircumflex" xMin="60" yMin="-10" xMax="512" yMax="915">
      <contour>
        <pt x="512" y="486" on="1"/>
        <pt x="426" y="486" on="1"/>
        <pt x="426" y="508" on="1"/>
        <pt x="426" y="579" on="0"/>
        <pt x="361" y="665" on="0"/>
        <pt x="234" y="665" on="0"/>
        <pt x="169" y="579" on="0"/>
        <pt x="169" y="508" on="1"/>
        <pt x="169" y="388" on="1"/>
        <pt x="433" y="388" on="1"/>
        <pt x="433" y="341" on="1"/>
        <pt x="169" y="341" on="1"/>
        <pt x="169" y="182" on="1"/>
        <pt x="169" y="111" on="0"/>
        <pt x="234" y="25" on="0"/>
        <pt x="361" y="25" on="0"/>
        <pt x="426" y="111" on="0"/>
        <pt x="426" y="182" on="1"/>
        <pt x="426" y="204" on="1"/>
        <pt x="512" y="204" on="1"/>
        <pt x="512" y="194" on="1"/>
        <pt x="512" y="140" on="0"/>
        <pt x="470" y="57" on="0"/>
        <pt x="436" y="34" on="1"/>
        <pt x="370" y="-10" on="0"/>
        <pt x="298" y="-10" on="1"/>
        <pt x="189" y="-10" on="0"/>
        <pt x="60" y="140" on="0"/>
        <pt x="60" y="254" on="1"/>
        <pt x="60" y="436" on="1"/>
        <pt x="60" y="550" on="0"/>
        <pt x="189" y="700" on="0"/>
        <pt x="298" y="700" on="1"/>
        <pt x="383" y="700" on="0"/>
        <pt x="512" y="594" on="0"/>
        <pt x="512" y="499" on="1"/>
      </contour>
      <contour>
        <pt x="267" y="898" on="1"/>
        <pt x="276" y="915" on="0"/>
        <pt x="316" y="915" on="0"/>
        <pt x="325" y="898" on="1"/>
        <pt x="400" y="772" on="1"/>
        <pt x="388" y="762" on="1"/>
        <pt x="297" y="859" on="1"/>
        <pt x="204" y="762" on="1"/>
        <pt x="192" y="772" on="1"/>
      </contour>
    </TTGlyph>
    <TTGlyph name="Edieresis" xMin="60" yMin="-10" xMax="512" yMax="868">
      <contour>
        <pt x="512" y="486" on="1"/>
        <pt x="426" y="486" on="1"/>
        <pt x="426" y="508" on="1"/>
        <pt x="426" y="579" on="0"/>
        <pt x="361" y="665" on="0"/>
        <pt x="234" y="665" on="0"/>
        <pt x="169" y="579" on="0"/>
        <pt x="169" y="508" on="1"/>
        <pt x="169" y="388" on="1"/>
        <pt x="433" y="388" on="1"/>
        <pt x="433" y="341" on="1"/>
        <pt x="169" y="341" on="1"/>
        <pt x="169" y="182" on="1"/>
        <pt x="169" y="111" on="0"/>
        <pt x="234" y="25" on="0"/>
        <pt x="361" y="25" on="0"/>
        <pt x="426" y="111" on="0"/>
        <pt x="426" y="182" on="1"/>
        <pt x="426" y="204" on="1"/>
        <pt x="512" y="204" on="1"/>
        <pt x="512" y="194" on="1"/>
        <pt x="512" y="140" on="0"/>
        <pt x="470" y="57" on="0"/>
        <pt x="436" y="34" on="1"/>
        <pt x="370" y="-10" on="0"/>
        <pt x="298" y="-10" on="1"/>
        <pt x="189" y="-10" on="0"/>
        <pt x="60" y="140" on="0"/>
        <pt x="60" y="254" on="1"/>
        <pt x="60" y="436" on="1"/>
        <pt x="60" y="550" on="0"/>
        <pt x="189" y="700" on="0"/>
        <pt x="298" y="700" on="1"/>
        <pt x="383" y="700" on="0"/>
        <pt x="512" y="594" on="0"/>
        <pt x="512" y="499" on="1"/>
      </contour>
      <contour>
        <pt x="326" y="837" on="0"/>
        <pt x="352" y="868" on="0"/>
        <pt x="388" y="868" on="0"/>
        <pt x="414" y="837" on="0"/>
        <pt x="414" y="792" on="0"/>
        <pt x="388" y="760" on="0"/>
        <pt x="352" y="760" on="0"/>
        <pt x="326" y="792" on="0"/>
      </contour>
      <contour>
        <pt x="174" y="837" on="0"/>
        <pt x="200" y="868" on="0"/>
        <pt x="236" y="868" on="0"/>
        <pt x="262" y="837" on="0"/>
        <pt x="262" y="792" on="0"/>
        <pt x="236" y="760" on="0"/>
        <pt x="200" y="760" on="0"/>
        <pt x="174" y="792" on="0"/>
      </contour>
    </TTGlyph>
    <TTGlyph name="Egrave" xMin="60" yMin="-10" xMax="512" yMax="922">
      <contour>
        <pt x="512" y="486" on="1"/>
        <pt x="426" y="486" on="1"/>
        <pt x="426" y="508" on="1"/>
        <pt x="426" y="579" on="0"/>
        <pt x="361" y="665" on="0"/>
        <pt x="234" y="665" on="0"/>
        <pt x="169" y="579" on="0"/>
        <pt x="169" y="508" on="1"/>
        <pt x="169" y="388" on="1"/>
        <pt x="433" y="388" on="1"/>
        <pt x="433" y="341" on="1"/>
        <pt x="169" y="341" on="1"/>
        <pt x="169" y="182" on="1"/>
        <pt x="169" y="111" on="0"/>
        <pt x="234" y="25" on="0"/>
        <pt x="361" y="25" on="0"/>
        <pt x="426" y="111" on="0"/>
        <pt x="426" y="182" on="1"/>
        <pt x="426" y="204" on="1"/>
        <pt x="512" y="204" on="1"/>
        <pt x="512" y="194" on="1"/>
        <pt x="512" y="140" on="0"/>
        <pt x="470" y="57" on="0"/>
        <pt x="436" y="34" on="1"/>
        <pt x="370" y="-10" on="0"/>
        <pt x="298" y="-10" on="1"/>
        <pt x="189" y="-10" on="0"/>
        <pt x="60" y="140" on="0"/>
        <pt x="60" y="254" on="1"/>
        <pt x="60" y="436" on="1"/>
        <pt x="60" y="550" on="0"/>
        <pt x="189" y="700" on="0"/>
        <pt x="298" y="700" on="1"/>
        <pt x="383" y="700" on="0"/>
        <pt x="512" y="594" on="0"/>
        <pt x="512" y="499" on="1"/>
      </contour>
      <contour>
        <pt x="218" y="858" on="1"/>
        <pt x="207" y="869" on="0"/>
        <pt x="207" y="897" on="0"/>
        <pt x="233" y="922" on="0"/>
        <pt x="267" y="922" on="0"/>
        <pt x="276" y="906" on="1"/>
        <pt x="350" y="771" on="1"/>
        <pt x="333" y="758" on="1"/>
      </contour>
    </TTGlyph>
    <TTGlyph name="Eth" xMin="0" yMin="0" xMax="517" yMax="690">
      <contour>
        <pt x="517" y="269" on="1"/>
        <pt x="517" y="153" on="0"/>
        <pt x="374" y="0" on="0"/>
        <pt x="262" y="0" on="1"/>
        <pt x="71" y="0" on="1"/>
        <pt x="71" y="365" on="1"/>
        <pt x="0" y="365" on="1"/>
        <pt x="0" y="430" on="1"/>
        <pt x="71" y="430" on="1"/>
        <pt x="71" y="690" on="1"/>
        <pt x="262" y="690" on="1"/>
        <pt x="374" y="690" on="0"/>
        <pt x="517" y="537" on="0"/>
        <pt x="517" y="421" on="1"/>
      </contour>
      <contour>
        <pt x="303" y="365" on="1"/>
        <pt x="179" y="365" on="1"/>
        <pt x="179" y="34" on="1"/>
        <pt x="225" y="34" on="1"/>
        <pt x="311" y="34" on="0"/>
        <pt x="409" y="131" on="0"/>
        <pt x="409" y="222" on="1"/>
        <pt x="409" y="468" on="1"/>
        <pt x="409" y="559" on="0"/>
        <pt x="311" y="656" on="0"/>
        <pt x="225" y="656" on="1"/>
        <pt x="179" y="656" on="1"/>
        <pt x="179" y="430" on="1"/>
        <pt x="303" y="430" on="1"/>
      </contour>
    </TTGlyph>
    <TTGlyph name="Euro" xMin="60" yMin="-10" xMax="569" yMax="700">
      <contour>
        <pt x="60" y="420" on="1"/>
        <pt x="117" y="420" on="1"/>
        <pt x="117" y="435" on="1"/>
        <pt x="117" y="549" on="0"/>
        <pt x="246" y="700" on="0"/>
        <pt x="355" y="700" on="1"/>
        <pt x="440" y="700" on="0"/>
        <pt x="569" y="594" on="0"/>
        <pt x="569" y="499" on="1"/>
        <pt x="569" y="486" on="1"/>
        <pt x="483" y="486" on="1"/>
        <pt x="483" y="509" on="1"/>
        <pt x="483" y="579" on="0"/>
        <pt x="418" y="665" on="0"/>
        <pt x="291" y="665" on="0"/>
        <pt x="226" y="579" on="0"/>
        <pt x="226" y="509" on="1"/>
        <pt x="226" y="420" on="1"/>
        <pt x="484" y="420" on="1"/>
        <pt x="484" y="373" on="1"/>
        <pt x="226" y="373" on="1"/>
        <pt x="226" y="326" on="1"/>
        <pt x="484" y="326" on="1"/>
        <pt x="484" y="279" on="1"/>
        <pt x="226" y="279" on="1"/>
        <pt x="226" y="182" on="1"/>
        <pt x="226" y="111" on="0"/>
        <pt x="291" y="25" on="0"/>
        <pt x="418" y="25" on="0"/>
        <pt x="483" y="111" on="0"/>
        <pt x="483" y="182" on="1"/>
        <pt x="483" y="204" on="1"/>
        <pt x="569" y="204" on="1"/>
        <pt x="569" y="194" on="1"/>
        <pt x="569" y="140" on="0"/>
        <pt x="527" y="57" on="0"/>
        <pt x="494" y="34" on="1"/>
        <pt x="427" y="-10" on="0"/>
        <pt x="355" y="-10" on="1"/>
        <pt x="246" y="-10" on="0"/>
        <pt x="117" y="140" on="0"/>
        <pt x="117" y="254" on="1"/>
        <pt x="117" y="279" on="1"/>
        <pt x="60" y="279" on="1"/>
        <pt x="60" y="326" on="1"/>
        <pt x="117" y="326" on="1"/>
        <pt x="117" y="373" on="1"/>
        <pt x="60" y="373" on="1"/>
      </contour>
    </TTGlyph>
    <TTGlyph name="F" xMin="45" yMin="0" xMax="414" yMax="700">
      <contour>
        <pt x="414" y="486" on="1"/>
        <pt x="333" y="486" on="1"/>
        <pt x="333" y="583" on="1"/>
        <pt x="333" y="620" on="0"/>
        <pt x="295" y="665" on="0"/>
        <pt x="232" y="665" on="0"/>
        <pt x="193" y="620" on="0"/>
        <pt x="193" y="583" on="1"/>
        <pt x="193" y="388" on="1"/>
        <pt x="336" y="388" on="1"/>
        <pt x="336" y="341" on="1"/>
        <pt x="193" y="341" on="1"/>
        <pt x="193" y="0" on="1"/>
        <pt x="85" y="0" on="1"/>
        <pt x="85" y="341" on="1"/>
        <pt x="45" y="341" on="1"/>
        <pt x="45" y="388" on="1"/>
        <pt x="85" y="388" on="1"/>
        <pt x="85" y="527" on="1"/>
        <pt x="85" y="609" on="0"/>
        <pt x="183" y="700" on="0"/>
        <pt x="319" y="700" on="0"/>
        <pt x="414" y="603" on="0"/>
        <pt x="414" y="521" on="1"/>
      </contour>
    </TTGlyph>
    <TTGlyph name="G" xMin="60" yMin="-210" xMax="524" yMax="700">
      <contour>
        <pt x="524" y="79" on="1"/>
        <pt x="524" y="-28" on="0"/>
        <pt x="506" y="-77" on="1"/>
        <pt x="483" y="-141" on="0"/>
        <pt x="442" y="-170" on="1"/>
        <pt x="387" y="-210" on="0"/>
        <pt x="226" y="-210" on="0"/>
        <pt x="116" y="-169" on="0"/>
        <pt x="87" y="-144" on="1"/>
        <pt x="106" y="-116" on="1"/>
        <pt x="128" y="-135" on="0"/>
        <pt x="213" y="-170" on="0"/>
        <pt x="265" y="-170" on="1"/>
        <pt x="363" y="-170" on="0"/>
        <pt x="424" y="-67" on="0"/>
        <pt x="424" y="55" on="1"/>
        <pt x="424" y="65" on="1"/>
        <pt x="386" y="-10" on="0"/>
        <pt x="296" y="-10" on="1"/>
        <pt x="188" y="-10" on="0"/>
        <pt x="60" y="139" on="0"/>
        <pt x="60" y="252" on="1"/>
        <pt x="60" y="437" on="1"/>
        <pt x="60" y="551" on="0"/>
        <pt x="188" y="700" on="0"/>
        <pt x="296" y="700" on="1"/>
        <pt x="380" y="700" on="0"/>
        <pt x="508" y="594" on="0"/>
        <pt x="508" y="500" on="1"/>
        <pt x="508" y="486" on="1"/>
        <pt x="424" y="486" on="1"/>
        <pt x="423" y="510" on="1"/>
        <pt x="420" y="581" on="0"/>
        <pt x="358" y="665" on="0"/>
        <pt x="233" y="665" on="0"/>
        <pt x="168" y="580" on="0"/>
        <pt x="168" y="510" on="1"/>
        <pt x="168" y="181" on="1"/>
        <pt x="168" y="110" on="0"/>
        <pt x="232" y="25" on="0"/>
        <pt x="296" y="25" on="1"/>
        <pt x="416" y="25" on="0"/>
        <pt x="423" y="181" on="1"/>
        <pt x="424" y="202" on="1"/>
        <pt x="524" y="202" on="1"/>
      </contour>
    </TTGlyph>
    <TTGlyph name="H" xMin="70" yMin="0" xMax="541" yMax="690">
      <contour>
        <pt x="541" y="690" on="1"/>
        <pt x="541" y="0" on="1"/>
        <pt x="432" y="0" on="1"/>
        <pt x="432" y="340" on="1"/>
        <pt x="178" y="340" on="1"/>
        <pt x="178" y="0" on="1"/>
        <pt x="70" y="0" on="1"/>
        <pt x="70" y="690" on="1"/>
        <pt x="178" y="690" on="1"/>
        <pt x="178" y="388" on="1"/>
        <pt x="432" y="388" on="1"/>
        <pt x="432" y="690" on="1"/>
      </contour>
    </TTGlyph>
    <TTGlyph name="I" xMin="70" yMin="0" xMax="179" yMax="690">
      <contour>
        <pt x="179" y="0" on="1"/>
        <pt x="70" y="0" on="1"/>
        <pt x="70" y="690" on="1"/>
        <pt x="179" y="690" on="1"/>
      </contour>
    </TTGlyph>
    <TTGlyph name="Iacute" xMin="70" yMin="0" xMax="213" yMax="919">
      <contour>
        <pt x="179" y="0" on="1"/>
        <pt x="70" y="0" on="1"/>
        <pt x="70" y="690" on="1"/>
        <pt x="179" y="690" on="1"/>
      </contour>
      <contour>
        <pt x="144" y="903" on="1"/>
        <pt x="153" y="919" on="0"/>
        <pt x="186" y="919" on="0"/>
        <pt x="213" y="894" on="0"/>
        <pt x="213" y="865" on="0"/>
        <pt x="202" y="856" on="1"/>
        <pt x="87" y="756" on="1"/>
        <pt x="70" y="768" on="1"/>
      </contour>
    </TTGlyph>
    <TTGlyph name="Icircumflex" xMin="22" yMin="0" xMax="230" yMax="913">
      <contour>
        <pt x="179" y="0" on="1"/>
        <pt x="70" y="0" on="1"/>
        <pt x="70" y="690" on="1"/>
        <pt x="179" y="690" on="1"/>
      </contour>
      <contour>
        <pt x="97" y="896" on="1"/>
        <pt x="106" y="913" on="0"/>
        <pt x="146" y="913" on="0"/>
        <pt x="155" y="896" on="1"/>
        <pt x="230" y="770" on="1"/>
        <pt x="218" y="760" on="1"/>
        <pt x="127" y="857" on="1"/>
        <pt x="34" y="760" on="1"/>
        <pt x="22" y="770" on="1"/>
      </contour>
    </TTGlyph>
    <TTGlyph name="Idieresis" xMin="8" yMin="0" xMax="248" yMax="867">
      <contour>
        <pt x="179" y="0" on="1"/>
        <pt x="70" y="0" on="1"/>
        <pt x="70" y="690" on="1"/>
        <pt x="179" y="690" on="1"/>
      </contour>
      <contour>
        <pt x="160" y="836" on="0"/>
        <pt x="186" y="867" on="0"/>
        <pt x="222" y="867" on="0"/>
        <pt x="248" y="836" on="0"/>
        <pt x="248" y="791" on="0"/>
        <pt x="222" y="759" on="0"/>
        <pt x="186" y="759" on="0"/>
        <pt x="160" y="791" on="0"/>
      </contour>
      <contour>
        <pt x="8" y="836" on="0"/>
        <pt x="34" y="867" on="0"/>
        <pt x="70" y="867" on="0"/>
        <pt x="96" y="836" on="0"/>
        <pt x="96" y="791" on="0"/>
        <pt x="70" y="759" on="0"/>
        <pt x="34" y="759" on="0"/>
        <pt x="8" y="791" on="0"/>
      </contour>
    </TTGlyph>
    <TTGlyph name="Igrave" xMin="35" yMin="0" xMax="179" yMax="919">
      <contour>
        <pt x="179" y="0" on="1"/>
        <pt x="70" y="0" on="1"/>
        <pt x="70" y="690" on="1"/>
        <pt x="179" y="690" on="1"/>
      </contour>
      <contour>
        <pt x="46" y="855" on="1"/>
        <pt x="35" y="866" on="0"/>
        <pt x="35" y="894" on="0"/>
        <pt x="61" y="919" on="0"/>
        <pt x="95" y="919" on="0"/>
        <pt x="104" y="903" on="1"/>
        <pt x="178" y="768" on="1"/>
        <pt x="161" y="755" on="1"/>
      </contour>
    </TTGlyph>
    <TTGlyph name="J" xMin="20" yMin="-10" xMax="388" yMax="690">
      <contour>
        <pt x="388" y="167" on="1"/>
        <pt x="388" y="93" on="0"/>
        <pt x="290" y="-10" on="0"/>
        <pt x="126" y="-10" on="0"/>
        <pt x="20" y="94" on="0"/>
        <pt x="20" y="168" on="1"/>
        <pt x="20" y="204" on="1"/>
        <pt x="100" y="204" on="1"/>
        <pt x="100" y="115" on="1"/>
        <pt x="100" y="78" on="0"/>
        <pt x="152" y="26" on="0"/>
        <pt x="229" y="26" on="0"/>
        <pt x="279" y="77" on="0"/>
        <pt x="279" y="121" on="1"/>
        <pt x="279" y="690" on="1"/>
        <pt x="388" y="690" on="1"/>
      </contour>
    </TTGlyph>
    <TTGlyph name="K" xMin="70" yMin="0" xMax="448" yMax="690">
      <contour>
        <pt x="448" y="0" on="1"/>
        <pt x="347" y="0" on="1"/>
        <pt x="347" y="135" on="1"/>
        <pt x="347" y="196" on="0"/>
        <pt x="336" y="275" on="0"/>
        <pt x="320" y="308" on="1"/>
        <pt x="288" y="370" on="0"/>
        <pt x="188" y="370" on="1"/>
        <pt x="178" y="370" on="1"/>
        <pt x="178" y="0" on="1"/>
        <pt x="70" y="0" on="1"/>
        <pt x="70" y="690" on="1"/>
        <pt x="178" y="690" on="1"/>
        <pt x="178" y="408" on="1"/>
        <pt x="243" y="408" on="0"/>
        <pt x="326" y="497" on="0"/>
        <pt x="326" y="565" on="1"/>
        <pt x="326" y="690" on="1"/>
        <pt x="435" y="690" on="1"/>
        <pt x="435" y="637" on="1"/>
        <pt x="435" y="559" on="0"/>
        <pt x="359" y="433" on="0"/>
        <pt x="294" y="401" on="1"/>
        <pt x="370" y="383" on="0"/>
        <pt x="402" y="328" on="1"/>
        <pt x="436" y="271" on="0"/>
        <pt x="441" y="226" on="1"/>
        <pt x="448" y="164" on="0"/>
        <pt x="448" y="111" on="1"/>
      </contour>
    </TTGlyph>
    <TTGlyph name="L" xMin="70" yMin="0" xMax="362" yMax="690">
      <contour>
        <pt x="362" y="0" on="1"/>
        <pt x="70" y="0" on="1"/>
        <pt x="70" y="690" on="1"/>
        <pt x="178" y="690" on="1"/>
        <pt x="178" y="47" on="1"/>
        <pt x="362" y="47" on="1"/>
      </contour>
    </TTGlyph>
    <TTGlyph name="Lslash" xMin="0" yMin="0" xMax="360" yMax="690">
      <contour>
        <pt x="176" y="47" on="1"/>
        <pt x="360" y="47" on="1"/>
        <pt x="360" y="0" on="1"/>
        <pt x="68" y="0" on="1"/>
        <pt x="68" y="314" on="1"/>
        <pt x="25" y="296" on="1"/>
        <pt x="0" y="356" on="1"/>
        <pt x="68" y="384" on="1"/>
        <pt x="68" y="690" on="1"/>
        <pt x="176" y="690" on="1"/>
        <pt x="176" y="429" on="1"/>
        <pt x="280" y="472" on="1"/>
        <pt x="305" y="412" on="1"/>
        <pt x="176" y="358" on="1"/>
      </contour>
    </TTGlyph>
    <TTGlyph name="M" xMin="70" yMin="0" xMax="842" yMax="700">
      <contour>
        <pt x="842" y="0" on="1"/>
        <pt x="732" y="0" on="1"/>
        <pt x="732" y="514" on="1"/>
        <pt x="732" y="594" on="0"/>
        <pt x="689" y="665" on="0"/>
        <pt x="596" y="665" on="0"/>
        <pt x="510" y="562" on="0"/>
        <pt x="510" y="464" on="1"/>
        <pt x="510" y="0" on="1"/>
        <pt x="401" y="0" on="1"/>
        <pt x="401" y="514" on="1"/>
        <pt x="401" y="594" on="0"/>
        <pt x="357" y="665" on="0"/>
        <pt x="265" y="665" on="0"/>
        <pt x="178" y="561" on="0"/>
        <pt x="178" y="464" on="1"/>
        <pt x="178" y="0" on="1"/>
        <pt x="70" y="0" on="1"/>
        <pt x="70" y="690" on="1"/>
        <pt x="178" y="690" on="1"/>
        <pt x="178" y="578" on="1"/>
        <pt x="228" y="700" on="0"/>
        <pt x="337" y="700" on="1"/>
        <pt x="466" y="700" on="0"/>
        <pt x="502" y="553" on="1"/>
        <pt x="520" y="618" on="0"/>
        <pt x="603" y="700" on="0"/>
        <pt x="669" y="700" on="1"/>
        <pt x="750" y="700" on="0"/>
        <pt x="842" y="578" on="0"/>
        <pt x="842" y="468" on="1"/>
      </contour>
    </TTGlyph>
    <TTGlyph name="N" xMin="70" yMin="0" xMax="546" yMax="700">
      <contour>
        <pt x="546" y="447" on="1"/>
        <pt x="546" y="0" on="1"/>
        <pt x="436" y="0" on="1"/>
        <pt x="436" y="498" on="1"/>
        <pt x="436" y="615" on="0"/>
        <pt x="376" y="652" on="1"/>
        <pt x="353" y="665" on="0"/>
        <pt x="323" y="665" on="1"/>
        <pt x="259" y="665" on="0"/>
        <pt x="178" y="544" on="0"/>
        <pt x="178" y="464" on="1"/>
        <pt x="178" y="0" on="1"/>
        <pt x="70" y="0" on="1"/>
        <pt x="70" y="690" on="1"/>
        <pt x="178" y="690" on="1"/>
        <pt x="178" y="575" on="1"/>
        <pt x="199" y="634" on="0"/>
        <pt x="281" y="700" on="0"/>
        <pt x="333" y="700" on="1"/>
        <pt x="422" y="700" on="0"/>
        <pt x="546" y="565" on="0"/>
      </contour>
    </TTGlyph>
    <TTGlyph name="Ntilde" xMin="70" yMin="0" xMax="546" yMax="844">
      <contour>
        <pt x="546" y="447" on="1"/>
        <pt x="546" y="0" on="1"/>
        <pt x="436" y="0" on="1"/>
        <pt x="436" y="498" on="1"/>
        <pt x="436" y="615" on="0"/>
        <pt x="376" y="652" on="1"/>
        <pt x="353" y="665" on="0"/>
        <pt x="323" y="665" on="1"/>
        <pt x="259" y="665" on="0"/>
        <pt x="178" y="544" on="0"/>
        <pt x="178" y="464" on="1"/>
        <pt x="178" y="0" on="1"/>
        <pt x="70" y="0" on="1"/>
        <pt x="70" y="690" on="1"/>
        <pt x="178" y="690" on="1"/>
        <pt x="178" y="575" on="1"/>
        <pt x="199" y="634" on="0"/>
        <pt x="281" y="700" on="0"/>
        <pt x="333" y="700" on="1"/>
        <pt x="422" y="700" on="0"/>
        <pt x="546" y="565" on="0"/>
      </contour>
      <contour>
        <pt x="399" y="761" on="0"/>
        <pt x="355" y="761" on="0"/>
        <pt x="281" y="798" on="0"/>
        <pt x="265" y="798" on="1"/>
        <pt x="234" y="798" on="0"/>
        <pt x="205" y="769" on="1"/>
        <pt x="192" y="780" on="1"/>
        <pt x="247" y="844" on="0"/>
        <pt x="301" y="844" on="1"/>
        <pt x="318" y="844" on="0"/>
        <pt x="381" y="811" on="0"/>
        <pt x="429" y="811" on="0"/>
        <pt x="451" y="825" on="1"/>
        <pt x="452" y="826" on="1"/>
        <pt x="464" y="816" on="1"/>
        <pt x="446" y="791" on="0"/>
      </contour>
    </TTGlyph>
    <TTGlyph name="O" xMin="60" yMin="-10" xMax="536" yMax="700">
      <contour>
        <pt x="536" y="260" on="1"/>
        <pt x="536" y="136" on="0"/>
        <pt x="414" y="-10" on="0"/>
        <pt x="182" y="-10" on="0"/>
        <pt x="60" y="136" on="0"/>
        <pt x="60" y="260" on="1"/>
        <pt x="60" y="429" on="1"/>
        <pt x="60" y="554" on="0"/>
        <pt x="182" y="700" on="0"/>
        <pt x="414" y="700" on="0"/>
        <pt x="536" y="553" on="0"/>
        <pt x="536" y="429" on="1"/>
      </contour>
      <contour>
        <pt x="426" y="182" on="1"/>
        <pt x="426" y="508" on="1"/>
        <pt x="426" y="578" on="0"/>
        <pt x="361" y="665" on="0"/>
        <pt x="234" y="665" on="0"/>
        <pt x="169" y="578" on="0"/>
        <pt x="169" y="508" on="1"/>
        <pt x="169" y="182" on="1"/>
        <pt x="169" y="111" on="0"/>
        <pt x="234" y="25" on="0"/>
        <pt x="361" y="25" on="0"/>
        <pt x="426" y="111" on="0"/>
      </contour>
    </TTGlyph>
    <TTGlyph name="OE" xMin="60" yMin="-10" xMax="878" yMax="700">
      <contour>
        <pt x="426" y="182" on="1"/>
        <pt x="426" y="509" on="1"/>
        <pt x="426" y="579" on="0"/>
        <pt x="361" y="665" on="0"/>
        <pt x="234" y="665" on="0"/>
        <pt x="169" y="579" on="0"/>
        <pt x="169" y="509" on="1"/>
        <pt x="169" y="182" on="1"/>
        <pt x="169" y="111" on="0"/>
        <pt x="234" y="25" on="0"/>
        <pt x="361" y="25" on="0"/>
        <pt x="426" y="111" on="0"/>
      </contour>
      <contour>
        <pt x="878" y="194" on="1"/>
        <pt x="878" y="140" on="0"/>
        <pt x="836" y="57" on="0"/>
        <pt x="802" y="34" on="1"/>
        <pt x="736" y="-10" on="0"/>
        <pt x="664" y="-10" on="1"/>
        <pt x="550" y="-10" on="0"/>
        <pt x="483" y="75" on="1"/>
        <pt x="420" y="-10" on="0"/>
        <pt x="182" y="-10" on="0"/>
        <pt x="60" y="136" on="0"/>
        <pt x="60" y="260" on="1"/>
        <pt x="60" y="430" on="1"/>
        <pt x="60" y="554" on="0"/>
        <pt x="182" y="700" on="0"/>
        <pt x="420" y="700" on="0"/>
        <pt x="483" y="615" on="1"/>
        <pt x="550" y="700" on="0"/>
        <pt x="664" y="700" on="1"/>
        <pt x="750" y="700" on="0"/>
        <pt x="878" y="594" on="0"/>
        <pt x="878" y="499" on="1"/>
        <pt x="878" y="486" on="1"/>
        <pt x="793" y="486" on="1"/>
        <pt x="793" y="508" on="1"/>
        <pt x="793" y="579" on="0"/>
        <pt x="728" y="665" on="0"/>
        <pt x="601" y="665" on="0"/>
        <pt x="536" y="579" on="0"/>
        <pt x="536" y="508" on="1"/>
        <pt x="536" y="388" on="1"/>
        <pt x="799" y="388" on="1"/>
        <pt x="799" y="341" on="1"/>
        <pt x="536" y="341" on="1"/>
        <pt x="536" y="182" on="1"/>
        <pt x="536" y="111" on="0"/>
        <pt x="601" y="25" on="0"/>
        <pt x="664" y="25" on="1"/>
        <pt x="786" y="25" on="0"/>
        <pt x="793" y="182" on="1"/>
        <pt x="794" y="204" on="1"/>
        <pt x="878" y="204" on="1"/>
      </contour>
    </TTGlyph>
    <TTGlyph name="Oacute" xMin="60" yMin="-10" xMax="536" yMax="922">
      <contour>
        <pt x="536" y="260" on="1"/>
        <pt x="536" y="136" on="0"/>
        <pt x="414" y="-10" on="0"/>
        <pt x="182" y="-10" on="0"/>
        <pt x="60" y="136" on="0"/>
        <pt x="60" y="260" on="1"/>
        <pt x="60" y="429" on="1"/>
        <pt x="60" y="554" on="0"/>
        <pt x="182" y="700" on="0"/>
        <pt x="414" y="700" on="0"/>
        <pt x="536" y="553" on="0"/>
        <pt x="536" y="429" on="1"/>
      </contour>
      <contour>
        <pt x="426" y="182" on="1"/>
        <pt x="426" y="508" on="1"/>
        <pt x="426" y="578" on="0"/>
        <pt x="361" y="665" on="0"/>
        <pt x="234" y="665" on="0"/>
        <pt x="169" y="578" on="0"/>
        <pt x="169" y="508" on="1"/>
        <pt x="169" y="182" on="1"/>
        <pt x="169" y="111" on="0"/>
        <pt x="234" y="25" on="0"/>
        <pt x="361" y="25" on="0"/>
        <pt x="426" y="111" on="0"/>
      </contour>
      <contour>
        <pt x="336" y="906" on="1"/>
        <pt x="345" y="922" on="0"/>
        <pt x="378" y="922" on="0"/>
        <pt x="405" y="897" on="0"/>
        <pt x="405" y="868" on="0"/>
        <pt x="394" y="859" on="1"/>
        <pt x="279" y="759" on="1"/>
        <pt x="262" y="771" on="1"/>
      </contour>
    </TTGlyph>
    <TTGlyph name="Ocircumflex" xMin="60" yMin="-10" xMax="536" yMax="911">
      <contour>
        <pt x="536" y="260" on="1"/>
        <pt x="536" y="136" on="0"/>
        <pt x="414" y="-10" on="0"/>
        <pt x="182" y="-10" on="0"/>
        <pt x="60" y="136" on="0"/>
        <pt x="60" y="260" on="1"/>
        <pt x="60" y="429" on="1"/>
        <pt x="60" y="554" on="0"/>
        <pt x="182" y="700" on="0"/>
        <pt x="414" y="700" on="0"/>
        <pt x="536" y="553" on="0"/>
        <pt x="536" y="429" on="1"/>
      </contour>
      <contour>
        <pt x="426" y="182" on="1"/>
        <pt x="426" y="508" on="1"/>
        <pt x="426" y="578" on="0"/>
        <pt x="361" y="665" on="0"/>
        <pt x="234" y="665" on="0"/>
        <pt x="169" y="578" on="0"/>
        <pt x="169" y="508" on="1"/>
        <pt x="169" y="182" on="1"/>
        <pt x="169" y="111" on="0"/>
        <pt x="234" y="25" on="0"/>
        <pt x="361" y="25" on="0"/>
        <pt x="426" y="111" on="0"/>
      </contour>
      <contour>
        <pt x="265" y="894" on="1"/>
        <pt x="274" y="911" on="0"/>
        <pt x="314" y="911" on="0"/>
        <pt x="323" y="894" on="1"/>
        <pt x="398" y="768" on="1"/>
        <pt x="386" y="758" on="1"/>
        <pt x="295" y="855" on="1"/>
        <pt x="202" y="758" on="1"/>
        <pt x="190" y="768" on="1"/>
      </contour>
    </TTGlyph>
    <TTGlyph name="Odieresis" xMin="60" yMin="-10" xMax="536" yMax="869">
      <contour>
        <pt x="536" y="260" on="1"/>
        <pt x="536" y="136" on="0"/>
        <pt x="414" y="-10" on="0"/>
        <pt x="182" y="-10" on="0"/>
        <pt x="60" y="136" on="0"/>
        <pt x="60" y="260" on="1"/>
        <pt x="60" y="429" on="1"/>
        <pt x="60" y="554" on="0"/>
        <pt x="182" y="700" on="0"/>
        <pt x="414" y="700" on="0"/>
        <pt x="536" y="553" on="0"/>
        <pt x="536" y="429" on="1"/>
      </contour>
      <contour>
        <pt x="426" y="182" on="1"/>
        <pt x="426" y="508" on="1"/>
        <pt x="426" y="578" on="0"/>
        <pt x="361" y="665" on="0"/>
        <pt x="234" y="665" on="0"/>
        <pt x="169" y="578" on="0"/>
        <pt x="169" y="508" on="1"/>
        <pt x="169" y="182" on="1"/>
        <pt x="169" y="111" on="0"/>
        <pt x="234" y="25" on="0"/>
        <pt x="361" y="25" on="0"/>
        <pt x="426" y="111" on="0"/>
      </contour>
      <contour>
        <pt x="329" y="838" on="0"/>
        <pt x="355" y="869" on="0"/>
        <pt x="391" y="869" on="0"/>
        <pt x="417" y="838" on="0"/>
        <pt x="417" y="793" on="0"/>
        <pt x="391" y="761" on="0"/>
        <pt x="355" y="761" on="0"/>
        <pt x="329" y="793" on="0"/>
      </contour>
      <contour>
        <pt x="177" y="838" on="0"/>
        <pt x="203" y="869" on="0"/>
        <pt x="239" y="869" on="0"/>
        <pt x="265" y="838" on="0"/>
        <pt x="265" y="793" on="0"/>
        <pt x="239" y="761" on="0"/>
        <pt x="203" y="761" on="0"/>
        <pt x="177" y="793" on="0"/>
      </contour>
    </TTGlyph>
    <TTGlyph name="Ograve" xMin="60" yMin="-10" xMax="536" yMax="922">
      <contour>
        <pt x="536" y="260" on="1"/>
        <pt x="536" y="136" on="0"/>
        <pt x="414" y="-10" on="0"/>
        <pt x="182" y="-10" on="0"/>
        <pt x="60" y="136" on="0"/>
        <pt x="60" y="260" on="1"/>
        <pt x="60" y="429" on="1"/>
        <pt x="60" y="554" on="0"/>
        <pt x="182" y="700" on="0"/>
        <pt x="414" y="700" on="0"/>
        <pt x="536" y="553" on="0"/>
        <pt x="536" y="429" on="1"/>
      </contour>
      <contour>
        <pt x="426" y="182" on="1"/>
        <pt x="426" y="508" on="1"/>
        <pt x="426" y="578" on="0"/>
        <pt x="361" y="665" on="0"/>
        <pt x="234" y="665" on="0"/>
        <pt x="169" y="578" on="0"/>
        <pt x="169" y="508" on="1"/>
        <pt x="169" y="182" on="1"/>
        <pt x="169" y="111" on="0"/>
        <pt x="234" y="25" on="0"/>
        <pt x="361" y="25" on="0"/>
        <pt x="426" y="111" on="0"/>
      </contour>
      <contour>
        <pt x="208" y="858" on="1"/>
        <pt x="197" y="869" on="0"/>
        <pt x="197" y="897" on="0"/>
        <pt x="223" y="922" on="0"/>
        <pt x="257" y="922" on="0"/>
        <pt x="266" y="906" on="1"/>
        <pt x="340" y="771" on="1"/>
        <pt x="323" y="758" on="1"/>
      </contour>
    </TTGlyph>
    <TTGlyph name="Oslash" xMin="60" yMin="-39" xMax="536" yMax="731">
      <contour>
        <pt x="298" y="665" on="1"/>
        <pt x="234" y="665" on="0"/>
        <pt x="169" y="579" on="0"/>
        <pt x="169" y="509" on="1"/>
        <pt x="169" y="182" on="1"/>
        <pt x="169" y="72" on="0"/>
        <pt x="239" y="37" on="1"/>
        <pt x="312" y="665" on="1"/>
      </contour>
      <contour>
        <pt x="298" y="25" on="1"/>
        <pt x="361" y="25" on="0"/>
        <pt x="426" y="111" on="0"/>
        <pt x="426" y="182" on="1"/>
        <pt x="426" y="509" on="1"/>
        <pt x="426" y="618" on="0"/>
        <pt x="357" y="653" on="1"/>
        <pt x="284" y="25" on="1"/>
      </contour>
      <contour>
        <pt x="536" y="430" on="1"/>
        <pt x="536" y="260" on="1"/>
        <pt x="536" y="136" on="0"/>
        <pt x="414" y="-10" on="0"/>
        <pt x="298" y="-10" on="1"/>
        <pt x="280" y="-10" on="1"/>
        <pt x="277" y="-39" on="1"/>
        <pt x="231" y="-35" on="1"/>
        <pt x="235" y="-3" on="1"/>
        <pt x="149" y="16" on="0"/>
        <pt x="60" y="154" on="0"/>
        <pt x="60" y="260" on="1"/>
        <pt x="60" y="430" on="1"/>
        <pt x="60" y="554" on="0"/>
        <pt x="182" y="700" on="0"/>
        <pt x="298" y="700" on="1"/>
        <pt x="316" y="700" on="1"/>
        <pt x="319" y="731" on="1"/>
        <pt x="365" y="726" on="1"/>
        <pt x="361" y="692" on="1"/>
        <pt x="446" y="674" on="0"/>
        <pt x="536" y="535" on="0"/>
      </contour>
    </TTGlyph>
    <TTGlyph name="Otilde" xMin="60" yMin="-10" xMax="536" yMax="844">
      <contour>
        <pt x="536" y="260" on="1"/>
        <pt x="536" y="136" on="0"/>
        <pt x="414" y="-10" on="0"/>
        <pt x="182" y="-10" on="0"/>
        <pt x="60" y="136" on="0"/>
        <pt x="60" y="260" on="1"/>
        <pt x="60" y="429" on="1"/>
        <pt x="60" y="554" on="0"/>
        <pt x="182" y="700" on="0"/>
        <pt x="414" y="700" on="0"/>
        <pt x="536" y="553" on="0"/>
        <pt x="536" y="429" on="1"/>
      </contour>
      <contour>
        <pt x="426" y="182" on="1"/>
        <pt x="426" y="508" on="1"/>
        <pt x="426" y="578" on="0"/>
        <pt x="361" y="665" on="0"/>
        <pt x="234" y="665" on="0"/>
        <pt x="169" y="578" on="0"/>
        <pt x="169" y="508" on="1"/>
        <pt x="169" y="182" on="1"/>
        <pt x="169" y="111" on="0"/>
        <pt x="234" y="25" on="0"/>
        <pt x="361" y="25" on="0"/>
        <pt x="426" y="111" on="0"/>
      </contour>
      <contour>
        <pt x="374" y="761" on="0"/>
        <pt x="330" y="761" on="0"/>
        <pt x="256" y="798" on="0"/>
        <pt x="240" y="798" on="1"/>
        <pt x="209" y="798" on="0"/>
        <pt x="180" y="769" on="1"/>
        <pt x="167" y="780" on="1"/>
        <pt x="222" y="844" on="0"/>
        <pt x="276" y="844" on="1"/>
        <pt x="293" y="844" on="0"/>
        <pt x="356" y="811" on="0"/>
        <pt x="404" y="811" on="0"/>
        <pt x="426" y="825" on="1"/>
        <pt x="427" y="826" on="1"/>
        <pt x="439" y="816" on="1"/>
        <pt x="421" y="791" on="0"/>
      </contour>
    </TTGlyph>
    <TTGlyph name="P" xMin="70" yMin="-200" xMax="546" yMax="700">
      <contour>
        <pt x="546" y="244" on="1"/>
        <pt x="546" y="121" on="0"/>
        <pt x="419" y="-10" on="0"/>
        <pt x="333" y="-10" on="1"/>
        <pt x="298" y="-10" on="0"/>
        <pt x="239" y="19" on="0"/>
        <pt x="221" y="42" on="1"/>
        <pt x="188" y="84" on="0"/>
        <pt x="178" y="115" on="1"/>
        <pt x="178" y="-200" on="1"/>
        <pt x="70" y="-200" on="1"/>
        <pt x="70" y="690" on="1"/>
        <pt x="178" y="690" on="1"/>
        <pt x="178" y="580" on="1"/>
        <pt x="192" y="623" on="0"/>
        <pt x="275" y="700" on="0"/>
        <pt x="335" y="700" on="1"/>
        <pt x="431" y="700" on="0"/>
        <pt x="546" y="565" on="0"/>
        <pt x="546" y="443" on="1"/>
      </contour>
      <contour>
        <pt x="437" y="193" on="1"/>
        <pt x="437" y="493" on="1"/>
        <pt x="437" y="581" on="0"/>
        <pt x="371" y="665" on="0"/>
        <pt x="252" y="665" on="0"/>
        <pt x="179" y="544" on="0"/>
        <pt x="179" y="463" on="1"/>
        <pt x="179" y="222" on="1"/>
        <pt x="179" y="148" on="0"/>
        <pt x="258" y="25" on="0"/>
        <pt x="323" y="25" on="1"/>
        <pt x="353" y="25" on="0"/>
        <pt x="398" y="52" on="0"/>
        <pt x="421" y="89" on="0"/>
        <pt x="428" y="115" on="1"/>
        <pt x="437" y="153" on="0"/>
      </contour>
    </TTGlyph>
    <TTGlyph name="Q" xMin="60" yMin="-200" xMax="537" yMax="700">
      <contour>
        <pt x="537" y="-200" on="1"/>
        <pt x="427" y="-200" on="1"/>
        <pt x="427" y="110" on="1"/>
        <pt x="414" y="67" on="0"/>
        <pt x="332" y="-10" on="0"/>
        <pt x="271" y="-10" on="1"/>
        <pt x="175" y="-10" on="0"/>
        <pt x="60" y="124" on="0"/>
        <pt x="60" y="247" on="1"/>
        <pt x="60" y="446" on="1"/>
        <pt x="60" y="568" on="0"/>
        <pt x="188" y="700" on="0"/>
        <pt x="273" y="700" on="1"/>
        <pt x="309" y="700" on="0"/>
        <pt x="368" y="671" on="0"/>
        <pt x="386" y="648" on="1"/>
        <pt x="415" y="610" on="0"/>
        <pt x="427" y="575" on="1"/>
        <pt x="427" y="690" on="1"/>
        <pt x="537" y="690" on="1"/>
      </contour>
      <contour>
        <pt x="427" y="226" on="1"/>
        <pt x="427" y="468" on="1"/>
        <pt x="427" y="542" on="0"/>
        <pt x="349" y="665" on="0"/>
        <pt x="283" y="665" on="1"/>
        <pt x="246" y="665" on="0"/>
        <pt x="196" y="627" on="0"/>
        <pt x="186" y="596" on="1"/>
        <pt x="169" y="545" on="0"/>
        <pt x="169" y="496" on="1"/>
        <pt x="169" y="197" on="1"/>
        <pt x="169" y="109" on="0"/>
        <pt x="236" y="25" on="0"/>
        <pt x="355" y="25" on="0"/>
        <pt x="427" y="145" on="0"/>
      </contour>
    </TTGlyph>
    <TTGlyph name="R" xMin="70" yMin="0" xMax="510" yMax="690">
      <contour>
        <pt x="510" y="0" on="1"/>
        <pt x="402" y="0" on="1"/>
        <pt x="402" y="169" on="1"/>
        <pt x="402" y="325" on="0"/>
        <pt x="259" y="325" on="1"/>
        <pt x="244" y="325" on="0"/>
        <pt x="233" y="324" on="1"/>
        <pt x="233" y="349" on="1"/>
        <pt x="289" y="349" on="0"/>
        <pt x="338" y="380" on="1"/>
        <pt x="364" y="397" on="0"/>
        <pt x="396" y="466" on="0"/>
        <pt x="396" y="514" on="1"/>
        <pt x="396" y="590" on="0"/>
        <pt x="317" y="657" on="0"/>
        <pt x="233" y="657" on="1"/>
        <pt x="178" y="657" on="1"/>
        <pt x="178" y="0" on="1"/>
        <pt x="70" y="0" on="1"/>
        <pt x="70" y="690" on="1"/>
        <pt x="265" y="690" on="1"/>
        <pt x="499" y="690" on="0"/>
        <pt x="499" y="512" on="1"/>
        <pt x="499" y="388" on="0"/>
        <pt x="338" y="339" on="1"/>
        <pt x="510" y="304" on="0"/>
        <pt x="510" y="135" on="1"/>
      </contour>
    </TTGlyph>
    <TTGlyph name="S" xMin="35" yMin="-10" xMax="447" yMax="700">
      <contour>
        <pt x="397" y="286" on="1"/>
        <pt x="447" y="243" on="0"/>
        <pt x="447" y="91" on="0"/>
        <pt x="334" y="-10" on="0"/>
        <pt x="151" y="-10" on="0"/>
        <pt x="35" y="76" on="0"/>
        <pt x="35" y="173" on="1"/>
        <pt x="35" y="184" on="1"/>
        <pt x="114" y="184" on="1"/>
        <pt x="114" y="162" on="1"/>
        <pt x="114" y="93" on="0"/>
        <pt x="171" y="25" on="0"/>
        <pt x="290" y="25" on="0"/>
        <pt x="354" y="85" on="0"/>
        <pt x="354" y="178" on="0"/>
        <pt x="321" y="207" on="1"/>
        <pt x="116" y="385" on="1"/>
        <pt x="58" y="435" on="0"/>
        <pt x="58" y="595" on="0"/>
        <pt x="159" y="700" on="0"/>
        <pt x="325" y="700" on="0"/>
        <pt x="410" y="618" on="0"/>
        <pt x="410" y="569" on="1"/>
        <pt x="410" y="563" on="1"/>
        <pt x="378" y="563" on="1"/>
        <pt x="378" y="595" on="0"/>
        <pt x="316" y="665" on="0"/>
        <pt x="209" y="665" on="0"/>
        <pt x="148" y="613" on="0"/>
        <pt x="148" y="504" on="0"/>
        <pt x="186" y="470" on="1"/>
      </contour>
    </TTGlyph>
    <TTGlyph name="Scaron" xMin="35" yMin="-10" xMax="447" yMax="913">
      <contour>
        <pt x="397" y="286" on="1"/>
        <pt x="447" y="243" on="0"/>
        <pt x="447" y="91" on="0"/>
        <pt x="334" y="-10" on="0"/>
        <pt x="151" y="-10" on="0"/>
        <pt x="35" y="76" on="0"/>
        <pt x="35" y="173" on="1"/>
        <pt x="35" y="184" on="1"/>
        <pt x="114" y="184" on="1"/>
        <pt x="114" y="162" on="1"/>
        <pt x="114" y="93" on="0"/>
        <pt x="171" y="25" on="0"/>
        <pt x="290" y="25" on="0"/>
        <pt x="354" y="85" on="0"/>
        <pt x="354" y="178" on="0"/>
        <pt x="321" y="207" on="1"/>
        <pt x="116" y="385" on="1"/>
        <pt x="58" y="435" on="0"/>
        <pt x="58" y="595" on="0"/>
        <pt x="159" y="700" on="0"/>
        <pt x="325" y="700" on="0"/>
        <pt x="410" y="618" on="0"/>
        <pt x="410" y="569" on="1"/>
        <pt x="410" y="563" on="1"/>
        <pt x="378" y="563" on="1"/>
        <pt x="378" y="595" on="0"/>
        <pt x="316" y="665" on="0"/>
        <pt x="209" y="665" on="0"/>
        <pt x="148" y="613" on="0"/>
        <pt x="148" y="504" on="0"/>
        <pt x="186" y="470" on="1"/>
      </contour>
      <contour>
        <pt x="278" y="777" on="1"/>
        <pt x="269" y="760" on="0"/>
        <pt x="229" y="760" on="0"/>
        <pt x="220" y="777" on="1"/>
        <pt x="145" y="903" on="1"/>
        <pt x="159" y="913" on="1"/>
        <pt x="250" y="816" on="1"/>
        <pt x="339" y="913" on="1"/>
        <pt x="353" y="903" on="1"/>
      </contour>
    </TTGlyph>
    <TTGlyph name="T" xMin="20" yMin="0" xMax="573" yMax="700">
      <contour>
        <pt x="573" y="500" on="1"/>
        <pt x="469" y="500" on="1"/>
        <pt x="469" y="533" on="1"/>
        <pt x="469" y="605" on="0"/>
        <pt x="437" y="630" on="1"/>
        <pt x="419" y="644" on="0"/>
        <pt x="384" y="657" on="0"/>
        <pt x="351" y="665" on="1"/>
        <pt x="351" y="0" on="1"/>
        <pt x="242" y="0" on="1"/>
        <pt x="242" y="665" on="1"/>
        <pt x="207" y="657" on="0"/>
        <pt x="173" y="644" on="0"/>
        <pt x="155" y="630" on="1"/>
        <pt x="123" y="605" on="0"/>
        <pt x="123" y="532" on="1"/>
        <pt x="123" y="500" on="1"/>
        <pt x="20" y="500" on="1"/>
        <pt x="20" y="532" on="1"/>
        <pt x="20" y="631" on="0"/>
        <pt x="103" y="668" on="1"/>
        <pt x="174" y="700" on="0"/>
        <pt x="296" y="700" on="1"/>
        <pt x="498" y="700" on="0"/>
        <pt x="552" y="616" on="1"/>
        <pt x="573" y="582" on="0"/>
        <pt x="573" y="532" on="1"/>
      </contour>
    </TTGlyph>
    <TTGlyph name="Thorn" xMin="70" yMin="-200" xMax="546" yMax="690">
      <contour>
        <pt x="546" y="244" on="1"/>
        <pt x="546" y="121" on="0"/>
        <pt x="419" y="-10" on="0"/>
        <pt x="333" y="-10" on="1"/>
        <pt x="298" y="-10" on="0"/>
        <pt x="239" y="19" on="0"/>
        <pt x="221" y="42" on="1"/>
        <pt x="188" y="84" on="0"/>
        <pt x="178" y="115" on="1"/>
        <pt x="178" y="-200" on="1"/>
        <pt x="70" y="-200" on="1"/>
        <pt x="70" y="690" on="1"/>
        <pt x="178" y="690" on="1"/>
        <pt x="178" y="500" on="1"/>
        <pt x="192" y="543" on="0"/>
        <pt x="275" y="620" on="0"/>
        <pt x="335" y="620" on="1"/>
        <pt x="431" y="620" on="0"/>
        <pt x="546" y="485" on="0"/>
        <pt x="546" y="363" on="1"/>
      </contour>
      <contour>
        <pt x="437" y="193" on="1"/>
        <pt x="437" y="413" on="1"/>
        <pt x="437" y="501" on="0"/>
        <pt x="371" y="585" on="0"/>
        <pt x="252" y="585" on="0"/>
        <pt x="179" y="464" on="0"/>
        <pt x="179" y="383" on="1"/>
        <pt x="179" y="222" on="1"/>
        <pt x="179" y="148" on="0"/>
        <pt x="258" y="25" on="0"/>
        <pt x="323" y="25" on="1"/>
        <pt x="353" y="25" on="0"/>
        <pt x="398" y="52" on="0"/>
        <pt x="421" y="89" on="0"/>
        <pt x="428" y="115" on="1"/>
        <pt x="437" y="153" on="0"/>
      </contour>
    </TTGlyph>
    <TTGlyph name="U" xMin="60" yMin="-10" xMax="536" yMax="690">
      <contour>
        <pt x="536" y="0" on="1"/>
        <pt x="427" y="0" on="1"/>
        <pt x="427" y="110" on="1"/>
        <pt x="414" y="67" on="0"/>
        <pt x="331" y="-10" on="0"/>
        <pt x="271" y="-10" on="1"/>
        <pt x="175" y="-10" on="0"/>
        <pt x="60" y="125" on="0"/>
        <pt x="60" y="247" on="1"/>
        <pt x="60" y="690" on="1"/>
        <pt x="168" y="690" on="1"/>
        <pt x="168" y="197" on="1"/>
        <pt x="168" y="109" on="0"/>
        <pt x="234" y="25" on="0"/>
        <pt x="354" y="25" on="0"/>
        <pt x="426" y="146" on="0"/>
        <pt x="426" y="227" on="1"/>
        <pt x="426" y="690" on="1"/>
        <pt x="536" y="690" on="1"/>
      </contour>
    </TTGlyph>
    <TTGlyph name="Uacute" xMin="60" yMin="-10" xMax="536" yMax="922">
      <contour>
        <pt x="536" y="0" on="1"/>
        <pt x="427" y="0" on="1"/>
        <pt x="427" y="110" on="1"/>
        <pt x="414" y="67" on="0"/>
        <pt x="331" y="-10" on="0"/>
        <pt x="271" y="-10" on="1"/>
        <pt x="175" y="-10" on="0"/>
        <pt x="60" y="125" on="0"/>
        <pt x="60" y="247" on="1"/>
        <pt x="60" y="690" on="1"/>
        <pt x="168" y="690" on="1"/>
        <pt x="168" y="197" on="1"/>
        <pt x="168" y="109" on="0"/>
        <pt x="234" y="25" on="0"/>
        <pt x="354" y="25" on="0"/>
        <pt x="426" y="146" on="0"/>
        <pt x="426" y="227" on="1"/>
        <pt x="426" y="690" on="1"/>
        <pt x="536" y="690" on="1"/>
      </contour>
      <contour>
        <pt x="331" y="906" on="1"/>
        <pt x="340" y="922" on="0"/>
        <pt x="373" y="922" on="0"/>
        <pt x="400" y="897" on="0"/>
        <pt x="400" y="868" on="0"/>
        <pt x="389" y="859" on="1"/>
        <pt x="274" y="759" on="1"/>
        <pt x="257" y="771" on="1"/>
      </contour>
    </TTGlyph>
    <TTGlyph name="Ucircumflex" xMin="60" yMin="-10" xMax="536" yMax="911">
      <contour>
        <pt x="536" y="0" on="1"/>
        <pt x="427" y="0" on="1"/>
        <pt x="427" y="110" on="1"/>
        <pt x="414" y="67" on="0"/>
        <pt x="331" y="-10" on="0"/>
        <pt x="271" y="-10" on="1"/>
        <pt x="175" y="-10" on="0"/>
        <pt x="60" y="125" on="0"/>
        <pt x="60" y="247" on="1"/>
        <pt x="60" y="690" on="1"/>
        <pt x="168" y="690" on="1"/>
        <pt x="168" y="197" on="1"/>
        <pt x="168" y="109" on="0"/>
        <pt x="234" y="25" on="0"/>
        <pt x="354" y="25" on="0"/>
        <pt x="426" y="146" on="0"/>
        <pt x="426" y="227" on="1"/>
        <pt x="426" y="690" on="1"/>
        <pt x="536" y="690" on="1"/>
      </contour>
      <contour>
        <pt x="267" y="894" on="1"/>
        <pt x="276" y="911" on="0"/>
        <pt x="316" y="911" on="0"/>
        <pt x="325" y="894" on="1"/>
        <pt x="400" y="768" on="1"/>
        <pt x="388" y="758" on="1"/>
        <pt x="297" y="855" on="1"/>
        <pt x="204" y="758" on="1"/>
        <pt x="192" y="768" on="1"/>
      </contour>
    </TTGlyph>
    <TTGlyph name="Udieresis" xMin="60" yMin="-10" xMax="536" yMax="868">
      <contour>
        <pt x="536" y="0" on="1"/>
        <pt x="427" y="0" on="1"/>
        <pt x="427" y="110" on="1"/>
        <pt x="414" y="67" on="0"/>
        <pt x="331" y="-10" on="0"/>
        <pt x="271" y="-10" on="1"/>
        <pt x="175" y="-10" on="0"/>
        <pt x="60" y="125" on="0"/>
        <pt x="60" y="247" on="1"/>
        <pt x="60" y="690" on="1"/>
        <pt x="168" y="690" on="1"/>
        <pt x="168" y="197" on="1"/>
        <pt x="168" y="109" on="0"/>
        <pt x="234" y="25" on="0"/>
        <pt x="354" y="25" on="0"/>
        <pt x="426" y="146" on="0"/>
        <pt x="426" y="227" on="1"/>
        <pt x="426" y="690" on="1"/>
        <pt x="536" y="690" on="1"/>
      </contour>
      <contour>
        <pt x="329" y="837" on="0"/>
        <pt x="355" y="868" on="0"/>
        <pt x="391" y="868" on="0"/>
        <pt x="417" y="837" on="0"/>
        <pt x="417" y="792" on="0"/>
        <pt x="391" y="760" on="0"/>
        <pt x="355" y="760" on="0"/>
        <pt x="329" y="792" on="0"/>
      </contour>
      <contour>
        <pt x="177" y="837" on="0"/>
        <pt x="203" y="868" on="0"/>
        <pt x="239" y="868" on="0"/>
        <pt x="265" y="837" on="0"/>
        <pt x="265" y="792" on="0"/>
        <pt x="239" y="760" on="0"/>
        <pt x="203" y="760" on="0"/>
        <pt x="177" y="792" on="0"/>
      </contour>
    </TTGlyph>
    <TTGlyph name="Ugrave" xMin="60" yMin="-10" xMax="536" yMax="919">
      <contour>
        <pt x="536" y="0" on="1"/>
        <pt x="427" y="0" on="1"/>
        <pt x="427" y="110" on="1"/>
        <pt x="414" y="67" on="0"/>
        <pt x="331" y="-10" on="0"/>
        <pt x="271" y="-10" on="1"/>
        <pt x="175" y="-10" on="0"/>
        <pt x="60" y="125" on="0"/>
        <pt x="60" y="247" on="1"/>
        <pt x="60" y="690" on="1"/>
        <pt x="168" y="690" on="1"/>
        <pt x="168" y="197" on="1"/>
        <pt x="168" y="109" on="0"/>
        <pt x="234" y="25" on="0"/>
        <pt x="354" y="25" on="0"/>
        <pt x="426" y="146" on="0"/>
        <pt x="426" y="227" on="1"/>
        <pt x="426" y="690" on="1"/>
        <pt x="536" y="690" on="1"/>
      </contour>
      <contour>
        <pt x="203" y="855" on="1"/>
        <pt x="192" y="866" on="0"/>
        <pt x="192" y="894" on="0"/>
        <pt x="218" y="919" on="0"/>
        <pt x="252" y="919" on="0"/>
        <pt x="261" y="903" on="1"/>
        <pt x="335" y="768" on="1"/>
        <pt x="318" y="755" on="1"/>
      </contour>
    </TTGlyph>
    <TTGlyph name="V" xMin="5" yMin="0" xMax="462" yMax="690">
      <contour>
        <pt x="462" y="690" on="1"/>
        <pt x="289" y="0" on="1"/>
        <pt x="166" y="0" on="1"/>
        <pt x="5" y="690" on="1"/>
        <pt x="117" y="690" on="1"/>
        <pt x="260" y="77" on="1"/>
        <pt x="412" y="690" on="1"/>
      </contour>
    </TTGlyph>
    <TTGlyph name="W" xMin="5" yMin="0" xMax="770" yMax="690">
      <contour>
        <pt x="312" y="690" on="1"/>
        <pt x="362" y="690" on="1"/>
        <pt x="388" y="590" on="1"/>
        <pt x="413" y="690" on="1"/>
        <pt x="463" y="690" on="1"/>
        <pt x="412" y="491" on="1"/>
        <pt x="515" y="77" on="1"/>
        <pt x="658" y="690" on="1"/>
        <pt x="770" y="690" on="1"/>
        <pt x="609" y="0" on="1"/>
        <pt x="486" y="0" on="1"/>
        <pt x="388" y="392" on="1"/>
        <pt x="290" y="0" on="1"/>
        <pt x="167" y="0" on="1"/>
        <pt x="5" y="690" on="1"/>
        <pt x="117" y="690" on="1"/>
        <pt x="261" y="77" on="1"/>
        <pt x="363" y="491" on="1"/>
      </contour>
    </TTGlyph>
    <TTGlyph name="W.alt1" xMin="5" yMin="0" xMax="838" yMax="690">
      <contour>
        <pt x="838" y="690" on="1"/>
        <pt x="667" y="0" on="1"/>
        <pt x="543" y="0" on="1"/>
        <pt x="420" y="528" on="1"/>
        <pt x="288" y="0" on="1"/>
        <pt x="165" y="0" on="1"/>
        <pt x="5" y="690" on="1"/>
        <pt x="117" y="690" on="1"/>
        <pt x="259" y="77" on="1"/>
        <pt x="396" y="631" on="1"/>
        <pt x="384" y="690" on="1"/>
        <pt x="496" y="690" on="1"/>
        <pt x="636" y="77" on="1"/>
        <pt x="790" y="690" on="1"/>
      </contour>
    </TTGlyph>
    <TTGlyph name="X" xMin="40" yMin="-10" xMax="668" yMax="700">
      <contour>
        <pt x="668" y="167" on="1"/>
        <pt x="668" y="94" on="0"/>
        <pt x="562" y="-10" on="0"/>
        <pt x="405" y="-10" on="0"/>
        <pt x="355" y="37" on="1"/>
        <pt x="301" y="-10" on="0"/>
        <pt x="146" y="-10" on="0"/>
        <pt x="40" y="94" on="0"/>
        <pt x="40" y="167" on="1"/>
        <pt x="40" y="179" on="1"/>
        <pt x="120" y="179" on="1"/>
        <pt x="120" y="115" on="1"/>
        <pt x="120" y="78" on="0"/>
        <pt x="172" y="25" on="0"/>
        <pt x="249" y="25" on="0"/>
        <pt x="299" y="75" on="0"/>
        <pt x="299" y="119" on="1"/>
        <pt x="299" y="571" on="1"/>
        <pt x="299" y="615" on="0"/>
        <pt x="249" y="665" on="0"/>
        <pt x="172" y="665" on="0"/>
        <pt x="120" y="612" on="0"/>
        <pt x="120" y="575" on="1"/>
        <pt x="120" y="511" on="1"/>
        <pt x="40" y="511" on="1"/>
        <pt x="40" y="523" on="1"/>
        <pt x="40" y="597" on="0"/>
        <pt x="146" y="700" on="0"/>
        <pt x="301" y="700" on="0"/>
        <pt x="355" y="653" on="1"/>
        <pt x="405" y="700" on="0"/>
        <pt x="562" y="700" on="0"/>
        <pt x="668" y="597" on="0"/>
        <pt x="668" y="523" on="1"/>
        <pt x="668" y="511" on="1"/>
        <pt x="588" y="511" on="1"/>
        <pt x="588" y="575" on="1"/>
        <pt x="588" y="612" on="0"/>
        <pt x="536" y="665" on="0"/>
        <pt x="459" y="665" on="0"/>
        <pt x="409" y="615" on="0"/>
        <pt x="409" y="571" on="1"/>
        <pt x="409" y="119" on="1"/>
        <pt x="409" y="75" on="0"/>
        <pt x="459" y="25" on="0"/>
        <pt x="536" y="25" on="0"/>
        <pt x="588" y="78" on="0"/>
        <pt x="588" y="115" on="1"/>
        <pt x="588" y="179" on="1"/>
        <pt x="668" y="179" on="1"/>
      </contour>
    </TTGlyph>
    <TTGlyph name="Y" xMin="25" yMin="0" xMax="540" yMax="690">
      <contour>
        <pt x="540" y="621" on="1"/>
        <pt x="540" y="524" on="0"/>
        <pt x="427" y="381" on="0"/>
        <pt x="337" y="363" on="1"/>
        <pt x="337" y="0" on="1"/>
        <pt x="228" y="0" on="1"/>
        <pt x="228" y="362" on="1"/>
        <pt x="138" y="381" on="0"/>
        <pt x="25" y="524" on="0"/>
        <pt x="25" y="621" on="1"/>
        <pt x="25" y="690" on="1"/>
        <pt x="134" y="690" on="1"/>
        <pt x="134" y="548" on="1"/>
        <pt x="134" y="481" on="0"/>
        <pt x="217" y="392" on="0"/>
        <pt x="348" y="392" on="0"/>
        <pt x="430" y="480" on="0"/>
        <pt x="430" y="548" on="1"/>
        <pt x="430" y="690" on="1"/>
        <pt x="540" y="690" on="1"/>
      </contour>
    </TTGlyph>
    <TTGlyph name="Yacute" xMin="25" yMin="0" xMax="540" yMax="922">
      <contour>
        <pt x="540" y="621" on="1"/>
        <pt x="540" y="524" on="0"/>
        <pt x="427" y="381" on="0"/>
        <pt x="337" y="363" on="1"/>
        <pt x="337" y="0" on="1"/>
        <pt x="228" y="0" on="1"/>
        <pt x="228" y="362" on="1"/>
        <pt x="138" y="381" on="0"/>
        <pt x="25" y="524" on="0"/>
        <pt x="25" y="621" on="1"/>
        <pt x="25" y="690" on="1"/>
        <pt x="134" y="690" on="1"/>
        <pt x="134" y="548" on="1"/>
        <pt x="134" y="481" on="0"/>
        <pt x="217" y="392" on="0"/>
        <pt x="348" y="392" on="0"/>
        <pt x="430" y="480" on="0"/>
        <pt x="430" y="548" on="1"/>
        <pt x="430" y="690" on="1"/>
        <pt x="540" y="690" on="1"/>
      </contour>
      <contour>
        <pt x="338" y="906" on="1"/>
        <pt x="347" y="922" on="0"/>
        <pt x="380" y="922" on="0"/>
        <pt x="407" y="897" on="0"/>
        <pt x="407" y="868" on="0"/>
        <pt x="396" y="859" on="1"/>
        <pt x="281" y="759" on="1"/>
        <pt x="264" y="771" on="1"/>
      </contour>
    </TTGlyph>
    <TTGlyph name="Ydieresis" xMin="25" yMin="0" xMax="540" yMax="868">
      <contour>
        <pt x="540" y="621" on="1"/>
        <pt x="540" y="524" on="0"/>
        <pt x="427" y="381" on="0"/>
        <pt x="337" y="363" on="1"/>
        <pt x="337" y="0" on="1"/>
        <pt x="228" y="0" on="1"/>
        <pt x="228" y="362" on="1"/>
        <pt x="138" y="381" on="0"/>
        <pt x="25" y="524" on="0"/>
        <pt x="25" y="621" on="1"/>
        <pt x="25" y="690" on="1"/>
        <pt x="134" y="690" on="1"/>
        <pt x="134" y="548" on="1"/>
        <pt x="134" y="481" on="0"/>
        <pt x="217" y="392" on="0"/>
        <pt x="348" y="392" on="0"/>
        <pt x="430" y="480" on="0"/>
        <pt x="430" y="548" on="1"/>
        <pt x="430" y="690" on="1"/>
        <pt x="540" y="690" on="1"/>
      </contour>
      <contour>
        <pt x="314" y="837" on="0"/>
        <pt x="340" y="868" on="0"/>
        <pt x="376" y="868" on="0"/>
        <pt x="402" y="837" on="0"/>
        <pt x="402" y="792" on="0"/>
        <pt x="376" y="760" on="0"/>
        <pt x="340" y="760" on="0"/>
        <pt x="314" y="792" on="0"/>
      </contour>
      <contour>
        <pt x="162" y="837" on="0"/>
        <pt x="188" y="868" on="0"/>
        <pt x="224" y="868" on="0"/>
        <pt x="250" y="837" on="0"/>
        <pt x="250" y="792" on="0"/>
        <pt x="224" y="760" on="0"/>
        <pt x="188" y="760" on="0"/>
        <pt x="162" y="792" on="0"/>
      </contour>
    </TTGlyph>
    <TTGlyph name="Z" xMin="30" yMin="0" xMax="495" yMax="690">
      <contour>
        <pt x="495" y="0" on="1"/>
        <pt x="30" y="0" on="1"/>
        <pt x="346" y="643" on="1"/>
        <pt x="38" y="643" on="1"/>
        <pt x="38" y="690" on="1"/>
        <pt x="479" y="690" on="1"/>
        <pt x="163" y="47" on="1"/>
        <pt x="495" y="47" on="1"/>
      </contour>
    </TTGlyph>
    <TTGlyph name="Zcaron" xMin="30" yMin="0" xMax="495" yMax="913">
      <contour>
        <pt x="495" y="0" on="1"/>
        <pt x="30" y="0" on="1"/>
        <pt x="346" y="643" on="1"/>
        <pt x="38" y="643" on="1"/>
        <pt x="38" y="690" on="1"/>
        <pt x="479" y="690" on="1"/>
        <pt x="163" y="47" on="1"/>
        <pt x="495" y="47" on="1"/>
      </contour>
      <contour>
        <pt x="320" y="777" on="1"/>
        <pt x="311" y="760" on="0"/>
        <pt x="271" y="760" on="0"/>
        <pt x="262" y="777" on="1"/>
        <pt x="187" y="903" on="1"/>
        <pt x="201" y="913" on="1"/>
        <pt x="292" y="816" on="1"/>
        <pt x="381" y="913" on="1"/>
        <pt x="395" y="903" on="1"/>
      </contour>
    </TTGlyph>
    <TTGlyph name="a" xMin="50" yMin="-10" xMax="439" yMax="480">
      <contour>
        <pt x="366" y="40" on="0"/>
        <pt x="410" y="40" on="0"/>
        <pt x="420" y="72" on="1"/>
        <pt x="439" y="69" on="1"/>
        <pt x="439" y="61" on="0"/>
        <pt x="428" y="28" on="0"/>
        <pt x="413" y="7" on="0"/>
        <pt x="381" y="-10" on="0"/>
        <pt x="361" y="-10" on="1"/>
        <pt x="291" y="-10" on="0"/>
        <pt x="281" y="64" on="1"/>
        <pt x="252" y="-10" on="0"/>
        <pt x="181" y="-10" on="1"/>
        <pt x="121" y="-10" on="0"/>
        <pt x="50" y="76" on="0"/>
        <pt x="50" y="149" on="1"/>
        <pt x="50" y="322" on="1"/>
        <pt x="50" y="394" on="0"/>
        <pt x="121" y="480" on="0"/>
        <pt x="251" y="480" on="0"/>
        <pt x="279" y="412" on="1"/>
        <pt x="279" y="470" on="1"/>
        <pt x="366" y="470" on="1"/>
        <pt x="366" y="74" on="1"/>
      </contour>
      <contour>
        <pt x="279" y="137" on="1"/>
        <pt x="279" y="334" on="1"/>
        <pt x="279" y="380" on="0"/>
        <pt x="235" y="450" on="0"/>
        <pt x="196" y="450" on="1"/>
        <pt x="137" y="450" on="0"/>
        <pt x="137" y="356" on="1"/>
        <pt x="137" y="115" on="1"/>
        <pt x="137" y="22" on="0"/>
        <pt x="195" y="22" on="1"/>
        <pt x="236" y="22" on="0"/>
        <pt x="279" y="89" on="0"/>
      </contour>
    </TTGlyph>
    <TTGlyph name="aacute" xMin="50" yMin="-10" xMax="439" yMax="690">
      <contour>
        <pt x="366" y="40" on="0"/>
        <pt x="410" y="40" on="0"/>
        <pt x="420" y="72" on="1"/>
        <pt x="439" y="69" on="1"/>
        <pt x="439" y="61" on="0"/>
        <pt x="428" y="28" on="0"/>
        <pt x="413" y="7" on="0"/>
        <pt x="381" y="-10" on="0"/>
        <pt x="361" y="-10" on="1"/>
        <pt x="291" y="-10" on="0"/>
        <pt x="281" y="64" on="1"/>
        <pt x="252" y="-10" on="0"/>
        <pt x="181" y="-10" on="1"/>
        <pt x="121" y="-10" on="0"/>
        <pt x="50" y="76" on="0"/>
        <pt x="50" y="149" on="1"/>
        <pt x="50" y="322" on="1"/>
        <pt x="50" y="394" on="0"/>
        <pt x="121" y="480" on="0"/>
        <pt x="251" y="480" on="0"/>
        <pt x="279" y="412" on="1"/>
        <pt x="279" y="470" on="1"/>
        <pt x="366" y="470" on="1"/>
        <pt x="366" y="74" on="1"/>
      </contour>
      <contour>
        <pt x="279" y="137" on="1"/>
        <pt x="279" y="334" on="1"/>
        <pt x="279" y="380" on="0"/>
        <pt x="235" y="450" on="0"/>
        <pt x="196" y="450" on="1"/>
        <pt x="137" y="450" on="0"/>
        <pt x="137" y="356" on="1"/>
        <pt x="137" y="115" on="1"/>
        <pt x="137" y="22" on="0"/>
        <pt x="195" y="22" on="1"/>
        <pt x="236" y="22" on="0"/>
        <pt x="279" y="89" on="0"/>
      </contour>
      <contour>
        <pt x="243" y="674" on="1"/>
        <pt x="252" y="690" on="0"/>
        <pt x="285" y="690" on="0"/>
        <pt x="312" y="665" on="0"/>
        <pt x="312" y="636" on="0"/>
        <pt x="301" y="627" on="1"/>
        <pt x="186" y="527" on="1"/>
        <pt x="169" y="539" on="1"/>
      </contour>
    </TTGlyph>
    <TTGlyph name="acircumflex" xMin="50" yMin="-10" xMax="439" yMax="690">
      <contour>
        <pt x="366" y="40" on="0"/>
        <pt x="410" y="40" on="0"/>
        <pt x="420" y="72" on="1"/>
        <pt x="439" y="69" on="1"/>
        <pt x="439" y="61" on="0"/>
        <pt x="428" y="28" on="0"/>
        <pt x="413" y="7" on="0"/>
        <pt x="381" y="-10" on="0"/>
        <pt x="361" y="-10" on="1"/>
        <pt x="291" y="-10" on="0"/>
        <pt x="281" y="64" on="1"/>
        <pt x="252" y="-10" on="0"/>
        <pt x="181" y="-10" on="1"/>
        <pt x="121" y="-10" on="0"/>
        <pt x="50" y="76" on="0"/>
        <pt x="50" y="149" on="1"/>
        <pt x="50" y="322" on="1"/>
        <pt x="50" y="394" on="0"/>
        <pt x="121" y="480" on="0"/>
        <pt x="251" y="480" on="0"/>
        <pt x="279" y="412" on="1"/>
        <pt x="279" y="470" on="1"/>
        <pt x="366" y="470" on="1"/>
        <pt x="366" y="74" on="1"/>
      </contour>
      <contour>
        <pt x="279" y="137" on="1"/>
        <pt x="279" y="334" on="1"/>
        <pt x="279" y="380" on="0"/>
        <pt x="235" y="450" on="0"/>
        <pt x="196" y="450" on="1"/>
        <pt x="137" y="450" on="0"/>
        <pt x="137" y="356" on="1"/>
        <pt x="137" y="115" on="1"/>
        <pt x="137" y="22" on="0"/>
        <pt x="195" y="22" on="1"/>
        <pt x="236" y="22" on="0"/>
        <pt x="279" y="89" on="0"/>
      </contour>
      <contour>
        <pt x="180" y="673" on="1"/>
        <pt x="189" y="690" on="0"/>
        <pt x="229" y="690" on="0"/>
        <pt x="238" y="673" on="1"/>
        <pt x="313" y="547" on="1"/>
        <pt x="301" y="537" on="1"/>
        <pt x="210" y="634" on="1"/>
        <pt x="117" y="537" on="1"/>
        <pt x="105" y="547" on="1"/>
      </contour>
    </TTGlyph>
    <TTGlyph name="acute" xMin="50" yMin="527" xMax="193" yMax="690">
      <contour>
        <pt x="124" y="674" on="1"/>
        <pt x="133" y="690" on="0"/>
        <pt x="166" y="690" on="0"/>
        <pt x="193" y="665" on="0"/>
        <pt x="193" y="636" on="0"/>
        <pt x="182" y="627" on="1"/>
        <pt x="67" y="527" on="1"/>
        <pt x="50" y="539" on="1"/>
      </contour>
    </TTGlyph>
    <TTGlyph name="adieresis" xMin="50" yMin="-10" xMax="439" yMax="676">
      <contour>
        <pt x="366" y="40" on="0"/>
        <pt x="410" y="40" on="0"/>
        <pt x="420" y="72" on="1"/>
        <pt x="439" y="69" on="1"/>
        <pt x="439" y="61" on="0"/>
        <pt x="428" y="28" on="0"/>
        <pt x="413" y="7" on="0"/>
        <pt x="381" y="-10" on="0"/>
        <pt x="361" y="-10" on="1"/>
        <pt x="291" y="-10" on="0"/>
        <pt x="281" y="64" on="1"/>
        <pt x="252" y="-10" on="0"/>
        <pt x="181" y="-10" on="1"/>
        <pt x="121" y="-10" on="0"/>
        <pt x="50" y="76" on="0"/>
        <pt x="50" y="149" on="1"/>
        <pt x="50" y="322" on="1"/>
        <pt x="50" y="394" on="0"/>
        <pt x="121" y="480" on="0"/>
        <pt x="251" y="480" on="0"/>
        <pt x="279" y="412" on="1"/>
        <pt x="279" y="470" on="1"/>
        <pt x="366" y="470" on="1"/>
        <pt x="366" y="74" on="1"/>
      </contour>
      <contour>
        <pt x="279" y="137" on="1"/>
        <pt x="279" y="334" on="1"/>
        <pt x="279" y="380" on="0"/>
        <pt x="235" y="450" on="0"/>
        <pt x="196" y="450" on="1"/>
        <pt x="137" y="450" on="0"/>
        <pt x="137" y="356" on="1"/>
        <pt x="137" y="115" on="1"/>
        <pt x="137" y="22" on="0"/>
        <pt x="195" y="22" on="1"/>
        <pt x="236" y="22" on="0"/>
        <pt x="279" y="89" on="0"/>
      </contour>
      <contour>
        <pt x="240" y="645" on="0"/>
        <pt x="266" y="676" on="0"/>
        <pt x="302" y="676" on="0"/>
        <pt x="328" y="645" on="0"/>
        <pt x="328" y="600" on="0"/>
        <pt x="302" y="568" on="0"/>
        <pt x="266" y="568" on="0"/>
        <pt x="240" y="600" on="0"/>
      </contour>
      <contour>
        <pt x="88" y="645" on="0"/>
        <pt x="114" y="676" on="0"/>
        <pt x="150" y="676" on="0"/>
        <pt x="176" y="645" on="0"/>
        <pt x="176" y="600" on="0"/>
        <pt x="150" y="568" on="0"/>
        <pt x="114" y="568" on="0"/>
        <pt x="88" y="600" on="0"/>
      </contour>
    </TTGlyph>
    <TTGlyph name="agrave" xMin="50" yMin="-10" xMax="439" yMax="690">
      <contour>
        <pt x="366" y="40" on="0"/>
        <pt x="410" y="40" on="0"/>
        <pt x="420" y="72" on="1"/>
        <pt x="439" y="69" on="1"/>
        <pt x="439" y="61" on="0"/>
        <pt x="428" y="28" on="0"/>
        <pt x="413" y="7" on="0"/>
        <pt x="381" y="-10" on="0"/>
        <pt x="361" y="-10" on="1"/>
        <pt x="291" y="-10" on="0"/>
        <pt x="281" y="64" on="1"/>
        <pt x="252" y="-10" on="0"/>
        <pt x="181" y="-10" on="1"/>
        <pt x="121" y="-10" on="0"/>
        <pt x="50" y="76" on="0"/>
        <pt x="50" y="149" on="1"/>
        <pt x="50" y="322" on="1"/>
        <pt x="50" y="394" on="0"/>
        <pt x="121" y="480" on="0"/>
        <pt x="251" y="480" on="0"/>
        <pt x="279" y="412" on="1"/>
        <pt x="279" y="470" on="1"/>
        <pt x="366" y="470" on="1"/>
        <pt x="366" y="74" on="1"/>
      </contour>
      <contour>
        <pt x="279" y="137" on="1"/>
        <pt x="279" y="334" on="1"/>
        <pt x="279" y="380" on="0"/>
        <pt x="235" y="450" on="0"/>
        <pt x="196" y="450" on="1"/>
        <pt x="137" y="450" on="0"/>
        <pt x="137" y="356" on="1"/>
        <pt x="137" y="115" on="1"/>
        <pt x="137" y="22" on="0"/>
        <pt x="195" y="22" on="1"/>
        <pt x="236" y="22" on="0"/>
        <pt x="279" y="89" on="0"/>
      </contour>
      <contour>
        <pt x="114" y="626" on="1"/>
        <pt x="103" y="637" on="0"/>
        <pt x="103" y="665" on="0"/>
        <pt x="129" y="690" on="0"/>
        <pt x="163" y="690" on="0"/>
        <pt x="172" y="674" on="1"/>
        <pt x="246" y="539" on="1"/>
        <pt x="229" y="526" on="1"/>
      </contour>
    </TTGlyph>
    <TTGlyph name="ampersand" xMin="60" yMin="-10" xMax="617" yMax="700">
      <contour>
        <pt x="428" y="182" on="1"/>
        <pt x="428" y="300" on="1"/>
        <pt x="169" y="300" on="1"/>
        <pt x="169" y="182" on="1"/>
        <pt x="169" y="111" on="0"/>
        <pt x="234" y="25" on="0"/>
        <pt x="362" y="25" on="0"/>
        <pt x="428" y="110" on="0"/>
      </contour>
      <contour>
        <pt x="538" y="40" on="1"/>
        <pt x="557" y="40" on="0"/>
        <pt x="569" y="72" on="1"/>
        <pt x="588" y="69" on="1"/>
        <pt x="588" y="60" on="0"/>
        <pt x="576" y="28" on="0"/>
        <pt x="561" y="8" on="0"/>
        <pt x="530" y="-9" on="0"/>
        <pt x="510" y="-9" on="1"/>
        <pt x="455" y="-9" on="0"/>
        <pt x="437" y="36" on="1"/>
        <pt x="375" y="-10" on="0"/>
        <pt x="298" y="-10" on="1"/>
        <pt x="189" y="-10" on="0"/>
        <pt x="60" y="139" on="0"/>
        <pt x="60" y="254" on="1"/>
        <pt x="60" y="436" on="1"/>
        <pt x="60" y="550" on="0"/>
        <pt x="189" y="700" on="0"/>
        <pt x="298" y="700" on="1"/>
        <pt x="383" y="700" on="0"/>
        <pt x="512" y="594" on="0"/>
        <pt x="512" y="499" on="1"/>
        <pt x="512" y="490" on="1"/>
        <pt x="426" y="490" on="1"/>
        <pt x="426" y="508" on="1"/>
        <pt x="426" y="579" on="0"/>
        <pt x="361" y="665" on="0"/>
        <pt x="234" y="665" on="0"/>
        <pt x="169" y="579" on="0"/>
        <pt x="169" y="508" on="1"/>
        <pt x="169" y="347" on="1"/>
        <pt x="428" y="347" on="1"/>
        <pt x="428" y="409" on="1"/>
        <pt x="515" y="409" on="1"/>
        <pt x="515" y="347" on="1"/>
        <pt x="617" y="347" on="1"/>
        <pt x="617" y="300" on="1"/>
        <pt x="515" y="300" on="1"/>
        <pt x="515" y="72" on="1"/>
        <pt x="515" y="40" on="0"/>
      </contour>
    </TTGlyph>
    <TTGlyph name="aring" xMin="50" yMin="-10" xMax="439" yMax="690">
      <contour>
        <pt x="366" y="40" on="0"/>
        <pt x="410" y="40" on="0"/>
        <pt x="420" y="72" on="1"/>
        <pt x="439" y="69" on="1"/>
        <pt x="439" y="61" on="0"/>
        <pt x="428" y="28" on="0"/>
        <pt x="413" y="7" on="0"/>
        <pt x="381" y="-10" on="0"/>
        <pt x="361" y="-10" on="1"/>
        <pt x="291" y="-10" on="0"/>
        <pt x="281" y="64" on="1"/>
        <pt x="252" y="-10" on="0"/>
        <pt x="181" y="-10" on="1"/>
        <pt x="121" y="-10" on="0"/>
        <pt x="50" y="76" on="0"/>
        <pt x="50" y="149" on="1"/>
        <pt x="50" y="322" on="1"/>
        <pt x="50" y="394" on="0"/>
        <pt x="121" y="480" on="0"/>
        <pt x="251" y="480" on="0"/>
        <pt x="279" y="412" on="1"/>
        <pt x="279" y="470" on="1"/>
        <pt x="366" y="470" on="1"/>
        <pt x="366" y="74" on="1"/>
      </contour>
      <contour>
        <pt x="279" y="137" on="1"/>
        <pt x="279" y="334" on="1"/>
        <pt x="279" y="380" on="0"/>
        <pt x="235" y="450" on="0"/>
        <pt x="196" y="450" on="1"/>
        <pt x="137" y="450" on="0"/>
        <pt x="137" y="356" on="1"/>
        <pt x="137" y="115" on="1"/>
        <pt x="137" y="22" on="0"/>
        <pt x="195" y="22" on="1"/>
        <pt x="236" y="22" on="0"/>
        <pt x="279" y="89" on="0"/>
      </contour>
      <contour>
        <pt x="216" y="690" on="0"/>
        <pt x="250" y="652" on="0"/>
        <pt x="250" y="593" on="0"/>
        <pt x="216" y="556" on="0"/>
        <pt x="166" y="556" on="0"/>
        <pt x="132" y="593" on="0"/>
        <pt x="132" y="652" on="0"/>
        <pt x="166" y="690" on="0"/>
      </contour>
      <contour>
        <pt x="205" y="580" on="0"/>
        <pt x="226" y="605" on="0"/>
        <pt x="226" y="640" on="0"/>
        <pt x="205" y="665" on="0"/>
        <pt x="177" y="665" on="0"/>
        <pt x="156" y="640" on="0"/>
        <pt x="156" y="605" on="0"/>
        <pt x="177" y="580" on="0"/>
      </contour>
    </TTGlyph>
    <TTGlyph name="asciicircum" xMin="100" yMin="407" xMax="466" yMax="690">
      <contour>
        <pt x="283" y="690" on="1"/>
        <pt x="466" y="407" on="1"/>
        <pt x="408" y="407" on="1"/>
        <pt x="281" y="597" on="1"/>
        <pt x="158" y="407" on="1"/>
        <pt x="100" y="407" on="1"/>
      </contour>
    </TTGlyph>
    <TTGlyph name="asciitilde" xMin="50" yMin="388" xMax="296" yMax="478">
      <contour>
        <pt x="212" y="388" on="1"/>
        <pt x="192" y="388" on="0"/>
        <pt x="131" y="428" on="0"/>
        <pt x="117" y="428" on="1"/>
        <pt x="88" y="428" on="0"/>
        <pt x="63" y="408" on="1"/>
        <pt x="50" y="420" on="1"/>
        <pt x="96" y="478" on="0"/>
        <pt x="146" y="478" on="1"/>
        <pt x="161" y="478" on="0"/>
        <pt x="218" y="444" on="0"/>
        <pt x="262" y="444" on="0"/>
        <pt x="282" y="458" on="1"/>
        <pt x="296" y="444" on="1"/>
        <pt x="256" y="388" on="0"/>
      </contour>
    </TTGlyph>
    <TTGlyph name="asterisk" xMin="60" yMin="320" xMax="440" yMax="700">
      <contour>
        <pt x="289" y="682" on="0"/>
        <pt x="289" y="654" on="0"/>
        <pt x="269" y="558" on="1"/>
        <pt x="327" y="644" on="0"/>
        <pt x="341" y="658" on="0"/>
        <pt x="368" y="658" on="0"/>
        <pt x="395" y="633" on="0"/>
        <pt x="395" y="605" on="0"/>
        <pt x="373" y="583" on="0"/>
        <pt x="298" y="531" on="1"/>
        <pt x="394" y="551" on="0"/>
        <pt x="407" y="551" on="1"/>
        <pt x="408" y="551" on="1"/>
        <pt x="421" y="551" on="0"/>
        <pt x="439" y="529" on="0"/>
        <pt x="440" y="499" on="0"/>
        <pt x="422" y="475" on="0"/>
        <pt x="389" y="475" on="0"/>
        <pt x="298" y="492" on="1"/>
        <pt x="382" y="436" on="0"/>
        <pt x="399" y="419" on="0"/>
        <pt x="399" y="392" on="0"/>
        <pt x="387" y="378" on="1"/>
        <pt x="374" y="365" on="0"/>
        <pt x="346" y="365" on="0"/>
        <pt x="329" y="382" on="0"/>
        <pt x="272" y="462" on="1"/>
        <pt x="291" y="360" on="0"/>
        <pt x="291" y="354" on="1"/>
        <pt x="291" y="352" on="1"/>
        <pt x="291" y="339" on="0"/>
        <pt x="269" y="320" on="0"/>
        <pt x="239" y="320" on="0"/>
        <pt x="216" y="338" on="0"/>
        <pt x="216" y="351" on="1"/>
        <pt x="216" y="352" on="1"/>
        <pt x="216" y="363" on="0"/>
        <pt x="232" y="461" on="1"/>
        <pt x="176" y="378" on="0"/>
        <pt x="160" y="362" on="0"/>
        <pt x="130" y="362" on="0"/>
        <pt x="106" y="385" on="0"/>
        <pt x="106" y="415" on="0"/>
        <pt x="121" y="429" on="0"/>
        <pt x="207" y="491" on="1"/>
        <pt x="109" y="471" on="0"/>
        <pt x="95" y="471" on="1"/>
        <pt x="93" y="471" on="1"/>
        <pt x="80" y="471" on="0"/>
        <pt x="60" y="494" on="0"/>
        <pt x="60" y="523" on="0"/>
        <pt x="79" y="546" on="0"/>
        <pt x="104" y="546" on="0"/>
        <pt x="202" y="530" on="1"/>
        <pt x="119" y="586" on="0"/>
        <pt x="104" y="601" on="0"/>
        <pt x="104" y="632" on="0"/>
        <pt x="124" y="655" on="0"/>
        <pt x="156" y="655" on="0"/>
        <pt x="176" y="633" on="0"/>
        <pt x="231" y="556" on="1"/>
        <pt x="213" y="653" on="0"/>
        <pt x="213" y="682" on="0"/>
        <pt x="236" y="700" on="0"/>
        <pt x="265" y="700" on="0"/>
      </contour>
    </TTGlyph>
    <TTGlyph name="at" xMin="60" yMin="-145" xMax="859" yMax="690">
      <contour>
        <pt x="613" y="-110" on="1"/>
        <pt x="613" y="-145" on="1"/>
        <pt x="298" y="-145" on="1"/>
        <pt x="182" y="-145" on="0"/>
        <pt x="60" y="1" on="0"/>
        <pt x="60" y="125" on="1"/>
        <pt x="60" y="419" on="1"/>
        <pt x="60" y="544" on="0"/>
        <pt x="182" y="690" on="0"/>
        <pt x="298" y="690" on="1"/>
        <pt x="621" y="690" on="1"/>
        <pt x="737" y="690" on="0"/>
        <pt x="859" y="543" on="0"/>
        <pt x="859" y="419" on="1"/>
        <pt x="859" y="260" on="1"/>
        <pt x="859" y="138" on="0"/>
        <pt x="740" y="-10" on="0"/>
        <pt x="638" y="-10" on="1"/>
        <pt x="608" y="-10" on="1"/>
        <pt x="538" y="-10" on="0"/>
        <pt x="528" y="64" on="1"/>
        <pt x="499" y="-10" on="0"/>
        <pt x="428" y="-10" on="1"/>
        <pt x="368" y="-10" on="0"/>
        <pt x="297" y="76" on="0"/>
        <pt x="297" y="149" on="1"/>
        <pt x="297" y="322" on="1"/>
        <pt x="297" y="394" on="0"/>
        <pt x="368" y="480" on="0"/>
        <pt x="498" y="480" on="0"/>
        <pt x="526" y="412" on="1"/>
        <pt x="526" y="470" on="1"/>
        <pt x="613" y="470" on="1"/>
        <pt x="613" y="59" on="1"/>
        <pt x="613" y="25" on="0"/>
        <pt x="639" y="25" on="1"/>
        <pt x="749" y="25" on="0"/>
        <pt x="749" y="182" on="1"/>
        <pt x="749" y="498" on="1"/>
        <pt x="749" y="568" on="0"/>
        <pt x="684" y="655" on="0"/>
        <pt x="621" y="655" on="1"/>
        <pt x="298" y="655" on="1"/>
        <pt x="234" y="655" on="0"/>
        <pt x="169" y="568" on="0"/>
        <pt x="169" y="498" on="1"/>
        <pt x="169" y="47" on="1"/>
        <pt x="169" y="-24" on="0"/>
        <pt x="234" y="-110" on="0"/>
        <pt x="298" y="-110" on="1"/>
      </contour>
      <contour>
        <pt x="526" y="334" on="1"/>
        <pt x="526" y="380" on="0"/>
        <pt x="482" y="450" on="0"/>
        <pt x="443" y="450" on="1"/>
        <pt x="384" y="450" on="0"/>
        <pt x="384" y="356" on="1"/>
        <pt x="384" y="115" on="1"/>
        <pt x="384" y="22" on="0"/>
        <pt x="442" y="22" on="1"/>
        <pt x="483" y="22" on="0"/>
        <pt x="526" y="89" on="0"/>
        <pt x="526" y="137" on="1"/>
      </contour>
    </TTGlyph>
    <TTGlyph name="atilde" xMin="50" yMin="-10" xMax="439" yMax="619">
      <contour>
        <pt x="366" y="40" on="0"/>
        <pt x="410" y="40" on="0"/>
        <pt x="420" y="72" on="1"/>
        <pt x="439" y="69" on="1"/>
        <pt x="439" y="61" on="0"/>
        <pt x="428" y="28" on="0"/>
        <pt x="413" y="7" on="0"/>
        <pt x="381" y="-10" on="0"/>
        <pt x="361" y="-10" on="1"/>
        <pt x="291" y="-10" on="0"/>
        <pt x="281" y="64" on="1"/>
        <pt x="252" y="-10" on="0"/>
        <pt x="181" y="-10" on="1"/>
        <pt x="121" y="-10" on="0"/>
        <pt x="50" y="76" on="0"/>
        <pt x="50" y="149" on="1"/>
        <pt x="50" y="322" on="1"/>
        <pt x="50" y="394" on="0"/>
        <pt x="121" y="480" on="0"/>
        <pt x="251" y="480" on="0"/>
        <pt x="279" y="412" on="1"/>
        <pt x="279" y="470" on="1"/>
        <pt x="366" y="470" on="1"/>
        <pt x="366" y="74" on="1"/>
      </contour>
      <contour>
        <pt x="279" y="137" on="1"/>
        <pt x="279" y="334" on="1"/>
        <pt x="279" y="380" on="0"/>
        <pt x="235" y="450" on="0"/>
        <pt x="196" y="450" on="1"/>
        <pt x="137" y="450" on="0"/>
        <pt x="137" y="356" on="1"/>
        <pt x="137" y="115" on="1"/>
        <pt x="137" y="22" on="0"/>
        <pt x="195" y="22" on="1"/>
        <pt x="236" y="22" on="0"/>
        <pt x="279" y="89" on="0"/>
      </contour>
      <contour>
        <pt x="286" y="536" on="0"/>
        <pt x="242" y="536" on="0"/>
        <pt x="168" y="573" on="0"/>
        <pt x="152" y="573" on="1"/>
        <pt x="121" y="573" on="0"/>
        <pt x="92" y="544" on="1"/>
        <pt x="79" y="555" on="1"/>
        <pt x="134" y="619" on="0"/>
        <pt x="188" y="619" on="1"/>
        <pt x="205" y="619" on="0"/>
        <pt x="268" y="586" on="0"/>
        <pt x="316" y="586" on="0"/>
        <pt x="338" y="600" on="1"/>
        <pt x="339" y="601" on="1"/>
        <pt x="351" y="591" on="1"/>
        <pt x="333" y="566" on="0"/>
      </contour>
    </TTGlyph>
    <TTGlyph name="b" xMin="60" yMin="-10" xMax="376" yMax="690">
      <contour>
        <pt x="376" y="149" on="1"/>
        <pt x="376" y="76" on="0"/>
        <pt x="305" y="-10" on="0"/>
        <pt x="176" y="-10" on="0"/>
        <pt x="146" y="60" on="1"/>
        <pt x="146" y="0" on="1"/>
        <pt x="60" y="0" on="1"/>
        <pt x="60" y="690" on="1"/>
        <pt x="146" y="690" on="1"/>
        <pt x="146" y="412" on="1"/>
        <pt x="175" y="480" on="0"/>
        <pt x="305" y="480" on="0"/>
        <pt x="376" y="394" on="0"/>
        <pt x="376" y="322" on="1"/>
      </contour>
      <contour>
        <pt x="288" y="115" on="1"/>
        <pt x="288" y="356" on="1"/>
        <pt x="288" y="450" on="0"/>
        <pt x="229" y="450" on="1"/>
        <pt x="190" y="450" on="0"/>
        <pt x="146" y="379" on="0"/>
        <pt x="146" y="334" on="1"/>
        <pt x="146" y="137" on="1"/>
        <pt x="146" y="88" on="0"/>
        <pt x="190" y="22" on="0"/>
        <pt x="231" y="22" on="1"/>
        <pt x="288" y="22" on="0"/>
      </contour>
    </TTGlyph>
    <TTGlyph name="backslash" xMin="50" yMin="0" xMax="307" yMax="690">
      <contour>
        <pt x="50" y="690" on="1"/>
        <pt x="136" y="690" on="1"/>
        <pt x="307" y="0" on="1"/>
        <pt x="221" y="0" on="1"/>
      </contour>
    </TTGlyph>
    <TTGlyph name="bar" xMin="60" yMin="-145" xMax="146" yMax="690">
      <contour>
        <pt x="146" y="-145" on="1"/>
        <pt x="60" y="-145" on="1"/>
        <pt x="60" y="690" on="1"/>
        <pt x="146" y="690" on="1"/>
      </contour>
    </TTGlyph>
    <TTGlyph name="braceleft" xMin="60" yMin="-40" xMax="356" yMax="730">
      <contour>
        <pt x="168" y="154" on="1"/>
        <pt x="168" y="179" on="1"/>
        <pt x="168" y="255" on="0"/>
        <pt x="121" y="338" on="0"/>
        <pt x="60" y="338" on="1"/>
        <pt x="60" y="368" on="1"/>
        <pt x="121" y="368" on="0"/>
        <pt x="168" y="451" on="0"/>
        <pt x="168" y="527" on="1"/>
        <pt x="168" y="537" on="1"/>
        <pt x="168" y="656" on="0"/>
        <pt x="214" y="695" on="1"/>
        <pt x="238" y="716" on="0"/>
        <pt x="303" y="730" on="0"/>
        <pt x="356" y="730" on="1"/>
        <pt x="356" y="700" on="1"/>
        <pt x="315" y="700" on="0"/>
        <pt x="278" y="652" on="0"/>
        <pt x="278" y="595" on="1"/>
        <pt x="278" y="519" on="1"/>
        <pt x="278" y="387" on="0"/>
        <pt x="182" y="353" on="1"/>
        <pt x="231" y="336" on="0"/>
        <pt x="278" y="257" on="0"/>
        <pt x="278" y="187" on="1"/>
        <pt x="278" y="95" on="1"/>
        <pt x="278" y="39" on="0"/>
        <pt x="315" y="-10" on="0"/>
        <pt x="356" y="-10" on="1"/>
        <pt x="356" y="-40" on="1"/>
        <pt x="303" y="-40" on="0"/>
        <pt x="238" y="-25" on="0"/>
        <pt x="214" y="-4" on="1"/>
        <pt x="168" y="34" on="0"/>
      </contour>
    </TTGlyph>
    <TTGlyph name="braceright" xMin="20" yMin="-40" xMax="316" yMax="730">
      <contour>
        <pt x="208" y="179" on="1"/>
        <pt x="208" y="154" on="1"/>
        <pt x="208" y="34" on="0"/>
        <pt x="162" y="-4" on="1"/>
        <pt x="138" y="-25" on="0"/>
        <pt x="73" y="-40" on="0"/>
        <pt x="20" y="-40" on="1"/>
        <pt x="20" y="-10" on="1"/>
        <pt x="61" y="-10" on="0"/>
        <pt x="98" y="39" on="0"/>
        <pt x="98" y="95" on="1"/>
        <pt x="98" y="187" on="1"/>
        <pt x="98" y="257" on="0"/>
        <pt x="145" y="336" on="0"/>
        <pt x="194" y="353" on="1"/>
        <pt x="98" y="387" on="0"/>
        <pt x="98" y="519" on="1"/>
        <pt x="98" y="595" on="1"/>
        <pt x="98" y="652" on="0"/>
        <pt x="61" y="700" on="0"/>
        <pt x="20" y="700" on="1"/>
        <pt x="20" y="730" on="1"/>
        <pt x="73" y="730" on="0"/>
        <pt x="138" y="716" on="0"/>
        <pt x="162" y="695" on="1"/>
        <pt x="208" y="656" on="0"/>
        <pt x="208" y="537" on="1"/>
        <pt x="208" y="527" on="1"/>
        <pt x="208" y="451" on="0"/>
        <pt x="255" y="368" on="0"/>
        <pt x="316" y="368" on="1"/>
        <pt x="316" y="338" on="1"/>
        <pt x="255" y="338" on="0"/>
        <pt x="208" y="255" on="0"/>
      </contour>
    </TTGlyph>
    <TTGlyph name="bracketleft" xMin="60" yMin="-57" xMax="246" yMax="737">
      <contour>
        <pt x="146" y="-10" on="1"/>
        <pt x="246" y="-10" on="1"/>
        <pt x="246" y="-57" on="1"/>
        <pt x="60" y="-57" on="1"/>
        <pt x="60" y="737" on="1"/>
        <pt x="246" y="737" on="1"/>
        <pt x="246" y="690" on="1"/>
        <pt x="146" y="690" on="1"/>
      </contour>
    </TTGlyph>
    <TTGlyph name="bracketright" xMin="20" yMin="-57" xMax="206" yMax="737">
      <contour>
        <pt x="20" y="-10" on="1"/>
        <pt x="120" y="-10" on="1"/>
        <pt x="120" y="690" on="1"/>
        <pt x="20" y="690" on="1"/>
        <pt x="20" y="737" on="1"/>
        <pt x="206" y="737" on="1"/>
        <pt x="206" y="-57" on="1"/>
        <pt x="20" y="-57" on="1"/>
      </contour>
    </TTGlyph>
    <TTGlyph name="breve" xMin="50" yMin="535" xMax="306" yMax="655">
      <contour>
        <pt x="302" y="599" on="0"/>
        <pt x="233" y="535" on="0"/>
        <pt x="122" y="535" on="0"/>
        <pt x="53" y="599" on="0"/>
        <pt x="50" y="655" on="1"/>
        <pt x="76" y="655" on="1"/>
        <pt x="98" y="594" on="0"/>
        <pt x="261" y="594" on="0"/>
        <pt x="279" y="655" on="1"/>
        <pt x="306" y="655" on="1"/>
      </contour>
    </TTGlyph>
    <TTGlyph name="bullet" xMin="60" yMin="154" xMax="236" yMax="330">
      <contour>
        <pt x="60" y="205" on="0"/>
        <pt x="60" y="279" on="0"/>
        <pt x="111" y="330" on="0"/>
        <pt x="185" y="330" on="0"/>
        <pt x="236" y="279" on="0"/>
        <pt x="236" y="205" on="0"/>
        <pt x="185" y="154" on="0"/>
        <pt x="111" y="154" on="0"/>
      </contour>
    </TTGlyph>
    <TTGlyph name="c" xMin="50" yMin="-10" xMax="315" yMax="480">
      <contour>
        <pt x="315" y="122" on="1"/>
        <pt x="315" y="85" on="0"/>
        <pt x="292" y="42" on="1"/>
        <pt x="280" y="19" on="0"/>
        <pt x="231" y="-10" on="0"/>
        <pt x="197" y="-10" on="1"/>
        <pt x="128" y="-10" on="0"/>
        <pt x="50" y="82" on="0"/>
        <pt x="50" y="157" on="1"/>
        <pt x="50" y="313" on="1"/>
        <pt x="50" y="389" on="0"/>
        <pt x="129" y="480" on="0"/>
        <pt x="196" y="480" on="1"/>
        <pt x="233" y="480" on="0"/>
        <pt x="285" y="447" on="0"/>
        <pt x="296" y="422" on="1"/>
        <pt x="315" y="380" on="0"/>
        <pt x="315" y="349" on="1"/>
        <pt x="289" y="349" on="1"/>
        <pt x="289" y="357" on="1"/>
        <pt x="289" y="396" on="0"/>
        <pt x="258" y="429" on="1"/>
        <pt x="239" y="450" on="0"/>
        <pt x="179" y="450" on="0"/>
        <pt x="137" y="400" on="0"/>
        <pt x="137" y="352" on="1"/>
        <pt x="137" y="118" on="1"/>
        <pt x="137" y="73" on="0"/>
        <pt x="177" y="20" on="0"/>
        <pt x="252" y="20" on="0"/>
        <pt x="289" y="85" on="0"/>
        <pt x="289" y="113" on="1"/>
        <pt x="289" y="122" on="1"/>
      </contour>
    </TTGlyph>
    <TTGlyph name="caron" xMin="50" yMin="537" xMax="258" yMax="690">
      <contour>
        <pt x="183" y="554" on="1"/>
        <pt x="174" y="537" on="0"/>
        <pt x="134" y="537" on="0"/>
        <pt x="125" y="554" on="1"/>
        <pt x="50" y="680" on="1"/>
        <pt x="64" y="690" on="1"/>
        <pt x="155" y="593" on="1"/>
        <pt x="244" y="690" on="1"/>
        <pt x="258" y="680" on="1"/>
      </contour>
    </TTGlyph>
    <TTGlyph name="ccedilla" xMin="50" yMin="-148" xMax="315" yMax="480">
      <contour>
        <pt x="315" y="349" on="1"/>
        <pt x="289" y="349" on="1"/>
        <pt x="289" y="357" on="1"/>
        <pt x="289" y="396" on="0"/>
        <pt x="258" y="429" on="1"/>
        <pt x="239" y="450" on="0"/>
        <pt x="179" y="450" on="0"/>
        <pt x="137" y="400" on="0"/>
        <pt x="137" y="352" on="1"/>
        <pt x="137" y="118" on="1"/>
        <pt x="137" y="73" on="0"/>
        <pt x="177" y="20" on="0"/>
        <pt x="252" y="20" on="0"/>
        <pt x="289" y="85" on="0"/>
        <pt x="289" y="113" on="1"/>
        <pt x="289" y="122" on="1"/>
        <pt x="315" y="122" on="1"/>
        <pt x="315" y="86" on="0"/>
        <pt x="276" y="7" on="0"/>
        <pt x="232" y="-5" on="1"/>
        <pt x="229" y="-77" on="0"/>
        <pt x="140" y="-148" on="1"/>
        <pt x="127" y="-138" on="1"/>
        <pt x="142" y="-119" on="0"/>
        <pt x="159" y="-59" on="0"/>
        <pt x="161" y="-19" on="1"/>
        <pt x="161" y="-6" on="1"/>
        <pt x="108" y="5" on="0"/>
        <pt x="50" y="92" on="0"/>
        <pt x="50" y="157" on="1"/>
        <pt x="50" y="313" on="1"/>
        <pt x="50" y="389" on="0"/>
        <pt x="129" y="480" on="0"/>
        <pt x="196" y="480" on="1"/>
        <pt x="233" y="480" on="0"/>
        <pt x="285" y="447" on="0"/>
        <pt x="296" y="422" on="1"/>
        <pt x="315" y="380" on="0"/>
      </contour>
    </TTGlyph>
    <TTGlyph name="cedilla" xMin="50" yMin="-148" xMax="154" yMax="0">
      <contour>
        <pt x="154" y="0" on="1"/>
        <pt x="154" y="-76" on="0"/>
        <pt x="63" y="-148" on="1"/>
        <pt x="50" y="-138" on="1"/>
        <pt x="65" y="-119" on="0"/>
        <pt x="82" y="-59" on="0"/>
        <pt x="84" y="-19" on="1"/>
        <pt x="84" y="0" on="1"/>
      </contour>
    </TTGlyph>
    <TTGlyph name="cent" xMin="60" yMin="-60" xMax="325" yMax="530">
      <contour>
        <pt x="207" y="-60" on="1"/>
        <pt x="207" y="-10" on="1"/>
        <pt x="138" y="-10" on="0"/>
        <pt x="60" y="82" on="0"/>
        <pt x="60" y="157" on="1"/>
        <pt x="60" y="313" on="1"/>
        <pt x="60" y="389" on="0"/>
        <pt x="139" y="480" on="0"/>
        <pt x="206" y="480" on="1"/>
        <pt x="207" y="480" on="1"/>
        <pt x="207" y="530" on="1"/>
        <pt x="237" y="530" on="1"/>
        <pt x="237" y="476" on="1"/>
        <pt x="264" y="470" on="0"/>
        <pt x="302" y="435" on="0"/>
        <pt x="310" y="413" on="1"/>
        <pt x="325" y="375" on="0"/>
        <pt x="325" y="349" on="1"/>
        <pt x="299" y="349" on="1"/>
        <pt x="299" y="357" on="1"/>
        <pt x="299" y="377" on="0"/>
        <pt x="269" y="440" on="0"/>
        <pt x="237" y="448" on="1"/>
        <pt x="237" y="21" on="1"/>
        <pt x="269" y="28" on="0"/>
        <pt x="299" y="89" on="0"/>
        <pt x="299" y="113" on="1"/>
        <pt x="299" y="122" on="1"/>
        <pt x="325" y="122" on="1"/>
        <pt x="325" y="85" on="0"/>
        <pt x="283" y="5" on="0"/>
        <pt x="237" y="-6" on="1"/>
        <pt x="237" y="-60" on="1"/>
      </contour>
      <contour>
        <pt x="147" y="118" on="1"/>
        <pt x="147" y="78" on="0"/>
        <pt x="179" y="26" on="0"/>
        <pt x="207" y="21" on="1"/>
        <pt x="207" y="448" on="1"/>
        <pt x="181" y="443" on="0"/>
        <pt x="147" y="394" on="0"/>
        <pt x="147" y="352" on="1"/>
      </contour>
    </TTGlyph>
    <TTGlyph name="circumflex" xMin="50" yMin="537" xMax="258" yMax="690">
      <contour>
        <pt x="125" y="673" on="1"/>
        <pt x="134" y="690" on="0"/>
        <pt x="174" y="690" on="0"/>
        <pt x="183" y="673" on="1"/>
        <pt x="258" y="547" on="1"/>
        <pt x="246" y="537" on="1"/>
        <pt x="155" y="634" on="1"/>
        <pt x="62" y="537" on="1"/>
        <pt x="50" y="547" on="1"/>
      </contour>
    </TTGlyph>
    <TTGlyph name="colon" xMin="50" yMin="-10" xMax="138" yMax="406">
      <contour>
        <pt x="50" y="21" on="0"/>
        <pt x="50" y="65" on="0"/>
        <pt x="76" y="96" on="0"/>
        <pt x="112" y="96" on="0"/>
        <pt x="138" y="65" on="0"/>
        <pt x="138" y="21" on="0"/>
        <pt x="112" y="-10" on="0"/>
        <pt x="76" y="-10" on="0"/>
      </contour>
      <contour>
        <pt x="50" y="331" on="0"/>
        <pt x="50" y="375" on="0"/>
        <pt x="76" y="406" on="0"/>
        <pt x="112" y="406" on="0"/>
        <pt x="138" y="375" on="0"/>
        <pt x="138" y="331" on="0"/>
        <pt x="112" y="300" on="0"/>
        <pt x="76" y="300" on="0"/>
      </contour>
    </TTGlyph>
    <TTGlyph name="comma" xMin="30" yMin="-98" xMax="134" yMax="110">
      <contour>
        <pt x="134" y="110" on="1"/>
        <pt x="134" y="39" on="0"/>
        <pt x="93" y="-59" on="0"/>
        <pt x="43" y="-98" on="1"/>
        <pt x="30" y="-88" on="1"/>
        <pt x="45" y="-69" on="0"/>
        <pt x="62" y="1" on="0"/>
        <pt x="64" y="51" on="1"/>
        <pt x="64" y="110" on="1"/>
      </contour>
    </TTGlyph>
    <TTGlyph name="copyright" xMin="60" yMin="0" xMax="716" yMax="690">
      <contour>
        <pt x="716" y="270" on="1"/>
        <pt x="716" y="146" on="0"/>
        <pt x="594" y="0" on="0"/>
        <pt x="478" y="0" on="1"/>
        <pt x="298" y="0" on="1"/>
        <pt x="182" y="0" on="0"/>
        <pt x="60" y="146" on="0"/>
        <pt x="60" y="270" on="1"/>
        <pt x="60" y="419" on="1"/>
        <pt x="60" y="544" on="0"/>
        <pt x="182" y="690" on="0"/>
        <pt x="298" y="690" on="1"/>
        <pt x="478" y="690" on="1"/>
        <pt x="594" y="690" on="0"/>
        <pt x="716" y="543" on="0"/>
        <pt x="716" y="419" on="1"/>
      </contour>
      <contour>
        <pt x="606" y="192" on="1"/>
        <pt x="606" y="498" on="1"/>
        <pt x="606" y="568" on="0"/>
        <pt x="541" y="655" on="0"/>
        <pt x="478" y="655" on="1"/>
        <pt x="298" y="655" on="1"/>
        <pt x="234" y="655" on="0"/>
        <pt x="169" y="568" on="0"/>
        <pt x="169" y="498" on="1"/>
        <pt x="169" y="192" on="1"/>
        <pt x="169" y="121" on="0"/>
        <pt x="234" y="35" on="0"/>
        <pt x="298" y="35" on="1"/>
        <pt x="478" y="35" on="1"/>
        <pt x="541" y="35" on="0"/>
        <pt x="606" y="121" on="0"/>
      </contour>
      <contour>
        <pt x="524" y="224" on="1"/>
        <pt x="524" y="162" on="0"/>
        <pt x="441" y="100" on="0"/>
        <pt x="394" y="100" on="1"/>
        <pt x="328" y="100" on="0"/>
        <pt x="250" y="192" on="0"/>
        <pt x="250" y="261" on="1"/>
        <pt x="250" y="414" on="1"/>
        <pt x="250" y="483" on="0"/>
        <pt x="328" y="575" on="0"/>
        <pt x="446" y="575" on="0"/>
        <pt x="524" y="510" on="0"/>
        <pt x="524" y="452" on="1"/>
        <pt x="524" y="444" on="1"/>
        <pt x="472" y="444" on="1"/>
        <pt x="472" y="458" on="1"/>
        <pt x="472" y="501" on="0"/>
        <pt x="433" y="553" on="0"/>
        <pt x="355" y="553" on="0"/>
        <pt x="316" y="501" on="0"/>
        <pt x="316" y="458" on="1"/>
        <pt x="316" y="217" on="1"/>
        <pt x="316" y="174" on="0"/>
        <pt x="355" y="122" on="0"/>
        <pt x="433" y="122" on="0"/>
        <pt x="472" y="174" on="0"/>
        <pt x="472" y="217" on="1"/>
        <pt x="472" y="230" on="1"/>
        <pt x="524" y="230" on="1"/>
      </contour>
    </TTGlyph>
    <TTGlyph name="d" xMin="50" yMin="-10" xMax="366" yMax="690">
      <contour>
        <pt x="366" y="0" on="1"/>
        <pt x="279" y="0" on="1"/>
        <pt x="279" y="60" on="1"/>
        <pt x="251" y="-10" on="0"/>
        <pt x="121" y="-10" on="0"/>
        <pt x="50" y="76" on="0"/>
        <pt x="50" y="149" on="1"/>
        <pt x="50" y="322" on="1"/>
        <pt x="50" y="394" on="0"/>
        <pt x="121" y="480" on="0"/>
        <pt x="251" y="480" on="0"/>
        <pt x="279" y="412" on="1"/>
        <pt x="279" y="690" on="1"/>
        <pt x="366" y="690" on="1"/>
      </contour>
      <contour>
        <pt x="279" y="137" on="1"/>
        <pt x="279" y="334" on="1"/>
        <pt x="279" y="380" on="0"/>
        <pt x="235" y="450" on="0"/>
        <pt x="196" y="450" on="1"/>
        <pt x="137" y="450" on="0"/>
        <pt x="137" y="356" on="1"/>
        <pt x="137" y="115" on="1"/>
        <pt x="137" y="22" on="0"/>
        <pt x="195" y="22" on="1"/>
        <pt x="236" y="22" on="0"/>
        <pt x="279" y="88" on="0"/>
      </contour>
    </TTGlyph>
    <TTGlyph name="dagger" xMin="60" yMin="0" xMax="430" yMax="690">
      <contour>
        <pt x="299" y="0" on="1"/>
        <pt x="190" y="0" on="1"/>
        <pt x="190" y="554" on="1"/>
        <pt x="60" y="554" on="1"/>
        <pt x="60" y="619" on="1"/>
        <pt x="190" y="619" on="1"/>
        <pt x="190" y="690" on="1"/>
        <pt x="299" y="690" on="1"/>
        <pt x="299" y="619" on="1"/>
        <pt x="430" y="619" on="1"/>
        <pt x="430" y="554" on="1"/>
        <pt x="299" y="554" on="1"/>
      </contour>
    </TTGlyph>
    <TTGlyph name="daggerdbl" xMin="60" yMin="0" xMax="430" yMax="690">
      <contour>
        <pt x="299" y="0" on="1"/>
        <pt x="190" y="0" on="1"/>
        <pt x="190" y="424" on="1"/>
        <pt x="60" y="424" on="1"/>
        <pt x="60" y="489" on="1"/>
        <pt x="190" y="489" on="1"/>
        <pt x="190" y="554" on="1"/>
        <pt x="60" y="554" on="1"/>
        <pt x="60" y="619" on="1"/>
        <pt x="190" y="619" on="1"/>
        <pt x="190" y="690" on="1"/>
        <pt x="299" y="690" on="1"/>
        <pt x="299" y="619" on="1"/>
        <pt x="430" y="619" on="1"/>
        <pt x="430" y="554" on="1"/>
        <pt x="299" y="554" on="1"/>
        <pt x="299" y="489" on="1"/>
        <pt x="430" y="489" on="1"/>
        <pt x="430" y="424" on="1"/>
        <pt x="299" y="424" on="1"/>
      </contour>
    </TTGlyph>
    <TTGlyph name="degree" xMin="60" yMin="432" xMax="315" yMax="700">
      <contour>
        <pt x="242" y="700" on="0"/>
        <pt x="315" y="624" on="0"/>
        <pt x="315" y="507" on="0"/>
        <pt x="242" y="432" on="0"/>
        <pt x="133" y="432" on="0"/>
        <pt x="60" y="506" on="0"/>
        <pt x="60" y="624" on="0"/>
        <pt x="133" y="700" on="0"/>
      </contour>
      <contour>
        <pt x="219" y="483" on="0"/>
        <pt x="263" y="530" on="0"/>
        <pt x="263" y="599" on="0"/>
        <pt x="219" y="649" on="0"/>
        <pt x="157" y="649" on="0"/>
        <pt x="112" y="600" on="0"/>
        <pt x="112" y="530" on="0"/>
        <pt x="156" y="483" on="0"/>
      </contour>
    </TTGlyph>
    <TTGlyph name="dieresis" xMin="50" yMin="568" xMax="290" yMax="676">
      <contour>
        <pt x="202" y="645" on="0"/>
        <pt x="228" y="676" on="0"/>
        <pt x="264" y="676" on="0"/>
        <pt x="290" y="645" on="0"/>
        <pt x="290" y="600" on="0"/>
        <pt x="264" y="568" on="0"/>
        <pt x="228" y="568" on="0"/>
        <pt x="202" y="600" on="0"/>
      </contour>
      <contour>
        <pt x="50" y="645" on="0"/>
        <pt x="76" y="676" on="0"/>
        <pt x="112" y="676" on="0"/>
        <pt x="138" y="645" on="0"/>
        <pt x="138" y="600" on="0"/>
        <pt x="112" y="568" on="0"/>
        <pt x="76" y="568" on="0"/>
        <pt x="50" y="600" on="0"/>
      </contour>
    </TTGlyph>
    <TTGlyph name="dollar" xMin="50" yMin="-48" xMax="462" yMax="749">
      <contour>
        <pt x="248" y="-48" on="1"/>
        <pt x="248" y="-10" on="1"/>
        <pt x="160" y="-7" on="0"/>
        <pt x="50" y="78" on="0"/>
        <pt x="50" y="173" on="1"/>
        <pt x="50" y="184" on="1"/>
        <pt x="129" y="184" on="1"/>
        <pt x="129" y="162" on="1"/>
        <pt x="129" y="93" on="0"/>
        <pt x="185" y="26" on="0"/>
        <pt x="248" y="25" on="1"/>
        <pt x="248" y="283" on="1"/>
        <pt x="131" y="385" on="1"/>
        <pt x="73" y="435" on="0"/>
        <pt x="73" y="593" on="0"/>
        <pt x="167" y="696" on="0"/>
        <pt x="248" y="700" on="1"/>
        <pt x="248" y="749" on="1"/>
        <pt x="288" y="749" on="1"/>
        <pt x="288" y="698" on="1"/>
        <pt x="355" y="690" on="0"/>
        <pt x="425" y="613" on="0"/>
        <pt x="425" y="569" on="1"/>
        <pt x="425" y="563" on="1"/>
        <pt x="393" y="563" on="1"/>
        <pt x="393" y="592" on="0"/>
        <pt x="337" y="659" on="0"/>
        <pt x="288" y="664" on="1"/>
        <pt x="288" y="394" on="1"/>
        <pt x="412" y="286" on="1"/>
        <pt x="462" y="243" on="0"/>
        <pt x="462" y="98" on="0"/>
        <pt x="367" y="0" on="0"/>
        <pt x="288" y="-8" on="1"/>
        <pt x="288" y="-48" on="1"/>
      </contour>
      <contour>
        <pt x="248" y="663" on="1"/>
        <pt x="163" y="650" on="0"/>
        <pt x="163" y="555" on="1"/>
        <pt x="163" y="504" on="0"/>
        <pt x="201" y="470" on="1"/>
        <pt x="248" y="429" on="1"/>
      </contour>
      <contour>
        <pt x="326" y="39" on="0"/>
        <pt x="369" y="95" on="0"/>
        <pt x="369" y="178" on="0"/>
        <pt x="336" y="207" on="1"/>
        <pt x="288" y="248" on="1"/>
        <pt x="288" y="29" on="1"/>
      </contour>
    </TTGlyph>
    <TTGlyph name="dotaccent" xMin="50" yMin="569" xMax="138" yMax="675">
      <contour>
        <pt x="50" y="600" on="0"/>
        <pt x="50" y="644" on="0"/>
        <pt x="76" y="675" on="0"/>
        <pt x="112" y="675" on="0"/>
        <pt x="138" y="644" on="0"/>
        <pt x="138" y="600" on="0"/>
        <pt x="112" y="569" on="0"/>
        <pt x="76" y="569" on="0"/>
      </contour>
    </TTGlyph>
    <TTGlyph name="dotlessi" xMin="60" yMin="-10" xMax="220" yMax="470">
      <contour>
        <pt x="169" y="40" on="1"/>
        <pt x="189" y="40" on="0"/>
        <pt x="201" y="72" on="1"/>
        <pt x="220" y="69" on="1"/>
        <pt x="220" y="60" on="0"/>
        <pt x="208" y="28" on="0"/>
        <pt x="193" y="7" on="0"/>
        <pt x="162" y="-10" on="0"/>
        <pt x="142" y="-10" on="1"/>
        <pt x="60" y="-10" on="0"/>
        <pt x="60" y="89" on="1"/>
        <pt x="60" y="470" on="1"/>
        <pt x="146" y="470" on="1"/>
        <pt x="146" y="74" on="1"/>
        <pt x="146" y="40" on="0"/>
      </contour>
    </TTGlyph>
    <TTGlyph name="e" xMin="50" yMin="-10" xMax="336" yMax="480">
      <contour>
        <pt x="336" y="311" on="1"/>
        <pt x="336" y="232" on="1"/>
        <pt x="136" y="232" on="1"/>
        <pt x="136" y="118" on="1"/>
        <pt x="136" y="20" on="0"/>
        <pt x="216" y="20" on="1"/>
        <pt x="259" y="20" on="0"/>
        <pt x="304" y="90" on="0"/>
        <pt x="304" y="115" on="1"/>
        <pt x="326" y="115" on="1"/>
        <pt x="326" y="57" on="0"/>
        <pt x="279" y="16" on="1"/>
        <pt x="249" y="-10" on="0"/>
        <pt x="203" y="-10" on="1"/>
        <pt x="124" y="-10" on="0"/>
        <pt x="50" y="84" on="0"/>
        <pt x="50" y="157" on="1"/>
        <pt x="50" y="314" on="1"/>
        <pt x="50" y="387" on="0"/>
        <pt x="130" y="480" on="0"/>
        <pt x="276" y="480" on="0"/>
        <pt x="336" y="384" on="0"/>
      </contour>
      <contour>
        <pt x="279" y="262" on="1"/>
        <pt x="279" y="353" on="1"/>
        <pt x="279" y="450" on="0"/>
        <pt x="209" y="450" on="1"/>
        <pt x="136" y="450" on="0"/>
        <pt x="136" y="353" on="1"/>
        <pt x="136" y="262" on="1"/>
      </contour>
    </TTGlyph>
    <TTGlyph name="eacute" xMin="50" yMin="-10" xMax="336" yMax="690">
      <contour>
        <pt x="336" y="311" on="1"/>
        <pt x="336" y="232" on="1"/>
        <pt x="136" y="232" on="1"/>
        <pt x="136" y="118" on="1"/>
        <pt x="136" y="20" on="0"/>
        <pt x="216" y="20" on="1"/>
        <pt x="259" y="20" on="0"/>
        <pt x="304" y="90" on="0"/>
        <pt x="304" y="115" on="1"/>
        <pt x="326" y="115" on="1"/>
        <pt x="326" y="57" on="0"/>
        <pt x="279" y="16" on="1"/>
        <pt x="249" y="-10" on="0"/>
        <pt x="203" y="-10" on="1"/>
        <pt x="124" y="-10" on="0"/>
        <pt x="50" y="84" on="0"/>
        <pt x="50" y="157" on="1"/>
        <pt x="50" y="314" on="1"/>
        <pt x="50" y="387" on="0"/>
        <pt x="130" y="480" on="0"/>
        <pt x="276" y="480" on="0"/>
        <pt x="336" y="384" on="0"/>
      </contour>
      <contour>
        <pt x="279" y="262" on="1"/>
        <pt x="279" y="353" on="1"/>
        <pt x="279" y="450" on="0"/>
        <pt x="209" y="450" on="1"/>
        <pt x="136" y="450" on="0"/>
        <pt x="136" y="353" on="1"/>
        <pt x="136" y="262" on="1"/>
      </contour>
      <contour>
        <pt x="243" y="674" on="1"/>
        <pt x="252" y="690" on="0"/>
        <pt x="285" y="690" on="0"/>
        <pt x="312" y="665" on="0"/>
        <pt x="312" y="636" on="0"/>
        <pt x="301" y="627" on="1"/>
        <pt x="186" y="527" on="1"/>
        <pt x="169" y="539" on="1"/>
      </contour>
    </TTGlyph>
    <TTGlyph name="ecircumflex" xMin="50" yMin="-10" xMax="336" yMax="690">
      <contour>
        <pt x="336" y="311" on="1"/>
        <pt x="336" y="232" on="1"/>
        <pt x="136" y="232" on="1"/>
        <pt x="136" y="118" on="1"/>
        <pt x="136" y="20" on="0"/>
        <pt x="216" y="20" on="1"/>
        <pt x="259" y="20" on="0"/>
        <pt x="304" y="90" on="0"/>
        <pt x="304" y="115" on="1"/>
        <pt x="326" y="115" on="1"/>
        <pt x="326" y="57" on="0"/>
        <pt x="279" y="16" on="1"/>
        <pt x="249" y="-10" on="0"/>
        <pt x="203" y="-10" on="1"/>
        <pt x="124" y="-10" on="0"/>
        <pt x="50" y="84" on="0"/>
        <pt x="50" y="157" on="1"/>
        <pt x="50" y="314" on="1"/>
        <pt x="50" y="387" on="0"/>
        <pt x="130" y="480" on="0"/>
        <pt x="276" y="480" on="0"/>
        <pt x="336" y="384" on="0"/>
      </contour>
      <contour>
        <pt x="279" y="262" on="1"/>
        <pt x="279" y="353" on="1"/>
        <pt x="279" y="450" on="0"/>
        <pt x="209" y="450" on="1"/>
        <pt x="136" y="450" on="0"/>
        <pt x="136" y="353" on="1"/>
        <pt x="136" y="262" on="1"/>
      </contour>
      <contour>
        <pt x="171" y="673" on="1"/>
        <pt x="180" y="690" on="0"/>
        <pt x="220" y="690" on="0"/>
        <pt x="229" y="673" on="1"/>
        <pt x="304" y="547" on="1"/>
        <pt x="292" y="537" on="1"/>
        <pt x="201" y="634" on="1"/>
        <pt x="108" y="537" on="1"/>
        <pt x="96" y="547" on="1"/>
      </contour>
    </TTGlyph>
    <TTGlyph name="edieresis" xMin="50" yMin="-10" xMax="336" yMax="676">
      <contour>
        <pt x="336" y="311" on="1"/>
        <pt x="336" y="232" on="1"/>
        <pt x="136" y="232" on="1"/>
        <pt x="136" y="118" on="1"/>
        <pt x="136" y="20" on="0"/>
        <pt x="216" y="20" on="1"/>
        <pt x="259" y="20" on="0"/>
        <pt x="304" y="90" on="0"/>
        <pt x="304" y="115" on="1"/>
        <pt x="326" y="115" on="1"/>
        <pt x="326" y="57" on="0"/>
        <pt x="279" y="16" on="1"/>
        <pt x="249" y="-10" on="0"/>
        <pt x="203" y="-10" on="1"/>
        <pt x="124" y="-10" on="0"/>
        <pt x="50" y="84" on="0"/>
        <pt x="50" y="157" on="1"/>
        <pt x="50" y="314" on="1"/>
        <pt x="50" y="387" on="0"/>
        <pt x="130" y="480" on="0"/>
        <pt x="276" y="480" on="0"/>
        <pt x="336" y="384" on="0"/>
      </contour>
      <contour>
        <pt x="279" y="262" on="1"/>
        <pt x="279" y="353" on="1"/>
        <pt x="279" y="450" on="0"/>
        <pt x="209" y="450" on="1"/>
        <pt x="136" y="450" on="0"/>
        <pt x="136" y="353" on="1"/>
        <pt x="136" y="262" on="1"/>
      </contour>
      <contour>
        <pt x="232" y="645" on="0"/>
        <pt x="258" y="676" on="0"/>
        <pt x="294" y="676" on="0"/>
        <pt x="320" y="645" on="0"/>
        <pt x="320" y="600" on="0"/>
        <pt x="294" y="568" on="0"/>
        <pt x="258" y="568" on="0"/>
        <pt x="232" y="600" on="0"/>
      </contour>
      <contour>
        <pt x="80" y="645" on="0"/>
        <pt x="106" y="676" on="0"/>
        <pt x="142" y="676" on="0"/>
        <pt x="168" y="645" on="0"/>
        <pt x="168" y="600" on="0"/>
        <pt x="142" y="568" on="0"/>
        <pt x="106" y="568" on="0"/>
        <pt x="80" y="600" on="0"/>
      </contour>
    </TTGlyph>
    <TTGlyph name="egrave" xMin="50" yMin="-10" xMax="336" yMax="690">
      <contour>
        <pt x="336" y="311" on="1"/>
        <pt x="336" y="232" on="1"/>
        <pt x="136" y="232" on="1"/>
        <pt x="136" y="118" on="1"/>
        <pt x="136" y="20" on="0"/>
        <pt x="216" y="20" on="1"/>
        <pt x="259" y="20" on="0"/>
        <pt x="304" y="90" on="0"/>
        <pt x="304" y="115" on="1"/>
        <pt x="326" y="115" on="1"/>
        <pt x="326" y="57" on="0"/>
        <pt x="279" y="16" on="1"/>
        <pt x="249" y="-10" on="0"/>
        <pt x="203" y="-10" on="1"/>
        <pt x="124" y="-10" on="0"/>
        <pt x="50" y="84" on="0"/>
        <pt x="50" y="157" on="1"/>
        <pt x="50" y="314" on="1"/>
        <pt x="50" y="387" on="0"/>
        <pt x="130" y="480" on="0"/>
        <pt x="276" y="480" on="0"/>
        <pt x="336" y="384" on="0"/>
      </contour>
      <contour>
        <pt x="279" y="262" on="1"/>
        <pt x="279" y="353" on="1"/>
        <pt x="279" y="450" on="0"/>
        <pt x="209" y="450" on="1"/>
        <pt x="136" y="450" on="0"/>
        <pt x="136" y="353" on="1"/>
        <pt x="136" y="262" on="1"/>
      </contour>
      <contour>
        <pt x="114" y="626" on="1"/>
        <pt x="103" y="637" on="0"/>
        <pt x="103" y="665" on="0"/>
        <pt x="129" y="690" on="0"/>
        <pt x="163" y="690" on="0"/>
        <pt x="172" y="674" on="1"/>
        <pt x="246" y="539" on="1"/>
        <pt x="229" y="526" on="1"/>
      </contour>
    </TTGlyph>
    <TTGlyph name="eight" xMin="55" yMin="-10" xMax="457" yMax="700">
      <contour>
        <pt x="452" y="515" on="1"/>
        <pt x="452" y="465" on="0"/>
        <pt x="392" y="385" on="0"/>
        <pt x="341" y="365" on="1"/>
        <pt x="394" y="345" on="0"/>
        <pt x="457" y="264" on="0"/>
        <pt x="457" y="214" on="1"/>
        <pt x="457" y="157" on="1"/>
        <pt x="457" y="87" on="0"/>
        <pt x="342" y="-10" on="0"/>
        <pt x="170" y="-10" on="0"/>
        <pt x="55" y="87" on="0"/>
        <pt x="55" y="157" on="1"/>
        <pt x="55" y="214" on="1"/>
        <pt x="55" y="265" on="0"/>
        <pt x="117" y="345" on="0"/>
        <pt x="170" y="365" on="1"/>
        <pt x="119" y="385" on="0"/>
        <pt x="60" y="464" on="0"/>
        <pt x="60" y="515" on="1"/>
        <pt x="60" y="534" on="1"/>
        <pt x="60" y="604" on="0"/>
        <pt x="172" y="700" on="0"/>
        <pt x="340" y="700" on="0"/>
        <pt x="452" y="604" on="0"/>
        <pt x="452" y="534" on="1"/>
      </contour>
      <contour>
        <pt x="348" y="118" on="1"/>
        <pt x="348" y="253" on="1"/>
        <pt x="348" y="295" on="0"/>
        <pt x="303" y="350" on="0"/>
        <pt x="209" y="350" on="0"/>
        <pt x="163" y="295" on="0"/>
        <pt x="163" y="253" on="1"/>
        <pt x="163" y="118" on="1"/>
        <pt x="163" y="76" on="0"/>
        <pt x="209" y="20" on="0"/>
        <pt x="303" y="20" on="0"/>
        <pt x="348" y="75" on="0"/>
      </contour>
      <contour>
        <pt x="346" y="476" on="1"/>
        <pt x="346" y="573" on="1"/>
        <pt x="346" y="616" on="0"/>
        <pt x="302" y="670" on="0"/>
        <pt x="209" y="670" on="0"/>
        <pt x="165" y="616" on="0"/>
        <pt x="165" y="573" on="1"/>
        <pt x="165" y="476" on="1"/>
        <pt x="165" y="383" on="0"/>
        <pt x="251" y="380" on="1"/>
        <pt x="261" y="380" on="1"/>
        <pt x="305" y="381" on="0"/>
        <pt x="346" y="434" on="0"/>
      </contour>
    </TTGlyph>
    <TTGlyph name="ellipsis" xMin="50" yMin="-10" xMax="490" yMax="96">
      <contour>
        <pt x="50" y="21" on="0"/>
        <pt x="50" y="65" on="0"/>
        <pt x="76" y="96" on="0"/>
        <pt x="112" y="96" on="0"/>
        <pt x="138" y="65" on="0"/>
        <pt x="138" y="21" on="0"/>
        <pt x="112" y="-10" on="0"/>
        <pt x="76" y="-10" on="0"/>
      </contour>
      <contour>
        <pt x="226" y="21" on="0"/>
        <pt x="226" y="65" on="0"/>
        <pt x="252" y="96" on="0"/>
        <pt x="288" y="96" on="0"/>
        <pt x="314" y="65" on="0"/>
        <pt x="314" y="21" on="0"/>
        <pt x="288" y="-10" on="0"/>
        <pt x="252" y="-10" on="0"/>
      </contour>
      <contour>
        <pt x="402" y="21" on="0"/>
        <pt x="402" y="65" on="0"/>
        <pt x="428" y="96" on="0"/>
        <pt x="464" y="96" on="0"/>
        <pt x="490" y="65" on="0"/>
        <pt x="490" y="21" on="0"/>
        <pt x="464" y="-10" on="0"/>
        <pt x="428" y="-10" on="0"/>
      </contour>
    </TTGlyph>
    <TTGlyph name="emdash" xMin="0" yMin="250" xMax="1000" yMax="300">
      <contour>
        <pt x="1000" y="250" on="1"/>
        <pt x="0" y="250" on="1"/>
        <pt x="0" y="300" on="1"/>
        <pt x="1000" y="300" on="1"/>
      </contour>
    </TTGlyph>
    <TTGlyph name="endash" xMin="0" yMin="250" xMax="500" yMax="300">
      <contour>
        <pt x="500" y="250" on="1"/>
        <pt x="0" y="250" on="1"/>
        <pt x="0" y="300" on="1"/>
        <pt x="500" y="300" on="1"/>
      </contour>
    </TTGlyph>
    <TTGlyph name="equal" xMin="50" yMin="160" xMax="450" yMax="350">
      <contour>
        <pt x="450" y="300" on="1"/>
        <pt x="50" y="300" on="1"/>
        <pt x="50" y="350" on="1"/>
        <pt x="450" y="350" on="1"/>
      </contour>
      <contour>
        <pt x="450" y="160" on="1"/>
        <pt x="50" y="160" on="1"/>
        <pt x="50" y="210" on="1"/>
        <pt x="450" y="210" on="1"/>
      </contour>
    </TTGlyph>
    <TTGlyph name="eth" xMin="50" yMin="-10" xMax="426" yMax="690">
      <contour>
        <pt x="366" y="0" on="1"/>
        <pt x="279" y="0" on="1"/>
        <pt x="279" y="60" on="1"/>
        <pt x="251" y="-10" on="0"/>
        <pt x="121" y="-10" on="0"/>
        <pt x="50" y="76" on="0"/>
        <pt x="50" y="149" on="1"/>
        <pt x="50" y="322" on="1"/>
        <pt x="50" y="394" on="0"/>
        <pt x="121" y="480" on="0"/>
        <pt x="251" y="480" on="0"/>
        <pt x="279" y="412" on="1"/>
        <pt x="279" y="560" on="1"/>
        <pt x="169" y="560" on="1"/>
        <pt x="169" y="625" on="1"/>
        <pt x="279" y="625" on="1"/>
        <pt x="279" y="690" on="1"/>
        <pt x="366" y="690" on="1"/>
        <pt x="366" y="625" on="1"/>
        <pt x="426" y="625" on="1"/>
        <pt x="426" y="560" on="1"/>
        <pt x="366" y="560" on="1"/>
      </contour>
      <contour>
        <pt x="279" y="334" on="1"/>
        <pt x="279" y="380" on="0"/>
        <pt x="235" y="450" on="0"/>
        <pt x="196" y="450" on="1"/>
        <pt x="137" y="450" on="0"/>
        <pt x="137" y="356" on="1"/>
        <pt x="137" y="115" on="1"/>
        <pt x="137" y="22" on="0"/>
        <pt x="195" y="22" on="1"/>
        <pt x="236" y="22" on="0"/>
        <pt x="279" y="88" on="0"/>
        <pt x="279" y="137" on="1"/>
      </contour>
    </TTGlyph>
    <TTGlyph name="exclam" xMin="60" yMin="-10" xMax="159" yMax="700">
      <contour>
        <pt x="60" y="671" on="0"/>
        <pt x="91" y="700" on="0"/>
        <pt x="128" y="700" on="0"/>
        <pt x="159" y="671" on="0"/>
        <pt x="159" y="646" on="1"/>
        <pt x="128" y="154" on="1"/>
        <pt x="91" y="154" on="1"/>
        <pt x="60" y="646" on="1"/>
      </contour>
      <contour>
        <pt x="65" y="21" on="0"/>
        <pt x="65" y="65" on="0"/>
        <pt x="91" y="96" on="0"/>
        <pt x="128" y="96" on="0"/>
        <pt x="153" y="65" on="0"/>
        <pt x="153" y="21" on="0"/>
        <pt x="128" y="-10" on="0"/>
        <pt x="91" y="-10" on="0"/>
      </contour>
    </TTGlyph>
    <TTGlyph name="exclamdown" xMin="60" yMin="-145" xMax="159" yMax="565">
      <contour>
        <pt x="159" y="-116" on="0"/>
        <pt x="128" y="-145" on="0"/>
        <pt x="91" y="-145" on="0"/>
        <pt x="60" y="-116" on="0"/>
        <pt x="60" y="-91" on="1"/>
        <pt x="91" y="401" on="1"/>
        <pt x="128" y="401" on="1"/>
        <pt x="159" y="-91" on="1"/>
      </contour>
      <contour>
        <pt x="154" y="534" on="0"/>
        <pt x="154" y="490" on="0"/>
        <pt x="128" y="459" on="0"/>
        <pt x="91" y="459" on="0"/>
        <pt x="66" y="490" on="0"/>
        <pt x="66" y="534" on="0"/>
        <pt x="91" y="565" on="0"/>
        <pt x="128" y="565" on="0"/>
      </contour>
    </TTGlyph>
    <TTGlyph name="f" xMin="40" yMin="0" xMax="272" yMax="720">
      <contour>
        <pt x="272" y="515" on="1"/>
        <pt x="249" y="515" on="1"/>
        <pt x="249" y="554" on="1"/>
        <pt x="249" y="606" on="0"/>
        <pt x="220" y="665" on="0"/>
        <pt x="196" y="665" on="1"/>
        <pt x="158" y="665" on="0"/>
        <pt x="158" y="587" on="1"/>
        <pt x="158" y="300" on="1"/>
        <pt x="243" y="300" on="1"/>
        <pt x="243" y="270" on="1"/>
        <pt x="158" y="270" on="1"/>
        <pt x="158" y="0" on="1"/>
        <pt x="73" y="0" on="1"/>
        <pt x="73" y="270" on="1"/>
        <pt x="40" y="270" on="1"/>
        <pt x="40" y="300" on="1"/>
        <pt x="73" y="300" on="1"/>
        <pt x="73" y="557" on="1"/>
        <pt x="73" y="624" on="0"/>
        <pt x="126" y="700" on="0"/>
        <pt x="169" y="700" on="1"/>
        <pt x="229" y="700" on="0"/>
        <pt x="249" y="644" on="1"/>
        <pt x="249" y="720" on="1"/>
        <pt x="272" y="720" on="1"/>
      </contour>
    </TTGlyph>
    <TTGlyph name="ff" xMin="40" yMin="0" xMax="506" yMax="720">
      <contour>
        <pt x="506" y="516" on="1"/>
        <pt x="484" y="516" on="1"/>
        <pt x="484" y="554" on="1"/>
        <pt x="484" y="606" on="0"/>
        <pt x="454" y="665" on="0"/>
        <pt x="430" y="665" on="1"/>
        <pt x="392" y="665" on="0"/>
        <pt x="392" y="587" on="1"/>
        <pt x="392" y="300" on="1"/>
        <pt x="478" y="300" on="1"/>
        <pt x="478" y="270" on="1"/>
        <pt x="392" y="270" on="1"/>
        <pt x="392" y="0" on="1"/>
        <pt x="307" y="0" on="1"/>
        <pt x="307" y="270" on="1"/>
        <pt x="158" y="270" on="1"/>
        <pt x="158" y="0" on="1"/>
        <pt x="73" y="0" on="1"/>
        <pt x="73" y="270" on="1"/>
        <pt x="40" y="270" on="1"/>
        <pt x="40" y="300" on="1"/>
        <pt x="73" y="300" on="1"/>
        <pt x="73" y="557" on="1"/>
        <pt x="73" y="624" on="0"/>
        <pt x="126" y="700" on="0"/>
        <pt x="169" y="700" on="1"/>
        <pt x="229" y="700" on="0"/>
        <pt x="249" y="644" on="1"/>
        <pt x="249" y="720" on="1"/>
        <pt x="272" y="720" on="1"/>
        <pt x="272" y="516" on="1"/>
        <pt x="249" y="516" on="1"/>
        <pt x="249" y="554" on="1"/>
        <pt x="249" y="606" on="0"/>
        <pt x="220" y="665" on="0"/>
        <pt x="196" y="665" on="1"/>
        <pt x="158" y="665" on="0"/>
        <pt x="158" y="587" on="1"/>
        <pt x="158" y="300" on="1"/>
        <pt x="307" y="300" on="1"/>
        <pt x="307" y="557" on="1"/>
        <pt x="307" y="624" on="0"/>
        <pt x="360" y="700" on="0"/>
        <pt x="404" y="700" on="1"/>
        <pt x="463" y="700" on="0"/>
        <pt x="484" y="644" on="1"/>
        <pt x="484" y="720" on="1"/>
        <pt x="506" y="720" on="1"/>
      </contour>
    </TTGlyph>
    <TTGlyph name="fi" xMin="40" yMin="-10" xMax="466" yMax="720">
      <contour>
        <pt x="329" y="545" on="1"/>
        <pt x="307" y="545" on="1"/>
        <pt x="307" y="554" on="1"/>
        <pt x="307" y="596" on="0"/>
        <pt x="262" y="665" on="0"/>
        <pt x="197" y="665" on="0"/>
        <pt x="158" y="624" on="0"/>
        <pt x="158" y="591" on="1"/>
        <pt x="158" y="300" on="1"/>
        <pt x="243" y="300" on="1"/>
        <pt x="243" y="270" on="1"/>
        <pt x="158" y="270" on="1"/>
        <pt x="158" y="0" on="1"/>
        <pt x="73" y="0" on="1"/>
        <pt x="73" y="270" on="1"/>
        <pt x="40" y="270" on="1"/>
        <pt x="40" y="300" on="1"/>
        <pt x="73" y="300" on="1"/>
        <pt x="73" y="566" on="1"/>
        <pt x="73" y="629" on="0"/>
        <pt x="156" y="700" on="0"/>
        <pt x="245" y="700" on="0"/>
        <pt x="300" y="656" on="0"/>
        <pt x="307" y="633" on="1"/>
        <pt x="307" y="720" on="1"/>
        <pt x="329" y="720" on="1"/>
      </contour>
      <contour>
        <pt x="415" y="40" on="1"/>
        <pt x="435" y="40" on="0"/>
        <pt x="447" y="72" on="1"/>
        <pt x="466" y="69" on="1"/>
        <pt x="466" y="60" on="0"/>
        <pt x="454" y="28" on="0"/>
        <pt x="439" y="7" on="0"/>
        <pt x="408" y="-10" on="0"/>
        <pt x="388" y="-10" on="1"/>
        <pt x="306" y="-10" on="0"/>
        <pt x="306" y="89" on="1"/>
        <pt x="306" y="470" on="1"/>
        <pt x="392" y="470" on="1"/>
        <pt x="392" y="74" on="1"/>
        <pt x="392" y="40" on="0"/>
      </contour>
    </TTGlyph>
    <TTGlyph name="five" xMin="60" yMin="-10" xMax="442" yMax="690">
      <contour>
        <pt x="442" y="228" on="1"/>
        <pt x="442" y="212" on="1"/>
        <pt x="442" y="-10" on="0"/>
        <pt x="233" y="-10" on="1"/>
        <pt x="171" y="-10" on="0"/>
        <pt x="84" y="54" on="0"/>
        <pt x="68" y="112" on="1"/>
        <pt x="94" y="120" on="1"/>
        <pt x="106" y="86" on="0"/>
        <pt x="169" y="25" on="0"/>
        <pt x="223" y="25" on="1"/>
        <pt x="334" y="25" on="0"/>
        <pt x="334" y="160" on="1"/>
        <pt x="334" y="259" on="1"/>
        <pt x="334" y="415" on="0"/>
        <pt x="228" y="415" on="1"/>
        <pt x="133" y="415" on="0"/>
        <pt x="110" y="307" on="1"/>
        <pt x="60" y="307" on="1"/>
        <pt x="60" y="690" on="1"/>
        <pt x="423" y="690" on="1"/>
        <pt x="423" y="590" on="1"/>
        <pt x="110" y="590" on="1"/>
        <pt x="110" y="381" on="1"/>
        <pt x="149" y="450" on="0"/>
        <pt x="238" y="450" on="1"/>
        <pt x="345" y="450" on="0"/>
        <pt x="442" y="318" on="0"/>
      </contour>
    </TTGlyph>
    <TTGlyph name="fl" xMin="40" yMin="-10" xMax="468" yMax="700">
      <contour>
        <pt x="307" y="89" on="1"/>
        <pt x="307" y="554" on="1"/>
        <pt x="307" y="603" on="0"/>
        <pt x="258" y="665" on="0"/>
        <pt x="197" y="665" on="0"/>
        <pt x="158" y="624" on="0"/>
        <pt x="158" y="592" on="1"/>
        <pt x="158" y="300" on="1"/>
        <pt x="243" y="300" on="1"/>
        <pt x="243" y="270" on="1"/>
        <pt x="158" y="270" on="1"/>
        <pt x="158" y="0" on="1"/>
        <pt x="73" y="0" on="1"/>
        <pt x="73" y="270" on="1"/>
        <pt x="40" y="270" on="1"/>
        <pt x="40" y="300" on="1"/>
        <pt x="73" y="300" on="1"/>
        <pt x="73" y="567" on="1"/>
        <pt x="73" y="630" on="0"/>
        <pt x="156" y="700" on="0"/>
        <pt x="245" y="700" on="0"/>
        <pt x="300" y="656" on="0"/>
        <pt x="307" y="633" on="1"/>
        <pt x="307" y="690" on="1"/>
        <pt x="394" y="690" on="1"/>
        <pt x="394" y="74" on="1"/>
        <pt x="394" y="40" on="0"/>
        <pt x="416" y="40" on="1"/>
        <pt x="427" y="40" on="0"/>
        <pt x="443" y="56" on="0"/>
        <pt x="449" y="72" on="1"/>
        <pt x="468" y="69" on="1"/>
        <pt x="468" y="61" on="0"/>
        <pt x="457" y="28" on="0"/>
        <pt x="449" y="18" on="1"/>
        <pt x="428" y="-10" on="0"/>
        <pt x="389" y="-10" on="1"/>
        <pt x="307" y="-10" on="0"/>
      </contour>
    </TTGlyph>
    <TTGlyph name="florin" xMin="60" yMin="-163" xMax="373" yMax="710">
      <contour>
        <pt x="373" y="505" on="1"/>
        <pt x="350" y="505" on="1"/>
        <pt x="350" y="544" on="1"/>
        <pt x="350" y="596" on="0"/>
        <pt x="321" y="655" on="0"/>
        <pt x="297" y="655" on="1"/>
        <pt x="259" y="655" on="0"/>
        <pt x="259" y="577" on="1"/>
        <pt x="259" y="300" on="1"/>
        <pt x="344" y="300" on="1"/>
        <pt x="344" y="270" on="1"/>
        <pt x="259" y="270" on="1"/>
        <pt x="259" y="0" on="1"/>
        <pt x="259" y="-67" on="0"/>
        <pt x="206" y="-143" on="0"/>
        <pt x="163" y="-143" on="1"/>
        <pt x="103" y="-143" on="0"/>
        <pt x="83" y="-87" on="1"/>
        <pt x="83" y="-163" on="1"/>
        <pt x="60" y="-163" on="1"/>
        <pt x="60" y="42" on="1"/>
        <pt x="83" y="42" on="1"/>
        <pt x="83" y="3" on="1"/>
        <pt x="83" y="-49" on="0"/>
        <pt x="112" y="-108" on="0"/>
        <pt x="136" y="-108" on="1"/>
        <pt x="174" y="-108" on="0"/>
        <pt x="174" y="-43" on="1"/>
        <pt x="174" y="270" on="1"/>
        <pt x="141" y="270" on="1"/>
        <pt x="141" y="300" on="1"/>
        <pt x="174" y="300" on="1"/>
        <pt x="174" y="547" on="1"/>
        <pt x="174" y="614" on="0"/>
        <pt x="227" y="690" on="0"/>
        <pt x="270" y="690" on="1"/>
        <pt x="330" y="690" on="0"/>
        <pt x="350" y="634" on="1"/>
        <pt x="350" y="710" on="1"/>
        <pt x="373" y="710" on="1"/>
      </contour>
    </TTGlyph>
    <TTGlyph name="four" xMin="20" yMin="0" xMax="416" yMax="690">
      <contour>
        <pt x="389" y="0" on="1"/>
        <pt x="280" y="0" on="1"/>
        <pt x="280" y="183" on="1"/>
        <pt x="20" y="183" on="1"/>
        <pt x="291" y="690" on="1"/>
        <pt x="398" y="690" on="1"/>
        <pt x="152" y="232" on="1"/>
        <pt x="280" y="232" on="1"/>
        <pt x="280" y="369" on="1"/>
        <pt x="389" y="369" on="1"/>
        <pt x="389" y="232" on="1"/>
        <pt x="416" y="232" on="1"/>
        <pt x="416" y="182" on="1"/>
        <pt x="389" y="182" on="1"/>
      </contour>
    </TTGlyph>
    <TTGlyph name="fraction" xMin="60" yMin="-30" xMax="489" yMax="730">
      <contour>
        <pt x="407" y="730" on="1"/>
        <pt x="489" y="730" on="1"/>
        <pt x="142" y="-30" on="1"/>
        <pt x="60" y="-30" on="1"/>
      </contour>
    </TTGlyph>
    <TTGlyph name="g" xMin="50" yMin="-167" xMax="365" yMax="480">
      <contour>
        <pt x="365" y="470" on="1"/>
        <pt x="365" y="71" on="1"/>
        <pt x="365" y="-167" on="0"/>
        <pt x="188" y="-167" on="1"/>
        <pt x="137" y="-167" on="0"/>
        <pt x="106" y="-142" on="1"/>
        <pt x="78" y="-121" on="0"/>
        <pt x="64" y="-97" on="1"/>
        <pt x="81" y="-83" on="1"/>
        <pt x="90" y="-100" on="0"/>
        <pt x="147" y="-133" on="0"/>
        <pt x="208" y="-133" on="0"/>
        <pt x="250" y="-108" on="0"/>
        <pt x="260" y="-82" on="1"/>
        <pt x="278" y="-39" on="0"/>
        <pt x="278" y="44" on="1"/>
        <pt x="278" y="60" on="1"/>
        <pt x="251" y="-10" on="0"/>
        <pt x="121" y="-10" on="0"/>
        <pt x="50" y="76" on="0"/>
        <pt x="50" y="149" on="1"/>
        <pt x="50" y="322" on="1"/>
        <pt x="50" y="395" on="0"/>
        <pt x="121" y="480" on="0"/>
        <pt x="181" y="480" on="1"/>
        <pt x="252" y="480" on="0"/>
        <pt x="278" y="413" on="1"/>
        <pt x="278" y="470" on="1"/>
      </contour>
      <contour>
        <pt x="278" y="137" on="1"/>
        <pt x="278" y="334" on="1"/>
        <pt x="278" y="380" on="0"/>
        <pt x="235" y="450" on="0"/>
        <pt x="196" y="450" on="1"/>
        <pt x="137" y="450" on="0"/>
        <pt x="137" y="357" on="1"/>
        <pt x="137" y="116" on="1"/>
        <pt x="137" y="22" on="0"/>
        <pt x="195" y="22" on="1"/>
        <pt x="236" y="22" on="0"/>
        <pt x="278" y="88" on="0"/>
      </contour>
    </TTGlyph>
    <TTGlyph name="germandbls" xMin="40" yMin="-10" xMax="494" yMax="700">
      <contour>
        <pt x="158" y="0" on="1"/>
        <pt x="73" y="0" on="1"/>
        <pt x="73" y="270" on="1"/>
        <pt x="40" y="270" on="1"/>
        <pt x="40" y="300" on="1"/>
        <pt x="73" y="300" on="1"/>
        <pt x="73" y="557" on="1"/>
        <pt x="73" y="614" on="0"/>
        <pt x="148" y="700" on="0"/>
        <pt x="260" y="700" on="0"/>
        <pt x="320" y="643" on="0"/>
        <pt x="329" y="608" on="1"/>
        <pt x="329" y="695" on="1"/>
        <pt x="352" y="695" on="1"/>
        <pt x="352" y="485" on="1"/>
        <pt x="323" y="485" on="0"/>
        <pt x="289" y="444" on="0"/>
        <pt x="289" y="386" on="0"/>
        <pt x="319" y="353" on="1"/>
        <pt x="454" y="207" on="1"/>
        <pt x="494" y="164" on="0"/>
        <pt x="494" y="63" on="0"/>
        <pt x="419" y="-10" on="0"/>
        <pt x="277" y="-10" on="0"/>
        <pt x="218" y="67" on="0"/>
        <pt x="218" y="113" on="1"/>
        <pt x="245" y="113" on="1"/>
        <pt x="245" y="107" on="1"/>
        <pt x="245" y="68" on="0"/>
        <pt x="296" y="20" on="0"/>
        <pt x="337" y="20" on="1"/>
        <pt x="418" y="20" on="0"/>
        <pt x="418" y="90" on="1"/>
        <pt x="418" y="117" on="0"/>
        <pt x="391" y="147" on="1"/>
        <pt x="265" y="286" on="1"/>
        <pt x="220" y="336" on="0"/>
        <pt x="220" y="431" on="0"/>
        <pt x="280" y="500" on="0"/>
        <pt x="329" y="505" on="1"/>
        <pt x="325" y="564" on="0"/>
        <pt x="271" y="665" on="0"/>
        <pt x="226" y="665" on="1"/>
        <pt x="195" y="665" on="0"/>
        <pt x="158" y="616" on="0"/>
        <pt x="158" y="587" on="1"/>
      </contour>
    </TTGlyph>
    <TTGlyph name="grave" xMin="50" yMin="526" xMax="193" yMax="690">
      <contour>
        <pt x="61" y="626" on="1"/>
        <pt x="50" y="637" on="0"/>
        <pt x="50" y="665" on="0"/>
        <pt x="76" y="690" on="0"/>
        <pt x="110" y="690" on="0"/>
        <pt x="119" y="674" on="1"/>
        <pt x="193" y="539" on="1"/>
        <pt x="176" y="526" on="1"/>
      </contour>
    </TTGlyph>
    <TTGlyph name="greater" xMin="100" yMin="0" xMax="419" yMax="565">
      <contour>
        <pt x="419" y="282" on="1"/>
        <pt x="136" y="0" on="1"/>
        <pt x="100" y="35" on="1"/>
        <pt x="348" y="282" on="1"/>
        <pt x="101" y="530" on="1"/>
        <pt x="136" y="565" on="1"/>
      </contour>
    </TTGlyph>
    <TTGlyph name="guillemotleft" xMin="50" yMin="156" xMax="385" yMax="470">
      <contour>
        <pt x="223" y="180" on="1"/>
        <pt x="224" y="179" on="0"/>
        <pt x="224" y="171" on="0"/>
        <pt x="209" y="156" on="0"/>
        <pt x="196" y="156" on="0"/>
        <pt x="193" y="159" on="1"/>
        <pt x="53" y="302" on="1"/>
        <pt x="50" y="305" on="0"/>
        <pt x="50" y="320" on="0"/>
        <pt x="53" y="323" on="1"/>
        <pt x="193" y="467" on="1"/>
        <pt x="196" y="470" on="0"/>
        <pt x="208" y="470" on="0"/>
        <pt x="224" y="457" on="0"/>
        <pt x="224" y="449" on="0"/>
        <pt x="223" y="447" on="1"/>
        <pt x="133" y="313" on="1"/>
      </contour>
      <contour>
        <pt x="384" y="180" on="1"/>
        <pt x="385" y="179" on="0"/>
        <pt x="385" y="171" on="0"/>
        <pt x="370" y="156" on="0"/>
        <pt x="357" y="156" on="0"/>
        <pt x="354" y="159" on="1"/>
        <pt x="214" y="302" on="1"/>
        <pt x="211" y="305" on="0"/>
        <pt x="211" y="320" on="0"/>
        <pt x="214" y="323" on="1"/>
        <pt x="354" y="467" on="1"/>
        <pt x="357" y="470" on="0"/>
        <pt x="369" y="470" on="0"/>
        <pt x="385" y="457" on="0"/>
        <pt x="385" y="449" on="0"/>
        <pt x="384" y="447" on="1"/>
        <pt x="294" y="313" on="1"/>
      </contour>
    </TTGlyph>
    <TTGlyph name="guillemotright" xMin="50" yMin="156" xMax="385" yMax="470">
      <contour>
        <pt x="212" y="447" on="1"/>
        <pt x="211" y="449" on="0"/>
        <pt x="211" y="457" on="0"/>
        <pt x="227" y="470" on="0"/>
        <pt x="239" y="470" on="0"/>
        <pt x="242" y="467" on="1"/>
        <pt x="382" y="323" on="1"/>
        <pt x="385" y="320" on="0"/>
        <pt x="385" y="305" on="0"/>
        <pt x="382" y="302" on="1"/>
        <pt x="242" y="159" on="1"/>
        <pt x="239" y="156" on="0"/>
        <pt x="226" y="156" on="0"/>
        <pt x="211" y="171" on="0"/>
        <pt x="211" y="179" on="0"/>
        <pt x="212" y="180" on="1"/>
        <pt x="302" y="313" on="1"/>
      </contour>
      <contour>
        <pt x="51" y="447" on="1"/>
        <pt x="50" y="449" on="0"/>
        <pt x="50" y="457" on="0"/>
        <pt x="66" y="470" on="0"/>
        <pt x="78" y="470" on="0"/>
        <pt x="81" y="467" on="1"/>
        <pt x="221" y="323" on="1"/>
        <pt x="224" y="320" on="0"/>
        <pt x="224" y="305" on="0"/>
        <pt x="221" y="302" on="1"/>
        <pt x="81" y="159" on="1"/>
        <pt x="78" y="156" on="0"/>
        <pt x="65" y="156" on="0"/>
        <pt x="50" y="171" on="0"/>
        <pt x="50" y="179" on="0"/>
        <pt x="51" y="180" on="1"/>
        <pt x="141" y="313" on="1"/>
      </contour>
    </TTGlyph>
    <TTGlyph name="guilsinglleft" xMin="50" yMin="156" xMax="224" yMax="470">
      <contour>
        <pt x="223" y="180" on="1"/>
        <pt x="224" y="179" on="0"/>
        <pt x="224" y="171" on="0"/>
        <pt x="209" y="156" on="0"/>
        <pt x="196" y="156" on="0"/>
        <pt x="193" y="159" on="1"/>
        <pt x="53" y="302" on="1"/>
        <pt x="50" y="305" on="0"/>
        <pt x="50" y="320" on="0"/>
        <pt x="53" y="323" on="1"/>
        <pt x="193" y="467" on="1"/>
        <pt x="196" y="470" on="0"/>
        <pt x="208" y="470" on="0"/>
        <pt x="224" y="457" on="0"/>
        <pt x="224" y="449" on="0"/>
        <pt x="223" y="447" on="1"/>
        <pt x="133" y="313" on="1"/>
      </contour>
    </TTGlyph>
    <TTGlyph name="guilsinglright" xMin="50" yMin="156" xMax="224" yMax="470">
      <contour>
        <pt x="51" y="447" on="1"/>
        <pt x="50" y="449" on="0"/>
        <pt x="50" y="457" on="0"/>
        <pt x="66" y="470" on="0"/>
        <pt x="78" y="470" on="0"/>
        <pt x="81" y="467" on="1"/>
        <pt x="221" y="323" on="1"/>
        <pt x="224" y="320" on="0"/>
        <pt x="224" y="305" on="0"/>
        <pt x="221" y="302" on="1"/>
        <pt x="81" y="159" on="1"/>
        <pt x="78" y="156" on="0"/>
        <pt x="65" y="156" on="0"/>
        <pt x="50" y="171" on="0"/>
        <pt x="50" y="179" on="0"/>
        <pt x="51" y="180" on="1"/>
        <pt x="141" y="313" on="1"/>
      </contour>
    </TTGlyph>
    <TTGlyph name="h" xMin="60" yMin="-10" xMax="448" yMax="690">
      <contour>
        <pt x="398" y="40" on="1"/>
        <pt x="417" y="40" on="0"/>
        <pt x="429" y="72" on="1"/>
        <pt x="448" y="69" on="1"/>
        <pt x="448" y="60" on="0"/>
        <pt x="436" y="28" on="0"/>
        <pt x="428" y="18" on="1"/>
        <pt x="409" y="-10" on="0"/>
        <pt x="371" y="-10" on="1"/>
        <pt x="288" y="-10" on="0"/>
        <pt x="288" y="89" on="1"/>
        <pt x="288" y="356" on="1"/>
        <pt x="288" y="450" on="0"/>
        <pt x="229" y="450" on="1"/>
        <pt x="190" y="450" on="0"/>
        <pt x="146" y="380" on="0"/>
        <pt x="146" y="334" on="1"/>
        <pt x="146" y="0" on="1"/>
        <pt x="60" y="0" on="1"/>
        <pt x="60" y="690" on="1"/>
        <pt x="146" y="690" on="1"/>
        <pt x="146" y="412" on="1"/>
        <pt x="175" y="480" on="0"/>
        <pt x="305" y="480" on="0"/>
        <pt x="375" y="395" on="0"/>
        <pt x="375" y="322" on="1"/>
        <pt x="375" y="74" on="1"/>
        <pt x="375" y="40" on="0"/>
      </contour>
    </TTGlyph>
    <TTGlyph name="hungarumlaut" xMin="50" yMin="527" xMax="342" yMax="690">
      <contour>
        <pt x="123" y="674" on="1"/>
        <pt x="133" y="690" on="0"/>
        <pt x="166" y="690" on="0"/>
        <pt x="192" y="665" on="0"/>
        <pt x="192" y="635" on="0"/>
        <pt x="181" y="627" on="1"/>
        <pt x="67" y="527" on="1"/>
        <pt x="50" y="539" on="1"/>
      </contour>
      <contour>
        <pt x="273" y="674" on="1"/>
        <pt x="283" y="690" on="0"/>
        <pt x="316" y="690" on="0"/>
        <pt x="342" y="665" on="0"/>
        <pt x="342" y="635" on="0"/>
        <pt x="331" y="627" on="1"/>
        <pt x="217" y="527" on="1"/>
        <pt x="200" y="539" on="1"/>
      </contour>
    </TTGlyph>
    <TTGlyph name="hyphen" xMin="50" yMin="235" xMax="275" yMax="300">
      <contour>
        <pt x="275" y="235" on="1"/>
        <pt x="50" y="235" on="1"/>
        <pt x="50" y="300" on="1"/>
        <pt x="275" y="300" on="1"/>
      </contour>
    </TTGlyph>
    <TTGlyph name="i" xMin="60" yMin="-10" xMax="220" yMax="690">
      <contour>
        <pt x="147" y="651" on="0"/>
        <pt x="147" y="595" on="0"/>
        <pt x="121" y="554" on="0"/>
        <pt x="86" y="554" on="0"/>
        <pt x="60" y="595" on="0"/>
        <pt x="60" y="651" on="0"/>
        <pt x="86" y="690" on="0"/>
        <pt x="121" y="690" on="0"/>
      </contour>
      <contour>
        <pt x="169" y="40" on="1"/>
        <pt x="189" y="40" on="0"/>
        <pt x="201" y="72" on="1"/>
        <pt x="220" y="69" on="1"/>
        <pt x="220" y="60" on="0"/>
        <pt x="208" y="28" on="0"/>
        <pt x="193" y="7" on="0"/>
        <pt x="162" y="-10" on="0"/>
        <pt x="142" y="-10" on="1"/>
        <pt x="60" y="-10" on="0"/>
        <pt x="60" y="89" on="1"/>
        <pt x="60" y="470" on="1"/>
        <pt x="146" y="470" on="1"/>
        <pt x="146" y="74" on="1"/>
        <pt x="146" y="40" on="0"/>
      </contour>
    </TTGlyph>
    <TTGlyph name="iacute" xMin="60" yMin="-10" xMax="220" yMax="690">
      <contour>
        <pt x="169" y="40" on="1"/>
        <pt x="189" y="40" on="0"/>
        <pt x="201" y="72" on="1"/>
        <pt x="220" y="69" on="1"/>
        <pt x="220" y="60" on="0"/>
        <pt x="208" y="28" on="0"/>
        <pt x="193" y="7" on="0"/>
        <pt x="162" y="-10" on="0"/>
        <pt x="142" y="-10" on="1"/>
        <pt x="60" y="-10" on="0"/>
        <pt x="60" y="89" on="1"/>
        <pt x="60" y="470" on="1"/>
        <pt x="146" y="470" on="1"/>
        <pt x="146" y="74" on="1"/>
        <pt x="146" y="40" on="0"/>
      </contour>
      <contour>
        <pt x="143" y="674" on="1"/>
        <pt x="152" y="690" on="0"/>
        <pt x="185" y="690" on="0"/>
        <pt x="212" y="665" on="0"/>
        <pt x="212" y="636" on="0"/>
        <pt x="201" y="627" on="1"/>
        <pt x="86" y="527" on="1"/>
        <pt x="69" y="539" on="1"/>
      </contour>
    </TTGlyph>
    <TTGlyph name="icircumflex" xMin="5" yMin="-10" xMax="220" yMax="690">
      <contour>
        <pt x="169" y="40" on="1"/>
        <pt x="189" y="40" on="0"/>
        <pt x="201" y="72" on="1"/>
        <pt x="220" y="69" on="1"/>
        <pt x="220" y="60" on="0"/>
        <pt x="208" y="28" on="0"/>
        <pt x="193" y="7" on="0"/>
        <pt x="162" y="-10" on="0"/>
        <pt x="142" y="-10" on="1"/>
        <pt x="60" y="-10" on="0"/>
        <pt x="60" y="89" on="1"/>
        <pt x="60" y="470" on="1"/>
        <pt x="146" y="470" on="1"/>
        <pt x="146" y="74" on="1"/>
        <pt x="146" y="40" on="0"/>
      </contour>
      <contour>
        <pt x="80" y="673" on="1"/>
        <pt x="89" y="690" on="0"/>
        <pt x="129" y="690" on="0"/>
        <pt x="138" y="673" on="1"/>
        <pt x="213" y="547" on="1"/>
        <pt x="201" y="537" on="1"/>
        <pt x="110" y="634" on="1"/>
        <pt x="17" y="537" on="1"/>
        <pt x="5" y="547" on="1"/>
      </contour>
    </TTGlyph>
    <TTGlyph name="idieresis" xMin="-10" yMin="-10" xMax="230" yMax="676">
      <contour>
        <pt x="169" y="40" on="1"/>
        <pt x="189" y="40" on="0"/>
        <pt x="201" y="72" on="1"/>
        <pt x="220" y="69" on="1"/>
        <pt x="220" y="60" on="0"/>
        <pt x="208" y="28" on="0"/>
        <pt x="193" y="7" on="0"/>
        <pt x="162" y="-10" on="0"/>
        <pt x="142" y="-10" on="1"/>
        <pt x="60" y="-10" on="0"/>
        <pt x="60" y="89" on="1"/>
        <pt x="60" y="470" on="1"/>
        <pt x="146" y="470" on="1"/>
        <pt x="146" y="74" on="1"/>
        <pt x="146" y="40" on="0"/>
      </contour>
      <contour>
        <pt x="142" y="645" on="0"/>
        <pt x="168" y="676" on="0"/>
        <pt x="204" y="676" on="0"/>
        <pt x="230" y="645" on="0"/>
        <pt x="230" y="600" on="0"/>
        <pt x="204" y="568" on="0"/>
        <pt x="168" y="568" on="0"/>
        <pt x="142" y="600" on="0"/>
      </contour>
      <contour>
        <pt x="-10" y="645" on="0"/>
        <pt x="16" y="676" on="0"/>
        <pt x="52" y="676" on="0"/>
        <pt x="78" y="645" on="0"/>
        <pt x="78" y="600" on="0"/>
        <pt x="52" y="568" on="0"/>
        <pt x="16" y="568" on="0"/>
        <pt x="-10" y="600" on="0"/>
      </contour>
    </TTGlyph>
    <TTGlyph name="igrave" xMin="20" yMin="-10" xMax="220" yMax="690">
      <contour>
        <pt x="169" y="40" on="1"/>
        <pt x="189" y="40" on="0"/>
        <pt x="201" y="72" on="1"/>
        <pt x="220" y="69" on="1"/>
        <pt x="220" y="60" on="0"/>
        <pt x="208" y="28" on="0"/>
        <pt x="193" y="7" on="0"/>
        <pt x="162" y="-10" on="0"/>
        <pt x="142" y="-10" on="1"/>
        <pt x="60" y="-10" on="0"/>
        <pt x="60" y="89" on="1"/>
        <pt x="60" y="470" on="1"/>
        <pt x="146" y="470" on="1"/>
        <pt x="146" y="74" on="1"/>
        <pt x="146" y="40" on="0"/>
      </contour>
      <contour>
        <pt x="31" y="626" on="1"/>
        <pt x="20" y="637" on="0"/>
        <pt x="20" y="665" on="0"/>
        <pt x="46" y="690" on="0"/>
        <pt x="80" y="690" on="0"/>
        <pt x="89" y="674" on="1"/>
        <pt x="163" y="539" on="1"/>
        <pt x="146" y="526" on="1"/>
      </contour>
    </TTGlyph>
    <TTGlyph name="j" xMin="0" yMin="-210" xMax="160" yMax="690">
      <contour>
        <pt x="134" y="690" on="0"/>
        <pt x="160" y="650" on="0"/>
        <pt x="160" y="595" on="0"/>
        <pt x="134" y="554" on="0"/>
        <pt x="99" y="554" on="0"/>
        <pt x="74" y="594" on="0"/>
        <pt x="74" y="650" on="0"/>
        <pt x="99" y="690" on="0"/>
      </contour>
      <contour>
        <pt x="160" y="-111" on="1"/>
        <pt x="160" y="-210" on="0"/>
        <pt x="78" y="-210" on="1"/>
        <pt x="37" y="-210" on="0"/>
        <pt x="20" y="-182" on="1"/>
        <pt x="3" y="-157" on="0"/>
        <pt x="0" y="-132" on="1"/>
        <pt x="19" y="-128" on="1"/>
        <pt x="22" y="-140" on="0"/>
        <pt x="41" y="-160" on="0"/>
        <pt x="62" y="-160" on="0"/>
        <pt x="73" y="-148" on="0"/>
        <pt x="74" y="-137" on="0"/>
        <pt x="74" y="-126" on="1"/>
        <pt x="74" y="470" on="1"/>
        <pt x="160" y="470" on="1"/>
      </contour>
    </TTGlyph>
    <TTGlyph name="k" xMin="60" yMin="0" xMax="331" yMax="690">
      <contour>
        <pt x="329" y="0" on="1"/>
        <pt x="252" y="0" on="1"/>
        <pt x="252" y="140" on="1"/>
        <pt x="252" y="180" on="0"/>
        <pt x="193" y="232" on="0"/>
        <pt x="146" y="233" on="1"/>
        <pt x="146" y="0" on="1"/>
        <pt x="60" y="0" on="1"/>
        <pt x="60" y="690" on="1"/>
        <pt x="146" y="690" on="1"/>
        <pt x="146" y="285" on="1"/>
        <pt x="293" y="470" on="1"/>
        <pt x="331" y="470" on="1"/>
        <pt x="163" y="259" on="1"/>
        <pt x="236" y="254" on="0"/>
        <pt x="329" y="166" on="0"/>
        <pt x="329" y="104" on="1"/>
      </contour>
    </TTGlyph>
    <TTGlyph name="l" xMin="60" yMin="-10" xMax="220" yMax="690">
      <contour>
        <pt x="141" y="-10" on="1"/>
        <pt x="60" y="-10" on="0"/>
        <pt x="60" y="89" on="1"/>
        <pt x="60" y="690" on="1"/>
        <pt x="146" y="690" on="1"/>
        <pt x="146" y="74" on="1"/>
        <pt x="146" y="40" on="0"/>
        <pt x="168" y="40" on="1"/>
        <pt x="179" y="40" on="0"/>
        <pt x="195" y="56" on="0"/>
        <pt x="201" y="72" on="1"/>
        <pt x="220" y="69" on="1"/>
        <pt x="220" y="61" on="0"/>
        <pt x="209" y="28" on="0"/>
        <pt x="201" y="18" on="1"/>
        <pt x="180" y="-10" on="0"/>
      </contour>
    </TTGlyph>
    <TTGlyph name="less" xMin="100" yMin="0" xMax="419" yMax="565">
      <contour>
        <pt x="383" y="0" on="1"/>
        <pt x="100" y="282" on="1"/>
        <pt x="383" y="565" on="1"/>
        <pt x="418" y="530" on="1"/>
        <pt x="171" y="282" on="1"/>
        <pt x="419" y="35" on="1"/>
      </contour>
    </TTGlyph>
    <TTGlyph name="lslash" xMin="-10" yMin="-10" xMax="252" yMax="690">
      <contour>
        <pt x="149" y="74" on="1"/>
        <pt x="149" y="40" on="0"/>
        <pt x="171" y="40" on="1"/>
        <pt x="182" y="40" on="0"/>
        <pt x="198" y="56" on="0"/>
        <pt x="204" y="72" on="1"/>
        <pt x="223" y="69" on="1"/>
        <pt x="223" y="61" on="0"/>
        <pt x="212" y="28" on="0"/>
        <pt x="204" y="18" on="1"/>
        <pt x="183" y="-10" on="0"/>
        <pt x="144" y="-10" on="1"/>
        <pt x="63" y="-10" on="0"/>
        <pt x="63" y="89" on="1"/>
        <pt x="63" y="328" on="1"/>
        <pt x="16" y="308" on="1"/>
        <pt x="-10" y="367" on="1"/>
        <pt x="63" y="399" on="1"/>
        <pt x="63" y="690" on="1"/>
        <pt x="149" y="690" on="1"/>
        <pt x="149" y="436" on="1"/>
        <pt x="226" y="470" on="1"/>
        <pt x="252" y="410" on="1"/>
        <pt x="149" y="365" on="1"/>
      </contour>
    </TTGlyph>
    <TTGlyph name="m" xMin="60" yMin="-10" xMax="677" yMax="480">
      <contour>
        <pt x="604" y="74" on="1"/>
        <pt x="604" y="40" on="0"/>
        <pt x="646" y="40" on="0"/>
        <pt x="658" y="72" on="1"/>
        <pt x="677" y="69" on="1"/>
        <pt x="677" y="60" on="0"/>
        <pt x="665" y="28" on="0"/>
        <pt x="650" y="7" on="0"/>
        <pt x="619" y="-10" on="0"/>
        <pt x="599" y="-10" on="1"/>
        <pt x="517" y="-10" on="0"/>
        <pt x="517" y="89" on="1"/>
        <pt x="517" y="356" on="1"/>
        <pt x="517" y="450" on="0"/>
        <pt x="458" y="450" on="1"/>
        <pt x="419" y="450" on="0"/>
        <pt x="376" y="380" on="0"/>
        <pt x="376" y="334" on="1"/>
        <pt x="376" y="0" on="1"/>
        <pt x="288" y="0" on="1"/>
        <pt x="288" y="356" on="1"/>
        <pt x="288" y="450" on="0"/>
        <pt x="229" y="450" on="1"/>
        <pt x="190" y="450" on="0"/>
        <pt x="146" y="380" on="0"/>
        <pt x="146" y="334" on="1"/>
        <pt x="146" y="0" on="1"/>
        <pt x="60" y="0" on="1"/>
        <pt x="60" y="470" on="1"/>
        <pt x="146" y="470" on="1"/>
        <pt x="146" y="412" on="1"/>
        <pt x="175" y="480" on="0"/>
        <pt x="245" y="480" on="1"/>
        <pt x="290" y="480" on="0"/>
        <pt x="353" y="430" on="0"/>
        <pt x="366" y="385" on="1"/>
        <pt x="377" y="429" on="0"/>
        <pt x="432" y="480" on="0"/>
        <pt x="474" y="480" on="1"/>
        <pt x="534" y="480" on="0"/>
        <pt x="604" y="395" on="0"/>
        <pt x="604" y="322" on="1"/>
      </contour>
    </TTGlyph>
    <TTGlyph name="macron" xMin="50" yMin="640" xMax="272" yMax="690">
      <contour>
        <pt x="272" y="640" on="1"/>
        <pt x="50" y="640" on="1"/>
        <pt x="50" y="690" on="1"/>
        <pt x="272" y="690" on="1"/>
      </contour>
    </TTGlyph>
    <TTGlyph name="minus" xMin="50" yMin="210" xMax="300" yMax="260">
      <contour>
        <pt x="300" y="210" on="1"/>
        <pt x="50" y="210" on="1"/>
        <pt x="50" y="260" on="1"/>
        <pt x="300" y="260" on="1"/>
      </contour>
    </TTGlyph>
    <TTGlyph name="n" xMin="60" yMin="-10" xMax="448" yMax="480">
      <contour>
        <pt x="398" y="40" on="1"/>
        <pt x="417" y="40" on="0"/>
        <pt x="429" y="72" on="1"/>
        <pt x="448" y="69" on="1"/>
        <pt x="448" y="61" on="0"/>
        <pt x="437" y="28" on="0"/>
        <pt x="422" y="7" on="0"/>
        <pt x="391" y="-10" on="0"/>
        <pt x="371" y="-10" on="1"/>
        <pt x="288" y="-10" on="0"/>
        <pt x="288" y="89" on="1"/>
        <pt x="288" y="356" on="1"/>
        <pt x="288" y="450" on="0"/>
        <pt x="229" y="450" on="1"/>
        <pt x="190" y="450" on="0"/>
        <pt x="146" y="380" on="0"/>
        <pt x="146" y="334" on="1"/>
        <pt x="146" y="0" on="1"/>
        <pt x="60" y="0" on="1"/>
        <pt x="60" y="470" on="1"/>
        <pt x="146" y="470" on="1"/>
        <pt x="146" y="412" on="1"/>
        <pt x="175" y="480" on="0"/>
        <pt x="305" y="480" on="0"/>
        <pt x="375" y="395" on="0"/>
        <pt x="375" y="322" on="1"/>
        <pt x="375" y="74" on="1"/>
        <pt x="375" y="40" on="0"/>
      </contour>
    </TTGlyph>
    <TTGlyph name="nine" xMin="45" yMin="-10" xMax="437" yMax="700">
      <contour>
        <pt x="45" y="533" on="1"/>
        <pt x="45" y="603" on="0"/>
        <pt x="157" y="700" on="0"/>
        <pt x="325" y="700" on="0"/>
        <pt x="437" y="603" on="0"/>
        <pt x="437" y="533" on="1"/>
        <pt x="437" y="213" on="1"/>
        <pt x="437" y="-10" on="0"/>
        <pt x="228" y="-10" on="1"/>
        <pt x="166" y="-10" on="0"/>
        <pt x="79" y="54" on="0"/>
        <pt x="63" y="112" on="1"/>
        <pt x="89" y="120" on="1"/>
        <pt x="101" y="86" on="0"/>
        <pt x="164" y="25" on="0"/>
        <pt x="218" y="25" on="1"/>
        <pt x="329" y="25" on="0"/>
        <pt x="329" y="160" on="1"/>
        <pt x="329" y="273" on="1"/>
        <pt x="287" y="240" on="0"/>
        <pt x="157" y="240" on="0"/>
        <pt x="45" y="334" on="0"/>
        <pt x="45" y="406" on="1"/>
      </contour>
      <contour>
        <pt x="154" y="572" on="1"/>
        <pt x="154" y="367" on="1"/>
        <pt x="154" y="270" on="0"/>
        <pt x="246" y="270" on="1"/>
        <pt x="285" y="270" on="0"/>
        <pt x="329" y="312" on="0"/>
        <pt x="329" y="342" on="1"/>
        <pt x="329" y="572" on="1"/>
        <pt x="329" y="615" on="0"/>
        <pt x="287" y="670" on="0"/>
        <pt x="241" y="670" on="1"/>
        <pt x="154" y="670" on="0"/>
      </contour>
    </TTGlyph>
    <TTGlyph name="ntilde" xMin="60" yMin="-10" xMax="448" yMax="619">
      <contour>
        <pt x="398" y="40" on="1"/>
        <pt x="417" y="40" on="0"/>
        <pt x="429" y="72" on="1"/>
        <pt x="448" y="69" on="1"/>
        <pt x="448" y="61" on="0"/>
        <pt x="437" y="28" on="0"/>
        <pt x="422" y="7" on="0"/>
        <pt x="391" y="-10" on="0"/>
        <pt x="371" y="-10" on="1"/>
        <pt x="288" y="-10" on="0"/>
        <pt x="288" y="89" on="1"/>
        <pt x="288" y="356" on="1"/>
        <pt x="288" y="450" on="0"/>
        <pt x="229" y="450" on="1"/>
        <pt x="190" y="450" on="0"/>
        <pt x="146" y="380" on="0"/>
        <pt x="146" y="334" on="1"/>
        <pt x="146" y="0" on="1"/>
        <pt x="60" y="0" on="1"/>
        <pt x="60" y="470" on="1"/>
        <pt x="146" y="470" on="1"/>
        <pt x="146" y="412" on="1"/>
        <pt x="175" y="480" on="0"/>
        <pt x="305" y="480" on="0"/>
        <pt x="375" y="395" on="0"/>
        <pt x="375" y="322" on="1"/>
        <pt x="375" y="74" on="1"/>
        <pt x="375" y="40" on="0"/>
      </contour>
      <contour>
        <pt x="303" y="536" on="0"/>
        <pt x="259" y="536" on="0"/>
        <pt x="185" y="573" on="0"/>
        <pt x="169" y="573" on="1"/>
        <pt x="138" y="573" on="0"/>
        <pt x="109" y="544" on="1"/>
        <pt x="96" y="555" on="1"/>
        <pt x="151" y="619" on="0"/>
        <pt x="205" y="619" on="1"/>
        <pt x="222" y="619" on="0"/>
        <pt x="285" y="586" on="0"/>
        <pt x="333" y="586" on="0"/>
        <pt x="355" y="600" on="1"/>
        <pt x="356" y="601" on="1"/>
        <pt x="368" y="591" on="1"/>
        <pt x="350" y="566" on="0"/>
      </contour>
    </TTGlyph>
    <TTGlyph name="numbersign" xMin="43" yMin="0" xMax="650" yMax="690">
      <contour>
        <pt x="264" y="268" on="1"/>
        <pt x="398" y="268" on="1"/>
        <pt x="427" y="430" on="1"/>
        <pt x="293" y="430" on="1"/>
      </contour>
      <contour>
        <pt x="604" y="218" on="1"/>
        <pt x="465" y="218" on="1"/>
        <pt x="427" y="0" on="1"/>
        <pt x="351" y="0" on="1"/>
        <pt x="389" y="218" on="1"/>
        <pt x="255" y="218" on="1"/>
        <pt x="217" y="0" on="1"/>
        <pt x="141" y="0" on="1"/>
        <pt x="179" y="218" on="1"/>
        <pt x="43" y="218" on="1"/>
        <pt x="52" y="268" on="1"/>
        <pt x="188" y="268" on="1"/>
        <pt x="217" y="430" on="1"/>
        <pt x="80" y="430" on="1"/>
        <pt x="89" y="480" on="1"/>
        <pt x="226" y="480" on="1"/>
        <pt x="263" y="690" on="1"/>
        <pt x="339" y="690" on="1"/>
        <pt x="302" y="480" on="1"/>
        <pt x="436" y="480" on="1"/>
        <pt x="473" y="690" on="1"/>
        <pt x="548" y="690" on="1"/>
        <pt x="511" y="480" on="1"/>
        <pt x="650" y="480" on="1"/>
        <pt x="641" y="430" on="1"/>
        <pt x="503" y="430" on="1"/>
        <pt x="474" y="268" on="1"/>
        <pt x="613" y="268" on="1"/>
      </contour>
    </TTGlyph>
    <TTGlyph name="o" xMin="50" yMin="-10" xMax="366" yMax="480">
      <contour>
        <pt x="366" y="157" on="1"/>
        <pt x="366" y="84" on="0"/>
        <pt x="283" y="-10" on="0"/>
        <pt x="133" y="-10" on="0"/>
        <pt x="50" y="84" on="0"/>
        <pt x="50" y="157" on="1"/>
        <pt x="50" y="314" on="1"/>
        <pt x="50" y="387" on="0"/>
        <pt x="133" y="480" on="0"/>
        <pt x="283" y="480" on="0"/>
        <pt x="366" y="387" on="0"/>
        <pt x="366" y="314" on="1"/>
      </contour>
      <contour>
        <pt x="279" y="118" on="1"/>
        <pt x="279" y="353" on="1"/>
        <pt x="279" y="450" on="0"/>
        <pt x="136" y="450" on="0"/>
        <pt x="136" y="353" on="1"/>
        <pt x="136" y="118" on="1"/>
        <pt x="136" y="20" on="0"/>
        <pt x="279" y="20" on="0"/>
      </contour>
    </TTGlyph>
    <TTGlyph name="oacute" xMin="50" yMin="-10" xMax="366" yMax="690">
      <contour>
        <pt x="366" y="157" on="1"/>
        <pt x="366" y="84" on="0"/>
        <pt x="283" y="-10" on="0"/>
        <pt x="133" y="-10" on="0"/>
        <pt x="50" y="84" on="0"/>
        <pt x="50" y="157" on="1"/>
        <pt x="50" y="314" on="1"/>
        <pt x="50" y="387" on="0"/>
        <pt x="133" y="480" on="0"/>
        <pt x="283" y="480" on="0"/>
        <pt x="366" y="387" on="0"/>
        <pt x="366" y="314" on="1"/>
      </contour>
      <contour>
        <pt x="279" y="118" on="1"/>
        <pt x="279" y="353" on="1"/>
        <pt x="279" y="450" on="0"/>
        <pt x="136" y="450" on="0"/>
        <pt x="136" y="353" on="1"/>
        <pt x="136" y="118" on="1"/>
        <pt x="136" y="20" on="0"/>
        <pt x="279" y="20" on="0"/>
      </contour>
      <contour>
        <pt x="243" y="674" on="1"/>
        <pt x="252" y="690" on="0"/>
        <pt x="285" y="690" on="0"/>
        <pt x="312" y="665" on="0"/>
        <pt x="312" y="636" on="0"/>
        <pt x="301" y="627" on="1"/>
        <pt x="186" y="527" on="1"/>
        <pt x="169" y="539" on="1"/>
      </contour>
    </TTGlyph>
    <TTGlyph name="ocircumflex" xMin="50" yMin="-10" xMax="366" yMax="690">
      <contour>
        <pt x="366" y="157" on="1"/>
        <pt x="366" y="84" on="0"/>
        <pt x="283" y="-10" on="0"/>
        <pt x="133" y="-10" on="0"/>
        <pt x="50" y="84" on="0"/>
        <pt x="50" y="157" on="1"/>
        <pt x="50" y="314" on="1"/>
        <pt x="50" y="387" on="0"/>
        <pt x="133" y="480" on="0"/>
        <pt x="283" y="480" on="0"/>
        <pt x="366" y="387" on="0"/>
        <pt x="366" y="314" on="1"/>
      </contour>
      <contour>
        <pt x="279" y="118" on="1"/>
        <pt x="279" y="353" on="1"/>
        <pt x="279" y="450" on="0"/>
        <pt x="136" y="450" on="0"/>
        <pt x="136" y="353" on="1"/>
        <pt x="136" y="118" on="1"/>
        <pt x="136" y="20" on="0"/>
        <pt x="279" y="20" on="0"/>
      </contour>
      <contour>
        <pt x="174" y="673" on="1"/>
        <pt x="183" y="690" on="0"/>
        <pt x="223" y="690" on="0"/>
        <pt x="232" y="673" on="1"/>
        <pt x="307" y="547" on="1"/>
        <pt x="295" y="537" on="1"/>
        <pt x="204" y="634" on="1"/>
        <pt x="111" y="537" on="1"/>
        <pt x="99" y="547" on="1"/>
      </contour>
    </TTGlyph>
    <TTGlyph name="odieresis" xMin="50" yMin="-10" xMax="366" yMax="676">
      <contour>
        <pt x="366" y="157" on="1"/>
        <pt x="366" y="84" on="0"/>
        <pt x="283" y="-10" on="0"/>
        <pt x="133" y="-10" on="0"/>
        <pt x="50" y="84" on="0"/>
        <pt x="50" y="157" on="1"/>
        <pt x="50" y="314" on="1"/>
        <pt x="50" y="387" on="0"/>
        <pt x="133" y="480" on="0"/>
        <pt x="283" y="480" on="0"/>
        <pt x="366" y="387" on="0"/>
        <pt x="366" y="314" on="1"/>
      </contour>
      <contour>
        <pt x="279" y="118" on="1"/>
        <pt x="279" y="353" on="1"/>
        <pt x="279" y="450" on="0"/>
        <pt x="136" y="450" on="0"/>
        <pt x="136" y="353" on="1"/>
        <pt x="136" y="118" on="1"/>
        <pt x="136" y="20" on="0"/>
        <pt x="279" y="20" on="0"/>
      </contour>
      <contour>
        <pt x="242" y="645" on="0"/>
        <pt x="268" y="676" on="0"/>
        <pt x="304" y="676" on="0"/>
        <pt x="330" y="645" on="0"/>
        <pt x="330" y="600" on="0"/>
        <pt x="304" y="568" on="0"/>
        <pt x="268" y="568" on="0"/>
        <pt x="242" y="600" on="0"/>
      </contour>
      <contour>
        <pt x="90" y="645" on="0"/>
        <pt x="116" y="676" on="0"/>
        <pt x="152" y="676" on="0"/>
        <pt x="178" y="645" on="0"/>
        <pt x="178" y="600" on="0"/>
        <pt x="152" y="568" on="0"/>
        <pt x="116" y="568" on="0"/>
        <pt x="90" y="600" on="0"/>
      </contour>
    </TTGlyph>
    <TTGlyph name="oe" xMin="50" yMin="-10" xMax="566" yMax="480">
      <contour>
        <pt x="279" y="118" on="1"/>
        <pt x="279" y="353" on="1"/>
        <pt x="279" y="450" on="0"/>
        <pt x="136" y="450" on="0"/>
        <pt x="136" y="353" on="1"/>
        <pt x="136" y="118" on="1"/>
        <pt x="136" y="20" on="0"/>
        <pt x="279" y="20" on="0"/>
      </contour>
      <contour>
        <pt x="566" y="232" on="1"/>
        <pt x="366" y="232" on="1"/>
        <pt x="366" y="118" on="1"/>
        <pt x="366" y="20" on="0"/>
        <pt x="446" y="20" on="1"/>
        <pt x="489" y="20" on="0"/>
        <pt x="533" y="90" on="0"/>
        <pt x="533" y="115" on="1"/>
        <pt x="555" y="115" on="1"/>
        <pt x="555" y="57" on="0"/>
        <pt x="508" y="16" on="1"/>
        <pt x="478" y="-10" on="0"/>
        <pt x="432" y="-10" on="1"/>
        <pt x="361" y="-10" on="0"/>
        <pt x="320" y="33" on="1"/>
        <pt x="277" y="-10" on="0"/>
        <pt x="133" y="-10" on="0"/>
        <pt x="50" y="84" on="0"/>
        <pt x="50" y="157" on="1"/>
        <pt x="50" y="314" on="1"/>
        <pt x="50" y="387" on="0"/>
        <pt x="133" y="480" on="0"/>
        <pt x="278" y="480" on="0"/>
        <pt x="322" y="436" on="1"/>
        <pt x="364" y="480" on="0"/>
        <pt x="505" y="480" on="0"/>
        <pt x="566" y="384" on="0"/>
        <pt x="566" y="311" on="1"/>
      </contour>
      <contour>
        <pt x="509" y="262" on="1"/>
        <pt x="509" y="353" on="1"/>
        <pt x="509" y="450" on="0"/>
        <pt x="439" y="450" on="1"/>
        <pt x="366" y="450" on="0"/>
        <pt x="366" y="353" on="1"/>
        <pt x="366" y="262" on="1"/>
      </contour>
    </TTGlyph>
    <TTGlyph name="ogonek" xMin="50" yMin="-119" xMax="181" yMax="0">
      <contour>
        <pt x="50" y="0" on="1"/>
        <pt x="121" y="0" on="1"/>
        <pt x="121" y="-5" on="1"/>
        <pt x="121" y="-79" on="0"/>
        <pt x="181" y="-103" on="1"/>
        <pt x="176" y="-119" on="1"/>
        <pt x="115" y="-110" on="0"/>
        <pt x="50" y="-45" on="0"/>
      </contour>
    </TTGlyph>
    <TTGlyph name="ograve" xMin="50" yMin="-10" xMax="366" yMax="690">
      <contour>
        <pt x="366" y="157" on="1"/>
        <pt x="366" y="84" on="0"/>
        <pt x="283" y="-10" on="0"/>
        <pt x="133" y="-10" on="0"/>
        <pt x="50" y="84" on="0"/>
        <pt x="50" y="157" on="1"/>
        <pt x="50" y="314" on="1"/>
        <pt x="50" y="387" on="0"/>
        <pt x="133" y="480" on="0"/>
        <pt x="283" y="480" on="0"/>
        <pt x="366" y="387" on="0"/>
        <pt x="366" y="314" on="1"/>
      </contour>
      <contour>
        <pt x="279" y="118" on="1"/>
        <pt x="279" y="353" on="1"/>
        <pt x="279" y="450" on="0"/>
        <pt x="136" y="450" on="0"/>
        <pt x="136" y="353" on="1"/>
        <pt x="136" y="118" on="1"/>
        <pt x="136" y="20" on="0"/>
        <pt x="279" y="20" on="0"/>
      </contour>
      <contour>
        <pt x="114" y="626" on="1"/>
        <pt x="103" y="637" on="0"/>
        <pt x="103" y="665" on="0"/>
        <pt x="129" y="690" on="0"/>
        <pt x="163" y="690" on="0"/>
        <pt x="172" y="674" on="1"/>
        <pt x="246" y="539" on="1"/>
        <pt x="229" y="526" on="1"/>
      </contour>
    </TTGlyph>
    <TTGlyph name="one" xMin="20" yMin="0" xMax="226" yMax="690">
      <contour>
        <pt x="226" y="0" on="1"/>
        <pt x="117" y="0" on="1"/>
        <pt x="117" y="612" on="1"/>
        <pt x="20" y="502" on="1"/>
        <pt x="20" y="572" on="1"/>
        <pt x="117" y="690" on="1"/>
        <pt x="226" y="690" on="1"/>
      </contour>
    </TTGlyph>
    <TTGlyph name="ordfeminine" xMin="60" yMin="410" xMax="255" yMax="655">
      <contour>
        <pt x="218" y="452" on="1"/>
        <pt x="218" y="435" on="0"/>
        <pt x="239" y="435" on="0"/>
        <pt x="245" y="451" on="1"/>
        <pt x="255" y="450" on="1"/>
        <pt x="255" y="435" on="0"/>
        <pt x="232" y="410" on="0"/>
        <pt x="216" y="410" on="1"/>
        <pt x="180" y="410" on="0"/>
        <pt x="176" y="447" on="1"/>
        <pt x="161" y="410" on="0"/>
        <pt x="96" y="410" on="0"/>
        <pt x="60" y="453" on="0"/>
        <pt x="60" y="490" on="1"/>
        <pt x="60" y="576" on="1"/>
        <pt x="60" y="612" on="0"/>
        <pt x="96" y="655" on="0"/>
        <pt x="160" y="655" on="0"/>
        <pt x="175" y="621" on="1"/>
        <pt x="175" y="650" on="1"/>
        <pt x="218" y="650" on="1"/>
      </contour>
      <contour>
        <pt x="175" y="484" on="1"/>
        <pt x="175" y="582" on="1"/>
        <pt x="175" y="605" on="0"/>
        <pt x="153" y="640" on="0"/>
        <pt x="133" y="640" on="1"/>
        <pt x="104" y="640" on="0"/>
        <pt x="104" y="593" on="1"/>
        <pt x="104" y="473" on="1"/>
        <pt x="104" y="426" on="0"/>
        <pt x="133" y="426" on="1"/>
        <pt x="153" y="426" on="0"/>
        <pt x="175" y="460" on="0"/>
      </contour>
    </TTGlyph>
    <TTGlyph name="ordmasculine" xMin="60" yMin="410" xMax="218" yMax="655">
      <contour>
        <pt x="218" y="494" on="1"/>
        <pt x="218" y="457" on="0"/>
        <pt x="177" y="410" on="0"/>
        <pt x="102" y="410" on="0"/>
        <pt x="60" y="457" on="0"/>
        <pt x="60" y="494" on="1"/>
        <pt x="60" y="572" on="1"/>
        <pt x="60" y="608" on="0"/>
        <pt x="102" y="655" on="0"/>
        <pt x="177" y="655" on="0"/>
        <pt x="218" y="609" on="0"/>
        <pt x="218" y="572" on="1"/>
      </contour>
      <contour>
        <pt x="175" y="474" on="1"/>
        <pt x="175" y="592" on="1"/>
        <pt x="175" y="640" on="0"/>
        <pt x="103" y="640" on="0"/>
        <pt x="103" y="592" on="1"/>
        <pt x="103" y="474" on="1"/>
        <pt x="103" y="425" on="0"/>
        <pt x="175" y="425" on="0"/>
      </contour>
    </TTGlyph>
    <TTGlyph name="oslash" xMin="50" yMin="-39" xMax="366" yMax="511">
      <contour>
        <pt x="136" y="353" on="1"/>
        <pt x="136" y="118" on="1"/>
        <pt x="136" y="52" on="0"/>
        <pt x="169" y="31" on="1"/>
        <pt x="214" y="450" on="1"/>
        <pt x="208" y="451" on="1"/>
        <pt x="136" y="451" on="0"/>
      </contour>
      <contour>
        <pt x="210" y="20" on="1"/>
        <pt x="279" y="20" on="0"/>
        <pt x="279" y="118" on="1"/>
        <pt x="279" y="353" on="1"/>
        <pt x="279" y="418" on="0"/>
        <pt x="248" y="440" on="1"/>
        <pt x="203" y="21" on="1"/>
        <pt x="208" y="20" on="1"/>
      </contour>
      <contour>
        <pt x="366" y="314" on="1"/>
        <pt x="366" y="157" on="1"/>
        <pt x="366" y="84" on="0"/>
        <pt x="283" y="-10" on="0"/>
        <pt x="208" y="-10" on="1"/>
        <pt x="200" y="-10" on="1"/>
        <pt x="197" y="-39" on="1"/>
        <pt x="162" y="-35" on="1"/>
        <pt x="165" y="-4" on="1"/>
        <pt x="110" y="8" on="0"/>
        <pt x="50" y="96" on="0"/>
        <pt x="50" y="157" on="1"/>
        <pt x="50" y="314" on="1"/>
        <pt x="50" y="387" on="0"/>
        <pt x="133" y="480" on="0"/>
        <pt x="208" y="480" on="1"/>
        <pt x="217" y="480" on="1"/>
        <pt x="220" y="511" on="1"/>
        <pt x="255" y="507" on="1"/>
        <pt x="251" y="475" on="1"/>
        <pt x="306" y="463" on="0"/>
        <pt x="366" y="375" on="0"/>
      </contour>
    </TTGlyph>
    <TTGlyph name="otilde" xMin="50" yMin="-10" xMax="366" yMax="619">
      <contour>
        <pt x="366" y="157" on="1"/>
        <pt x="366" y="84" on="0"/>
        <pt x="283" y="-10" on="0"/>
        <pt x="133" y="-10" on="0"/>
        <pt x="50" y="84" on="0"/>
        <pt x="50" y="157" on="1"/>
        <pt x="50" y="314" on="1"/>
        <pt x="50" y="387" on="0"/>
        <pt x="133" y="480" on="0"/>
        <pt x="283" y="480" on="0"/>
        <pt x="366" y="387" on="0"/>
        <pt x="366" y="314" on="1"/>
      </contour>
      <contour>
        <pt x="279" y="118" on="1"/>
        <pt x="279" y="353" on="1"/>
        <pt x="279" y="450" on="0"/>
        <pt x="136" y="450" on="0"/>
        <pt x="136" y="353" on="1"/>
        <pt x="136" y="118" on="1"/>
        <pt x="136" y="20" on="0"/>
        <pt x="279" y="20" on="0"/>
      </contour>
      <contour>
        <pt x="286" y="536" on="0"/>
        <pt x="242" y="536" on="0"/>
        <pt x="168" y="573" on="0"/>
        <pt x="152" y="573" on="1"/>
        <pt x="121" y="573" on="0"/>
        <pt x="92" y="544" on="1"/>
        <pt x="79" y="555" on="1"/>
        <pt x="134" y="619" on="0"/>
        <pt x="188" y="619" on="1"/>
        <pt x="205" y="619" on="0"/>
        <pt x="268" y="586" on="0"/>
        <pt x="316" y="586" on="0"/>
        <pt x="338" y="600" on="1"/>
        <pt x="339" y="601" on="1"/>
        <pt x="351" y="591" on="1"/>
        <pt x="333" y="566" on="0"/>
      </contour>
    </TTGlyph>
    <TTGlyph name="p" xMin="60" yMin="-145" xMax="376" yMax="480">
      <contour>
        <pt x="376" y="149" on="1"/>
        <pt x="376" y="77" on="0"/>
        <pt x="305" y="-10" on="0"/>
        <pt x="176" y="-10" on="0"/>
        <pt x="146" y="59" on="1"/>
        <pt x="146" y="-145" on="1"/>
        <pt x="60" y="-145" on="1"/>
        <pt x="60" y="470" on="1"/>
        <pt x="146" y="470" on="1"/>
        <pt x="146" y="411" on="1"/>
        <pt x="176" y="480" on="0"/>
        <pt x="305" y="480" on="0"/>
        <pt x="376" y="395" on="0"/>
        <pt x="376" y="322" on="1"/>
      </contour>
      <contour>
        <pt x="288" y="115" on="1"/>
        <pt x="288" y="356" on="1"/>
        <pt x="288" y="450" on="0"/>
        <pt x="231" y="450" on="1"/>
        <pt x="190" y="450" on="0"/>
        <pt x="146" y="383" on="0"/>
        <pt x="146" y="334" on="1"/>
        <pt x="146" y="137" on="1"/>
        <pt x="146" y="92" on="0"/>
        <pt x="190" y="22" on="0"/>
        <pt x="229" y="22" on="1"/>
        <pt x="288" y="22" on="0"/>
      </contour>
    </TTGlyph>
    <TTGlyph name="paragraph" xMin="50" yMin="0" xMax="487" yMax="690">
      <contour>
        <pt x="348" y="660" on="1"/>
        <pt x="348" y="230" on="1"/>
        <pt x="400" y="230" on="1"/>
        <pt x="400" y="660" on="1"/>
      </contour>
      <contour>
        <pt x="259" y="230" on="1"/>
        <pt x="259" y="661" on="1"/>
        <pt x="208" y="661" on="1"/>
        <pt x="136" y="661" on="0"/>
        <pt x="136" y="563" on="1"/>
        <pt x="136" y="328" on="1"/>
        <pt x="136" y="230" on="0"/>
        <pt x="208" y="230" on="1"/>
      </contour>
      <contour>
        <pt x="348" y="0" on="1"/>
        <pt x="259" y="0" on="1"/>
        <pt x="259" y="200" on="1"/>
        <pt x="208" y="200" on="1"/>
        <pt x="133" y="200" on="0"/>
        <pt x="50" y="294" on="0"/>
        <pt x="50" y="367" on="1"/>
        <pt x="50" y="524" on="1"/>
        <pt x="50" y="597" on="0"/>
        <pt x="133" y="690" on="0"/>
        <pt x="208" y="690" on="1"/>
        <pt x="487" y="690" on="1"/>
        <pt x="487" y="0" on="1"/>
        <pt x="400" y="0" on="1"/>
        <pt x="400" y="200" on="1"/>
        <pt x="348" y="200" on="1"/>
      </contour>
    </TTGlyph>
    <TTGlyph name="parenleft" xMin="60" yMin="-40" xMax="298" yMax="730">
      <contour>
        <pt x="298" y="-40" on="1"/>
        <pt x="191" y="-40" on="0"/>
        <pt x="60" y="136" on="0"/>
        <pt x="60" y="254" on="1"/>
        <pt x="60" y="440" on="1"/>
        <pt x="60" y="557" on="0"/>
        <pt x="191" y="730" on="0"/>
        <pt x="298" y="730" on="1"/>
        <pt x="298" y="700" on="1"/>
        <pt x="236" y="700" on="0"/>
        <pt x="169" y="587" on="0"/>
        <pt x="169" y="513" on="1"/>
        <pt x="169" y="182" on="1"/>
        <pt x="169" y="106" on="0"/>
        <pt x="236" y="-10" on="0"/>
        <pt x="298" y="-10" on="1"/>
      </contour>
    </TTGlyph>
    <TTGlyph name="parenright" xMin="60" yMin="-40" xMax="298" yMax="730">
      <contour>
        <pt x="60" y="-40" on="1"/>
        <pt x="60" y="-10" on="1"/>
        <pt x="122" y="-10" on="0"/>
        <pt x="189" y="106" on="0"/>
        <pt x="189" y="182" on="1"/>
        <pt x="189" y="513" on="1"/>
        <pt x="189" y="587" on="0"/>
        <pt x="122" y="700" on="0"/>
        <pt x="60" y="700" on="1"/>
        <pt x="60" y="730" on="1"/>
        <pt x="167" y="730" on="0"/>
        <pt x="298" y="557" on="0"/>
        <pt x="298" y="440" on="1"/>
        <pt x="298" y="254" on="1"/>
        <pt x="298" y="136" on="0"/>
        <pt x="167" y="-40" on="0"/>
      </contour>
    </TTGlyph>
    <TTGlyph name="percent" xMin="50" yMin="-30" xMax="731" yMax="730">
      <contour>
        <pt x="527" y="730" on="1"/>
        <pt x="609" y="730" on="1"/>
        <pt x="262" y="-30" on="1"/>
        <pt x="180" y="-30" on="1"/>
      </contour>
      <contour>
        <pt x="346" y="507" on="1"/>
        <pt x="346" y="434" on="0"/>
        <pt x="273" y="350" on="0"/>
        <pt x="123" y="350" on="0"/>
        <pt x="50" y="434" on="0"/>
        <pt x="50" y="507" on="1"/>
        <pt x="50" y="544" on="1"/>
        <pt x="50" y="617" on="0"/>
        <pt x="123" y="700" on="0"/>
        <pt x="273" y="700" on="0"/>
        <pt x="346" y="617" on="0"/>
        <pt x="346" y="544" on="1"/>
      </contour>
      <contour>
        <pt x="259" y="478" on="1"/>
        <pt x="259" y="573" on="1"/>
        <pt x="259" y="621" on="0"/>
        <pt x="236" y="670" on="0"/>
        <pt x="160" y="670" on="0"/>
        <pt x="136" y="620" on="0"/>
        <pt x="136" y="573" on="1"/>
        <pt x="136" y="478" on="1"/>
        <pt x="136" y="431" on="0"/>
        <pt x="160" y="380" on="0"/>
        <pt x="236" y="380" on="0"/>
        <pt x="259" y="430" on="0"/>
      </contour>
      <contour>
        <pt x="731" y="146" on="1"/>
        <pt x="731" y="73" on="0"/>
        <pt x="658" y="-10" on="0"/>
        <pt x="508" y="-10" on="0"/>
        <pt x="435" y="73" on="0"/>
        <pt x="435" y="146" on="1"/>
        <pt x="435" y="183" on="1"/>
        <pt x="435" y="256" on="0"/>
        <pt x="508" y="340" on="0"/>
        <pt x="658" y="340" on="0"/>
        <pt x="731" y="256" on="0"/>
        <pt x="731" y="183" on="1"/>
      </contour>
      <contour>
        <pt x="644" y="117" on="1"/>
        <pt x="644" y="212" on="1"/>
        <pt x="644" y="260" on="0"/>
        <pt x="621" y="310" on="0"/>
        <pt x="545" y="310" on="0"/>
        <pt x="521" y="259" on="0"/>
        <pt x="521" y="212" on="1"/>
        <pt x="521" y="117" on="1"/>
        <pt x="521" y="70" on="0"/>
        <pt x="545" y="20" on="0"/>
        <pt x="621" y="20" on="0"/>
        <pt x="644" y="69" on="0"/>
      </contour>
    </TTGlyph>
    <TTGlyph name="period" xMin="50" yMin="-10" xMax="138" yMax="96">
      <contour>
        <pt x="50" y="21" on="0"/>
        <pt x="50" y="65" on="0"/>
        <pt x="76" y="96" on="0"/>
        <pt x="112" y="96" on="0"/>
        <pt x="138" y="65" on="0"/>
        <pt x="138" y="21" on="0"/>
        <pt x="112" y="-10" on="0"/>
        <pt x="76" y="-10" on="0"/>
      </contour>
    </TTGlyph>
    <TTGlyph name="periodcentered" xMin="15" yMin="194" xMax="103" yMax="300">
      <contour>
        <pt x="15" y="225" on="0"/>
        <pt x="15" y="269" on="0"/>
        <pt x="41" y="300" on="0"/>
        <pt x="77" y="300" on="0"/>
        <pt x="103" y="269" on="0"/>
        <pt x="103" y="225" on="0"/>
        <pt x="77" y="194" on="0"/>
        <pt x="41" y="194" on="0"/>
      </contour>
    </TTGlyph>
</ttFont>
